<?xml version="1.0" encoding="utf-8"?>
<!-- Generator: Adobe Illustrator 24.3.0, SVG Export Plug-In . SVG Version: 6.00 Build 0)  -->
<svg version="1.1" xmlns="http://www.w3.org/2000/svg" xmlns:xlink="http://www.w3.org/1999/xlink" x="0px" y="0px"
	 viewBox="0 0 1000 1000" style="enable-background:new 0 0 1000 1000;" xml:space="preserve">
<style type="text/css">
	.st0{fill:none;}
	.st1{fill:#FFFFFF;stroke:#000000;stroke-miterlimit:10;}
	.st2{display:none;}
	.st3{display:inline;}
	.st4{fill:#FFFFFF;stroke:#000000;stroke-linecap:round;stroke-linejoin:round;stroke-miterlimit:10;}
	.st5{display:inline;fill:url(#Новый_узор_5);stroke:#000000;stroke-miterlimit:10;}
	.st6{display:inline;fill:url(#Новый_узор_3);stroke:#000000;stroke-miterlimit:10;}
	.st7{display:inline;fill:#FFFFFF;stroke:#000000;stroke-miterlimit:10;}
	.st8{display:inline;fill:none;stroke:#000000;stroke-miterlimit:10;}
	.st9{fill:none;stroke:#000000;stroke-miterlimit:10;}
	.st10{display:inline;fill:none;stroke:#000000;stroke-linecap:round;stroke-linejoin:round;stroke-miterlimit:10;}
	.st11{fill:none;stroke:#000000;stroke-linecap:round;stroke-linejoin:round;stroke-miterlimit:10;}
	.st12{fill:#E25822;stroke:#000000;stroke-linecap:round;stroke-linejoin:round;stroke-miterlimit:10;}
	.st13{display:inline;fill:#E25822;stroke:#000000;stroke-linecap:round;stroke-linejoin:round;stroke-miterlimit:10;}
</style>
<pattern  width="138" height="217" patternUnits="userSpaceOnUse" id="Новый_узор_3" viewBox="77.42 -298.65 138 217" style="overflow:visible;">
	<g>
		<rect x="77.42" y="-298.65" class="st0" width="138" height="217"/>
		<g>
			
				<rect x="200.86" y="-69.6" transform="matrix(-0.7071 0.7071 -0.7071 -0.7071 384.9507 -276.8329)" class="st1" width="97.9" height="21.82"/>
		</g>
		<g>
			
				<rect x="132.08" y="-85.03" transform="matrix(0.7071 0.7071 -0.7071 0.7071 0.6129 -149.7202)" class="st1" width="97.9" height="21.82"/>
			
				<rect x="132.08" y="-53.95" transform="matrix(0.7071 0.7071 -0.7071 0.7071 22.5937 -140.6154)" class="st1" width="97.9" height="21.82"/>
			
				<rect x="62.86" y="-69.6" transform="matrix(-0.7071 0.7071 -0.7071 -0.7071 149.3699 -179.2521)" class="st1" width="97.9" height="21.82"/>
		</g>
		<g>
			
				<rect x="-5.92" y="-85.03" transform="matrix(0.7071 0.7071 -0.7071 0.7071 -39.8064 -52.1395)" class="st1" width="97.9" height="21.82"/>
			
				<rect x="-5.92" y="-53.95" transform="matrix(0.7071 0.7071 -0.7071 0.7071 -17.8256 -43.0347)" class="st1" width="97.9" height="21.82"/>
		</g>
		<g>
			
				<rect x="200.86" y="-286.6" transform="matrix(-0.7071 0.7071 -0.7071 -0.7071 231.5085 -647.275)" class="st1" width="97.9" height="21.82"/>
			
				<rect x="200.86" y="-255.52" transform="matrix(-0.7071 0.7071 -0.7071 -0.7071 253.4893 -594.2086)" class="st1" width="97.9" height="21.82"/>
			
				<rect x="200.86" y="-224.43" transform="matrix(-0.7071 0.7071 -0.7071 -0.7071 275.4702 -541.1421)" class="st1" width="97.9" height="21.82"/>
			
				<rect x="200.86" y="-193.34" transform="matrix(-0.7071 0.7071 -0.7071 -0.7071 297.451 -488.0757)" class="st1" width="97.9" height="21.82"/>
			
				<rect x="200.86" y="-162.26" transform="matrix(-0.7071 0.7071 -0.7071 -0.7071 319.4319 -435.0092)" class="st1" width="97.9" height="21.82"/>
			
				<rect x="200.86" y="-131.17" transform="matrix(-0.7071 0.7071 -0.7071 -0.7071 341.4127 -381.9427)" class="st1" width="97.9" height="21.82"/>
			
				<rect x="200.86" y="-100.09" transform="matrix(-0.7071 0.7071 -0.7071 -0.7071 363.3936 -328.8763)" class="st1" width="97.9" height="21.82"/>
		</g>
		<g>
			
				<rect x="132.08" y="-302.03" transform="matrix(0.7071 0.7071 -0.7071 0.7071 -152.8293 -213.278)" class="st1" width="97.9" height="21.82"/>
			
				<rect x="132.08" y="-270.95" transform="matrix(0.7071 0.7071 -0.7071 0.7071 -130.8485 -204.1733)" class="st1" width="97.9" height="21.82"/>
			
				<rect x="132.08" y="-239.86" transform="matrix(0.7071 0.7071 -0.7071 0.7071 -108.8676 -195.0685)" class="st1" width="97.9" height="21.82"/>
			
				<rect x="132.08" y="-208.77" transform="matrix(0.7071 0.7071 -0.7071 0.7071 -86.8868 -185.9637)" class="st1" width="97.9" height="21.82"/>
			
				<rect x="132.08" y="-177.69" transform="matrix(0.7071 0.7071 -0.7071 0.7071 -64.9059 -176.859)" class="st1" width="97.9" height="21.82"/>
			
				<rect x="132.08" y="-146.6" transform="matrix(0.7071 0.7071 -0.7071 0.7071 -42.9251 -167.7542)" class="st1" width="97.9" height="21.82"/>
			
				<rect x="132.08" y="-115.52" transform="matrix(0.7071 0.7071 -0.7071 0.7071 -20.9442 -158.6494)" class="st1" width="97.9" height="21.82"/>
			
				<rect x="62.86" y="-286.6" transform="matrix(-0.7071 0.7071 -0.7071 -0.7071 -4.0723 -549.6943)" class="st1" width="97.9" height="21.82"/>
			
				<rect x="62.86" y="-255.52" transform="matrix(-0.7071 0.7071 -0.7071 -0.7071 17.9086 -496.6278)" class="st1" width="97.9" height="21.82"/>
			
				<rect x="62.86" y="-224.43" transform="matrix(-0.7071 0.7071 -0.7071 -0.7071 39.8894 -443.5614)" class="st1" width="97.9" height="21.82"/>
			
				<rect x="62.86" y="-193.34" transform="matrix(-0.7071 0.7071 -0.7071 -0.7071 61.8703 -390.4949)" class="st1" width="97.9" height="21.82"/>
			
				<rect x="62.86" y="-162.26" transform="matrix(-0.7071 0.7071 -0.7071 -0.7071 83.8511 -337.4285)" class="st1" width="97.9" height="21.82"/>
			
				<rect x="62.86" y="-131.17" transform="matrix(-0.7071 0.7071 -0.7071 -0.7071 105.832 -284.362)" class="st1" width="97.9" height="21.82"/>
			
				<rect x="62.86" y="-100.09" transform="matrix(-0.7071 0.7071 -0.7071 -0.7071 127.8128 -231.2956)" class="st1" width="97.9" height="21.82"/>
		</g>
		<g>
			
				<rect x="-5.92" y="-302.03" transform="matrix(0.7071 0.7071 -0.7071 0.7071 -193.2486 -115.6973)" class="st1" width="97.9" height="21.82"/>
			
				<rect x="-5.92" y="-270.95" transform="matrix(0.7071 0.7071 -0.7071 0.7071 -171.2677 -106.5925)" class="st1" width="97.9" height="21.82"/>
			
				<rect x="-5.92" y="-239.86" transform="matrix(0.7071 0.7071 -0.7071 0.7071 -149.2869 -97.4878)" class="st1" width="97.9" height="21.82"/>
			
				<rect x="-5.92" y="-208.77" transform="matrix(0.7071 0.7071 -0.7071 0.7071 -127.306 -88.383)" class="st1" width="97.9" height="21.82"/>
			
				<rect x="-5.92" y="-177.69" transform="matrix(0.7071 0.7071 -0.7071 0.7071 -105.3252 -79.2782)" class="st1" width="97.9" height="21.82"/>
			
				<rect x="-5.92" y="-146.6" transform="matrix(0.7071 0.7071 -0.7071 0.7071 -83.3443 -70.1735)" class="st1" width="97.9" height="21.82"/>
			
				<rect x="-5.92" y="-115.52" transform="matrix(0.7071 0.7071 -0.7071 0.7071 -61.3635 -61.0687)" class="st1" width="97.9" height="21.82"/>
		</g>
		<g>
			
				<rect x="200.86" y="-348.17" transform="matrix(-0.7071 0.7071 -0.7071 -0.7071 187.9705 -752.3849)" class="st1" width="97.9" height="21.82"/>
			
				<rect x="200.86" y="-317.09" transform="matrix(-0.7071 0.7071 -0.7071 -0.7071 209.9514 -699.3185)" class="st1" width="97.9" height="21.82"/>
		</g>
		<g>
			
				<rect x="132.08" y="-332.52" transform="matrix(0.7071 0.7071 -0.7071 0.7071 -174.3864 -222.2073)" class="st1" width="97.9" height="21.82"/>
			
				<rect x="62.86" y="-348.17" transform="matrix(-0.7071 0.7071 -0.7071 -0.7071 -47.6102 -654.8042)" class="st1" width="97.9" height="21.82"/>
			
				<rect x="62.86" y="-317.09" transform="matrix(-0.7071 0.7071 -0.7071 -0.7071 -25.6294 -601.7377)" class="st1" width="97.9" height="21.82"/>
		</g>
		<g>
			
				<rect x="-5.92" y="-332.52" transform="matrix(0.7071 0.7071 -0.7071 0.7071 -214.8057 -124.6265)" class="st1" width="97.9" height="21.82"/>
		</g>
	</g>
</pattern>
<pattern  width="207" height="158" patternUnits="userSpaceOnUse" id="Новый_узор_5" viewBox="75.09 -158 207 158" style="overflow:visible;">
	<g>
		<rect x="75.09" y="-158" class="st0" width="207" height="158"/>
		<g>
			<g>
				<path class="st1" d="M350.2-2.64h-82.9c-3.57,0-6.47-2.9-6.47-6.47v-20.09c0-3.57,2.9-6.47,6.47-6.47h82.9
					c3.57,0,6.47,2.9,6.47,6.47v20.09C356.67-5.53,353.78-2.64,350.2-2.64z"/>
			</g>
		</g>
		<g>
			<g>
				<path class="st1" d="M143.2-2.64H60.3c-3.57,0-6.47-2.9-6.47-6.47v-20.09c0-3.57,2.9-6.47,6.47-6.47h82.9
					c3.57,0,6.47,2.9,6.47,6.47v20.09C149.67-5.53,146.78-2.64,143.2-2.64z"/>
				<path class="st1" d="M246.78-2.64h-82.9c-3.57,0-6.47-2.9-6.47-6.47v-20.09c0-3.57,2.9-6.47,6.47-6.47h82.9
					c3.57,0,6.47,2.9,6.47,6.47v20.09C253.25-5.53,250.35-2.64,246.78-2.64z"/>
			</g>
		</g>
		<g>
			<g>
				<path class="st1" d="M350.2-81.64h-82.9c-3.57,0-6.47-2.9-6.47-6.47v-20.09c0-3.57,2.9-6.47,6.47-6.47h82.9
					c3.57,0,6.47,2.9,6.47,6.47v20.09C356.67-84.53,353.78-81.64,350.2-81.64z"/>
			</g>
		</g>
		<g>
			<g>
				<path class="st1" d="M143.2-81.64H60.3c-3.57,0-6.47-2.9-6.47-6.47v-20.09c0-3.57,2.9-6.47,6.47-6.47h82.9
					c3.57,0,6.47,2.9,6.47,6.47v20.09C149.67-84.53,146.78-81.64,143.2-81.64z"/>
				<path class="st1" d="M246.78-81.64h-82.9c-3.57,0-6.47-2.9-6.47-6.47v-20.09c0-3.57,2.9-6.47,6.47-6.47h82.9
					c3.57,0,6.47,2.9,6.47,6.47v20.09C253.25-84.53,250.35-81.64,246.78-81.64z"/>
			</g>
			<g>
				<path class="st1" d="M193.29-43.34h-82.9c-3.57,0-6.47-2.9-6.47-6.47v-20.09c0-3.57,2.9-6.47,6.47-6.47h82.9
					c3.57,0,6.47,2.9,6.47,6.47v20.09C199.76-46.24,196.86-43.34,193.29-43.34z"/>
				<path class="st1" d="M296.87-43.34h-82.9c-3.57,0-6.47-2.9-6.47-6.47v-20.09c0-3.57,2.9-6.47,6.47-6.47h82.9
					c3.57,0,6.47,2.9,6.47,6.47v20.09C303.34-46.24,300.44-43.34,296.87-43.34z"/>
			</g>
		</g>
		<g>
			<g>
				<path class="st1" d="M89.87-43.34H6.97c-3.57,0-6.47-2.9-6.47-6.47v-20.09c0-3.57,2.9-6.47,6.47-6.47h82.9
					c3.57,0,6.47,2.9,6.47,6.47v20.09C96.34-46.24,93.44-43.34,89.87-43.34z"/>
			</g>
		</g>
		<g>
			<g>
				<path class="st1" d="M193.29-122.34h-82.9c-3.57,0-6.47-2.9-6.47-6.47v-20.09c0-3.57,2.9-6.47,6.47-6.47h82.9
					c3.57,0,6.47,2.9,6.47,6.47v20.09C199.76-125.24,196.86-122.34,193.29-122.34z"/>
				<path class="st1" d="M296.87-122.34h-82.9c-3.57,0-6.47-2.9-6.47-6.47v-20.09c0-3.57,2.9-6.47,6.47-6.47h82.9
					c3.57,0,6.47,2.9,6.47,6.47v20.09C303.34-125.24,300.44-122.34,296.87-122.34z"/>
			</g>
		</g>
		<g>
			<g>
				<path class="st1" d="M89.87-122.34H6.97c-3.57,0-6.47-2.9-6.47-6.47v-20.09c0-3.57,2.9-6.47,6.47-6.47h82.9
					c3.57,0,6.47,2.9,6.47,6.47v20.09C96.34-125.24,93.44-122.34,89.87-122.34z"/>
			</g>
		</g>
	</g>
</pattern>
<g id="воздушный_шар">
	<polygon class="st9" points="525.58,785.64 524.44,792.99 477.71,792.99 476.57,785.64 	"/>
	<polygon class="st9" points="531.92,744.78 526.37,780.55 475.78,780.55 470.23,744.78 	"/>
	<polygon class="st9" points="534.85,725.85 532.76,739.28 469.38,739.28 467.29,725.85 	"/>
	<polygon class="st9" points="469.35,739.28 465.62,739.28 464.49,725.85 467.27,725.85 	"/>
	<polygon class="st9" points="476.54,785.64 469.53,785.64 466.09,744.78 470.2,744.78 	"/>
	<polygon class="st9" points="526.37,780.55 525.58,785.64 476.57,785.64 475.78,780.55 	"/>
	<polygon class="st9" points="531.95,744.78 536.07,744.78 532.63,785.64 525.61,785.64 	"/>
	<polygon class="st9" points="537.66,725.85 536.53,739.28 532.8,739.28 534.89,725.85 	"/>
	<polygon class="st9" points="541.32,721.36 540.51,725.85 461.65,725.85 460.84,721.36 461.44,716.88 540.71,716.88 	"/>
	<polygon class="st9" points="497.02,744.78 505.14,744.78 503.48,780.55 498.68,780.55 	"/>
	<polygon class="st9" points="506.01,725.85 505.39,739.28 496.77,739.28 496.14,725.85 	"/>
	<path class="st9" d="M472.62,744.78h21.32c-1.18,5.16-5.51,8.99-10.66,8.99C478.13,753.76,473.8,749.93,472.62,744.78z"/>
	<path class="st9" d="M493.97,739.28h-21.39c1.13-5.25,5.49-9.16,10.69-9.16C488.48,730.12,492.85,734.03,493.97,739.28z"/>
	<ellipse class="st9" cx="486.78" cy="766.7" rx="8.32" ry="8.97"/>
	<path class="st9" d="M529.5,739.28h-21.25c1.23-5.09,5.52-8.86,10.63-8.86C523.98,730.43,528.27,734.19,529.5,739.28z"/>
	<path class="st9" d="M529.59,744.78c-1.08,5.32-5.46,9.29-10.71,9.29c-5.26,0-9.64-3.98-10.72-9.29H529.59z"/>
	<ellipse class="st9" cx="515.38" cy="767" rx="8.32" ry="8.97"/>
	<path class="st9" d="M513,804.55c0,2.06-1.55,3.73-3.47,3.73c-1.24,0-2.32-0.68-2.93-1.73h-11.05c-0.61,1.04-1.7,1.73-2.93,1.73
		c-1.92,0-3.47-1.67-3.47-3.73c0-2.07,1.55-3.74,3.47-3.74c1.23,0,2.32,0.68,2.93,1.73h3.3v-3.95h-1.4c-1.25,0-2.26-1.01-2.26-2.25
		v-3.35h11.77v3.35c0,1.25-1.01,2.25-2.25,2.25h-1.4v3.95h3.3c0.61-1.04,1.69-1.73,2.93-1.73C511.45,800.81,513,802.48,513,804.55z"
		/>
	<path class="st12" d="M482.74,683.8c-5.34-9.08-4-14.07,5.5-20.94c5.84-4.23,11.74-8.42,17.35-12.82c2.81-2.21,5.03-4.84,7.7-7.45
		c1.69,4.25,1.19,8.25-1.01,12.08c-1.23,2.14-2.81,4.19-4.49,6.15c-5.93,6.9-5.52,11.05,2.01,17.04c4.09,3.24,8.4,6.34,12.38,9.63
		h-37.21C484.13,686.32,483.47,685.05,482.74,683.8z"/>
	<path class="st12" d="M528.67,710.76c-2.42,3.21-5.19,5.32-9.33,6.12h-45.6c3.35-3.48,5.94-6.67,9.19-9.38
		c6.28-5.23,8.07-10.64,4.54-16.56h38.57c2.18,2.15,4.04,4.55,5.49,7.01C534.21,702.52,531.76,706.68,528.67,710.76z"/>
	<path class="st9" d="M442.56,573.29c5.68,21.92,10.3,40.42,14,55.76l-0.51-0.1c-2.51-0.5-5-1.06-7.45-1.65
		c-4.72-1.15-9.34-2.45-13.8-3.9c0,0,0,0-0.01,0c-0.14-3.69-1.16-7.15-2.83-10.03c-1.8-3.09-4.36-5.51-7.43-6.84
		c-66.03-28.38-118.4-92.43-141.82-173.36c-0.37-1.26-0.72-2.53-1.07-3.8c-0.18-0.63-0.35-1.26-0.52-1.88
		c-1.3-4.81-2.5-9.67-3.59-14.58c-0.15-0.66-0.3-1.33-0.43-2c-0.07-0.26-0.12-0.53-0.18-0.79v-0.01c-0.42-2-0.83-4-1.22-6
		c-0.17-0.87-0.34-1.75-0.5-2.62c0-0.04-0.01-0.07-0.01-0.1c-0.04-0.2-0.08-0.4-0.11-0.6c15.27,3.96,30.99,7.53,47.13,10.66
		c25.22,4.93,51.43,8.85,78.45,11.66c0.01,0,0.01,0,0.02,0c1.52,0.16,3.05,0.31,4.57,0.46c0.03,0,0.06,0.01,0.09,0.01
		c0.31,0.04,0.61,0.06,0.92,0.09c4.1,0.4,8.21,0.77,12.34,1.11C421.58,458.75,428.4,518.72,442.56,573.29z"/>
	<path class="st9" d="M578.15,425.23c-3,33.92-9.79,93.01-23.74,146.8c-5.97,23.03-10.77,42.31-14.57,58.12
		c-11.64,2.01-23.85,3.14-36.47,3.26c-0.76,0.02-1.52,0.02-2.28,0.02h-1.65c-0.4,0-0.82-0.02-1.22-0.02
		c-1.42-0.02-2.82-0.06-4.22-0.09c-7.06-0.22-13.98-0.73-20.73-1.56c-3.82-0.47-7.6-1.03-11.32-1.68
		c-3.8-15.8-8.59-35.05-14.55-58.05c-13.96-53.8-20.75-112.92-23.74-146.83c17.46,1.39,35.23,2.31,53.25,2.75
		c4.78,0.11,9.58,0.19,14.39,0.24c1.39,0.02,2.79,0.03,4.19,0.03c1.86,0.01,3.73,0.02,5.6,0.02c1.73,0,3.45,0,5.17-0.02
		c0.86,0,1.73,0,2.59-0.01C532.39,428.03,555.52,427.02,578.15,425.23z"/>
	<path class="st9" d="M727.1,400.78c-1.94,10.6-4.38,20.98-7.26,31.1c-23.23,81.53-75.82,146.13-142.19,174.66
		c-5.93,2.54-9.99,9.22-10.26,16.87c-0.01,0-0.01,0-0.02,0c-6.78,2.19-13.88,4.06-21.24,5.55l-0.9,0.17
		c3.71-15.36,8.33-33.88,14.02-55.84c14.15-54.55,20.98-114.5,23.96-148.47c4.56-0.39,9.1-0.8,13.61-1.25
		c0.03,0,0.06-0.01,0.09-0.01c1.53-0.14,3.05-0.29,4.57-0.45h0.03C645.83,418.5,687.98,410.92,727.1,400.78z"/>
	<path class="st9" d="M456.56,629.05c0.62,2.58,1.22,5.07,1.79,7.47l-0.14-0.02c-7.23-1.24-14.21-2.79-20.83-4.62
		c-0.31-0.47-0.58-0.95-0.82-1.44c-0.01-0.02-0.01-0.03-0.02-0.05c-0.97-1.88-1.56-3.97-1.71-6.19c-0.02-0.27-0.03-0.54-0.03-0.8
		c4.46,1.45,9.08,2.75,13.8,3.9c2.45,0.59,4.94,1.15,7.45,1.65L456.56,629.05z"/>
	<path class="st9" d="M539.84,630.15c-0.59,2.46-1.16,4.84-1.7,7.13c-5.84,0.88-11.86,1.55-18.01,2.01
		c-6.37,0.49-12.91,0.74-19.54,0.74c-6.65,0-13.18-0.25-19.57-0.74c-5.91-0.45-11.69-1.08-17.32-1.92h-0.01
		c-0.55-2.34-1.13-4.77-1.74-7.29c3.72,0.65,7.5,1.21,11.32,1.68c6.75,0.83,13.67,1.34,20.73,1.56c1.4,0.03,2.8,0.07,4.22,0.09
		c0.4,0,0.82,0.02,1.22,0.02h1.65c0.76,0,1.52,0,2.28-0.02C515.99,633.29,528.2,632.16,539.84,630.15z"/>
	<path class="st9" d="M567.37,623.41c0,0.28-0.01,0.55-0.03,0.82c-0.16,2.22-0.75,4.31-1.72,6.19c-0.18,0.39-0.38,0.75-0.61,1.11
		c-6.69,1.9-13.7,3.5-21.01,4.78l-0.51,0.09c0.55-2.34,1.13-4.76,1.74-7.27l0.9-0.17C553.49,627.47,560.59,625.6,567.37,623.41z"/>
	<path class="st11" d="M582.85,714.6c-0.19-1.37-1.21-2.56-2.7-2.86c-1.76-0.38-3.49,0.77-4.03,2.46l-0.38,1.24
		c-0.05-0.08-0.09-0.16-0.12-0.24l-1.8-4.14l-0.67-1.55l-8.03-18.58l-0.68-1.55c-0.26-0.63-0.3-1.27-0.14-1.87
		c0.21-0.78,0.74-1.48,1.52-1.95h0.01c0.25-0.15,0.51-0.27,0.81-0.37c0.2-0.06,0.4-0.11,0.6-0.14c0.24-0.04,0.48-0.06,0.72-0.06
		c1.22,0,2.38,0.51,3.08,1.38c0.19,0.22,0.33,0.47,0.44,0.72l0.15,0.35l8.57,19.79l0.56,1.3h0.01l1.9,4.38
		C582.91,713.48,582.96,714.06,582.85,714.6z"/>
	<path class="st11" d="M437.72,689.38l-0.67,1.55l-8.04,18.56l-0.68,1.58l-1.79,4.13c-0.04,0.07-0.07,0.15-0.11,0.22l-0.39-1.22
		c-0.54-1.69-2.27-2.84-4.02-2.46c-1.5,0.3-2.51,1.5-2.71,2.87c-0.11-0.55-0.05-1.13,0.19-1.7l1.9-4.39l0.56-1.29l8.42-19.45
		c0,0,0,0,0-0.01l0.3-0.68c0.11-0.25,0.26-0.5,0.44-0.72c0.7-0.87,1.87-1.38,3.08-1.38c0.11,0,0.23,0,0.34,0.01
		c0.33,0.03,0.65,0.09,0.98,0.19c0.3,0.1,0.58,0.22,0.83,0.38c0.78,0.46,1.31,1.16,1.52,1.94
		C438.03,688.11,437.99,688.75,437.72,689.38z"/>
	<path class="st11" d="M565.12,690.93H437.05l0.67-1.55c0.27-0.63,0.31-1.27,0.15-1.87H564.3c-0.16,0.6-0.12,1.24,0.14,1.87
		L565.12,690.93z"/>
	<path class="st9" d="M547.83,901.2l-0.58,3.96c-0.22,1.49-1.59,2.68-3.05,2.68h-86.23c-1.47,0-2.84-1.2-3.05-2.68l-0.58-3.96
		c-0.1-0.69,0.05-1.33,0.39-1.82c3.6,2.41,7.76,3.82,12.06,3.82h68.58c4.3,0,8.47-1.41,12.06-3.82
		C547.78,899.86,547.93,900.5,547.83,901.2z"/>
	<path class="st9" d="M558.68,881.86c-1.26,7.43-5.63,13.75-11.24,17.51c-3.6,2.41-7.76,3.82-12.06,3.82h-68.58
		c-4.3,0-8.46-1.41-12.06-3.82c-5.61-3.76-9.99-10.08-11.24-17.51l-0.37-3.43c0.08,0.09,0.16,0.19,0.24,0.28
		c0.16,0.18,0.32,0.36,0.48,0.54c0.12,0.14,0.25,0.28,0.38,0.41c0.23,0.24,0.46,0.47,0.69,0.69c0.12,0.12,0.24,0.24,0.37,0.35
		c0.3,0.28,0.6,0.56,0.91,0.83c0.17,0.15,0.33,0.29,0.51,0.43c0.11,0.1,0.23,0.19,0.34,0.28c0.15,0.12,0.29,0.23,0.44,0.35
		c0.57,0.44,1.15,0.85,1.75,1.24c0.17,0.12,0.34,0.23,0.51,0.33c0.16,0.1,0.32,0.2,0.49,0.3c0.15,0.1,0.31,0.19,0.46,0.27
		c0.92,0.52,1.86,0.99,2.82,1.4c0.2,0.08,0.4,0.17,0.61,0.25c0.21,0.08,0.42,0.16,0.63,0.24c1.92,0.7,3.93,1.15,5.97,1.34
		c0.42,0.04,0.84,0.06,1.26,0.08c0.26,0.01,0.53,0.01,0.8,0.01h76.63c0.24,0,0.49,0,0.73-0.01c0.45-0.01,0.91-0.04,1.35-0.09
		c0.23-0.02,0.46-0.04,0.69-0.07c0.23-0.02,0.46-0.06,0.69-0.09c1.16-0.18,2.31-0.44,3.44-0.79c0.2-0.06,0.4-0.12,0.59-0.19
		c0.9-0.3,1.78-0.65,2.65-1.06c0.19-0.09,0.38-0.18,0.57-0.27c0.21-0.1,0.42-0.21,0.62-0.32c0.26-0.13,0.51-0.27,0.77-0.42
		c0.15-0.09,0.31-0.18,0.46-0.27c0.16-0.1,0.32-0.2,0.49-0.3c0.17-0.11,0.34-0.22,0.51-0.33c0.49-0.32,0.98-0.67,1.46-1.02
		c0.15-0.12,0.31-0.24,0.46-0.36c0.21-0.17,0.42-0.34,0.63-0.51c0.14-0.11,0.27-0.22,0.4-0.34c0.06-0.05,0.12-0.1,0.17-0.15
		c0.15-0.13,0.3-0.27,0.45-0.4c0.17-0.15,0.33-0.3,0.49-0.46c0.32-0.3,0.63-0.62,0.94-0.94c0.13-0.13,0.25-0.27,0.38-0.41
		c0.14-0.16,0.29-0.32,0.43-0.48c0.02-0.02,0.04-0.04,0.06-0.06l0-0.01c0.08-0.09,0.16-0.18,0.24-0.28L558.68,881.86z"/>
	<path class="st9" d="M558.81,878.71c-0.02,0.02-0.04,0.04-0.06,0.06C558.77,878.75,558.79,878.73,558.81,878.71L558.81,878.71z"/>
	<path class="st9" d="M565.37,817.59c0,0.16-0.01,0.31-0.02,0.46c-0.01,0.03-0.01,0.06-0.01,0.09c-0.01,0.15-0.02,0.31-0.04,0.46
		l-0.01,0.09c-0.01,0.15-0.03,0.31-0.05,0.47c-0.02,0.19-0.05,0.39-0.08,0.59l0.11,1.31l-3.05,28.12
		c-4.67,1.35-10.54,2.15-16.81,2.15h-88.66c-6.27,0-12.13-0.8-16.8-2.15l-3.05-28.12l0.1-1.31c-0.26-1.63-0.28-3.18-0.1-4.63v-0.01
		c0-0.01,0-0.01,0-0.02c0.02-0.15,0.04-0.29,0.06-0.43c0.03-0.16,0.05-0.3,0.08-0.45c0.04-0.25,0.1-0.49,0.16-0.73
		c0.01-0.05,0.02-0.09,0.03-0.14c0.04-0.15,0.07-0.29,0.12-0.42c0.03-0.15,0.08-0.29,0.12-0.42c0.09-0.27,0.19-0.54,0.3-0.8
		c0.05-0.13,0.1-0.26,0.16-0.39c0.11-0.25,0.23-0.5,0.37-0.74c0.05-0.12,0.12-0.23,0.19-0.34c0.01-0.01,0.01-0.02,0.01-0.02
		c0.06-0.11,0.13-0.22,0.2-0.33c0.14-0.23,0.29-0.45,0.46-0.65c0.07-0.12,0.15-0.21,0.24-0.31c0.16-0.2,0.33-0.4,0.51-0.58
		c0.08-0.09,0.17-0.17,0.26-0.25c0.22-0.22,0.46-0.42,0.69-0.6c0.11-0.08,0.21-0.16,0.32-0.23c0.14-0.1,0.29-0.2,0.44-0.28
		c0.3-0.18,0.6-0.34,0.91-0.47c0.32-0.14,0.64-0.25,0.98-0.35c0.31-0.09,0.63-0.15,0.96-0.2c0.01-0.01,0.03-0.01,0.06-0.01
		c0.17-0.03,0.35-0.05,0.53-0.06c0.99-0.07,2.04,0.06,3.12,0.38l1.44,0.5l27.92,9.62c15.57,4.7,31.52,4.7,47.09,0l27.89-9.62
		l1.46-0.5c1.09-0.32,2.13-0.45,3.12-0.38c0.19,0.01,0.36,0.03,0.54,0.06c0.02,0,0.04,0,0.06,0.01c0.33,0.05,0.64,0.11,0.96,0.2
		c0.66,0.19,1.3,0.46,1.89,0.82c0.29,0.17,0.58,0.37,0.85,0.58c0.79,0.63,1.49,1.4,2.07,2.32c0.07,0.11,0.13,0.22,0.2,0.33
		c0.01,0,0.01,0.01,0.01,0.02c0.07,0.11,0.13,0.23,0.19,0.35c0.48,0.87,0.84,1.84,1.09,2.88c0.07,0.25,0.12,0.51,0.17,0.77
		c0.03,0.14,0.05,0.29,0.07,0.44c0.03,0.14,0.05,0.29,0.07,0.45c0,0,0,0-0.01,0.01c0,0.01,0.01,0.02,0.01,0.02
		c0.03,0.23,0.05,0.46,0.07,0.7c0,0.13,0.01,0.24,0.02,0.36C565.38,816.66,565.39,817.13,565.37,817.59z"/>
	<path class="st9" d="M562.22,849.18l-0.52,4.84l-2.65,24.41c-0.08,0.09-0.16,0.18-0.24,0.27v0.01c-0.02,0.02-0.04,0.04-0.06,0.06
		c-0.13,0.16-0.28,0.32-0.42,0.48c-0.13,0.14-0.26,0.28-0.39,0.41c-0.3,0.32-0.62,0.63-0.93,0.94c-0.16,0.16-0.33,0.31-0.5,0.46
		c-0.14,0.14-0.29,0.27-0.44,0.4c-0.06,0.05-0.12,0.1-0.17,0.15c-0.13,0.12-0.27,0.23-0.4,0.34c-0.21,0.17-0.42,0.34-0.64,0.51
		c-0.15,0.12-0.31,0.24-0.46,0.36c-0.48,0.36-0.97,0.7-1.46,1.02c-0.17,0.12-0.34,0.22-0.51,0.33c-0.16,0.1-0.32,0.21-0.49,0.3
		c-0.15,0.1-0.31,0.19-0.46,0.27c-0.25,0.15-0.51,0.29-0.76,0.42c-0.21,0.11-0.42,0.22-0.63,0.32c-0.18,0.09-0.37,0.18-0.56,0.27
		c-0.86,0.41-1.75,0.76-2.65,1.06c-0.19,0.07-0.39,0.13-0.59,0.19c-1.13,0.35-2.27,0.61-3.44,0.79c-0.23,0.04-0.45,0.07-0.68,0.1
		c-0.23,0.02-0.46,0.05-0.69,0.07c-0.45,0.04-0.9,0.07-1.36,0.09c-0.24,0-0.48,0.01-0.72,0.01h-76.63c-0.26,0-0.53-0.01-0.8-0.02
		c-0.41-0.01-0.84-0.04-1.25-0.08c-2.05-0.18-4.05-0.64-5.97-1.34c-0.21-0.07-0.43-0.15-0.63-0.24c-0.21-0.07-0.41-0.16-0.62-0.24
		c-0.95-0.41-1.9-0.87-2.81-1.4c-0.16-0.08-0.31-0.17-0.46-0.27c-0.17-0.09-0.33-0.2-0.49-0.3c-0.17-0.1-0.34-0.21-0.51-0.33
		c-0.6-0.39-1.18-0.8-1.75-1.24c-0.15-0.11-0.29-0.23-0.44-0.34c-0.11-0.1-0.23-0.19-0.34-0.29c-0.17-0.14-0.34-0.28-0.51-0.43
		c-0.31-0.27-0.61-0.54-0.91-0.83c-0.13-0.11-0.25-0.23-0.37-0.35c-0.23-0.23-0.46-0.46-0.69-0.69c-0.12-0.14-0.25-0.28-0.38-0.42
		c-0.16-0.17-0.32-0.35-0.48-0.54c-0.08-0.08-0.16-0.18-0.24-0.27l-2.65-24.42l-0.52-4.84c4.67,1.35,10.53,2.15,16.8,2.15h88.66
		C551.68,851.33,557.55,850.53,562.22,849.18z"/>
	<path class="st9" d="M562.22,849.18l-0.52,4.84c-4.64,2.25-11.86,3.71-19.78,3.71h-81.68c-7.91,0-15.13-1.46-19.77-3.71l-0.52-4.84
		c4.67,1.35,10.53,2.15,16.8,2.15h88.66C551.68,851.33,557.55,850.53,562.22,849.18z"/>
	<path class="st9" d="M752.37,348.65c0,14.81-1.28,29.32-3.76,43.42c-0.32,1.8-1.61,3.24-3.33,3.76c-0.03,0.01-0.05,0.02-0.08,0.03
		c-0.32,0.09-0.63,0.18-0.95,0.27c-0.45,0.13-0.91,0.26-1.37,0.39c-0.75,0.21-1.51,0.42-2.26,0.63c-0.46,0.13-0.93,0.26-1.39,0.38
		c-0.48,0.13-0.96,0.27-1.44,0.39c-3.17,0.88-6.37,1.73-9.57,2.57c-0.37,0.1-0.74,0.19-1.12,0.29
		c-39.12,10.14-81.27,17.72-125.59,22.33h-0.03c-1.52,0.16-3.04,0.31-4.57,0.45c-0.03,0-0.06,0.01-0.09,0.01
		c-4.51,0.45-9.05,0.86-13.61,1.24v0.01c-1.68,0.14-3.37,0.28-5.06,0.41c-22.63,1.79-45.76,2.8-69.3,2.98
		c-0.86,0.01-1.73,0.01-2.59,0.01c-1.72,0.02-3.44,0.02-5.17,0.02c-1.87,0-3.74-0.01-5.6-0.02c-1.4,0-2.8-0.01-4.19-0.03
		c-4.81-0.05-9.61-0.13-14.39-0.24c-18.02-0.44-35.79-1.36-53.25-2.75c-1.69-0.13-3.38-0.26-5.06-0.42
		c-4.13-0.34-8.24-0.71-12.34-1.11c-0.31-0.03-0.61-0.05-0.92-0.09c-0.03,0-0.06-0.01-0.09-0.01c-1.52-0.15-3.05-0.3-4.57-0.46
		c-0.01,0-0.01,0-0.02,0c-27.02-2.81-53.23-6.73-78.45-11.66c-16.14-3.13-31.86-6.7-47.13-10.66c-0.38-0.1-0.75-0.19-1.12-0.29
		c-3.35-0.87-6.67-1.76-9.96-2.67c-0.35-0.09-0.69-0.19-1.04-0.28c-0.46-0.12-0.93-0.25-1.39-0.38c-0.87-0.25-1.75-0.49-2.62-0.74
		v-0.01c-0.34-0.09-0.69-0.19-1.03-0.29c-0.32-0.08-0.63-0.18-0.95-0.27c-0.03,0-0.05-0.01-0.08-0.03
		c-1.73-0.51-3.02-1.96-3.32-3.75c-2.25-12.8-3.52-25.93-3.73-39.32c-0.03-1.37-0.04-2.73-0.04-4.11c0-29.09,4.98-57.03,14.14-83.01
		c0.75-2.08,1.51-4.18,2.3-6.25c5.11-13.33,11.33-26.12,18.55-38.25c2.56-4.31,5.25-8.54,8.06-12.68c1.54-2.26,3.11-4.48,4.71-6.69
		c3.69-5.08,7.58-10.01,11.64-14.78c34.07-40.11,80.56-69.39,133.56-81.94c16.43-3.89,33.49-6.18,50.99-6.68
		c2.44-0.07,4.88-0.09,7.34-0.09c20.08,0,39.61,2.34,58.32,6.77c8.5,2.01,16.83,4.45,24.97,7.3c28.09,9.84,53.91,24.5,76.44,43.01
		c14.58,11.97,27.78,25.55,39.31,40.44c1.53,1.98,3.03,3.98,4.5,5.98c1.56,2.16,3.09,4.33,4.59,6.54c5.24,7.69,10.06,15.71,14.43,24
		c0.81,1.53,1.6,3.06,2.37,4.61c1.03,2.04,2.03,4.11,3,6.19c2.27,4.87,4.39,9.82,6.35,14.85
		C746.36,286.09,752.37,316.67,752.37,348.65z"/>
	<path class="st9" d="M437.61,182.56c8.21,9.72,3.67,27.08-13.05,38.95c-15.69,11.14-38.36,11.06-49.46,0.3
		c-8.89-8.54-6.3-21.76,5.49-29.59c2.96-1.97,5.42-2.34,7.15-1.13c1.74,1.22,1.13,3.01-1.68,5.04c-9,6.46-10.1,15.82-2.27,21.67
		c9,6.77,24.81,5.87,35.69-2.12c15.08-11.18,16.74-26.49,5.87-33.8c-14.51-9.67-41.9-9.12-62.15,4.51
		c-24,17.14-24.04,45.77,0.1,61.78c12.28,8.05,27.61,11.3,44.81,11.25c12.08-0.02,24.52-0.12,37.16-0.15c0.89,0,1.78-0.04,2.67,0
		c3.16,0.17,5.06,1.76,4.99,4.17c-0.06,2.41-2.04,4.03-5.28,4.05c-8.22,0.08-16.37,0.07-24.39,0.09c-0.1,0.23-23.98,0.06-34.83-1.67
		c-23.86-3.74-40.77-14.28-48.34-31.95c-9.28-21.59,3.22-46.91,29.52-57.39C396.5,166.63,426.05,169.3,437.61,182.56z"/>
	<path class="st9" d="M524.22,197.41c14.64,8.95,16.11,25.92,1.25,37.01c-10.35,7.73-28.68,7.46-38.73-0.58
		c-2.28-1.81-2.5-4.18-0.61-5.81c1.93-1.64,4.86-1.82,7.13-0.21c6.02,4.3,13,5.66,20.51,3.05c7.89-2.72,11.77-7.93,12.24-14.15
		c0.76-10.91-10.8-19.21-25.26-20.08c-16.64-0.94-31.42,6.35-36.34,20.13c-4.41,12.51,1.53,25.82,16.19,34.21
		c10.52,6.05,22.61,8.27,35.36,8.31c21.06,0.06,41.95,0.12,62.09,0.26c40.55,0.25,77.98,0.71,107.25,1.39
		c3.55,0.08,5.2,1.38,5.21,3.94c-0.01,2.49-1.56,3.63-5.01,3.59c-22.67-0.22-50.33-0.42-80.58-0.54c0-0.01,0-0.03,0-0.04
		c-27.94-0.12-58.11-0.15-88.59-0.21c-17.16-0.01-33.06-3.57-46.16-12.8c-23.32-16.44-21.84-43.81-0.36-57.1
		C485.7,187.89,508.28,187.77,524.22,197.41z"/>
	<path class="st9" d="M546.54,281.87c12.55-0.02,24.92-0.06,37-0.09c1.06,0,2.13-0.01,3.13,0.23c2.4,0.58,3.63,2.07,3.39,4.17
		c-0.22,2.09-1.7,3.43-4.2,3.76c-0.95,0.13-1.92,0.07-2.87,0.08c-21.73,0.15-44.43,0.19-67.31,0.27
		c-14.07,0.05-27.23,2.85-38.16,10.24c-18.75,12.68-19.03,33.84-2.84,45.61c12.5,9.06,31.83,9.27,44.31,0.56
		c9.37-6.6,9.74-18.34-0.11-25.47c-7.29-5.3-19.1-4.95-25.84,0.77c-4.9,4.13-4.76,10.39,0.11,14.18c3.32,2.6,8.42,3.12,12.43,1.32
		c4.16-1.86,5.07-5.23,2.16-8.24c-0.51-0.52-1.12-1.07-1.35-1.69c-0.67-1.85-0.05-3.49,2.23-4.5c2.4-1.08,4.56-0.56,6.37,0.91
		c6.46,5.18,5.41,13.75-1.78,18.17c-11.13,6.81-27.56,3.2-32.47-7.76c-4.81-10.82,5.45-23.14,21.64-24.66
		c17.99-1.74,33.46,9.4,33.53,22.95c0.04,14.07-13.46,24.14-31.21,26.16c-20.71,2.28-40.37-5.18-48.61-21.97
		c-9.29-19.09,3.48-41.6,31-50.63c9.3-3.09,19.07-4.28,29.03-4.33C526.32,281.87,536.48,281.89,546.54,281.87z"/>
	<path class="st9" d="M435.19,281.86c0.49,0,0.97,0.02,1.46,0.08c2.86,0.4,4.62,2.18,4.45,4.47c-0.15,2.18-2,3.7-4.83,3.72
		c-6.35,0.03-12.67-0.05-21.08-0.11c-11.17-0.34-24.12,0.14-35.75,3.92c-20.4,6.57-32.66,18.15-34.14,35.82
		c-1.64,18.36,14.68,36.43,36.05,41.98c17.11,4.52,34.2,2.91,44.32-4.26c10.03-7.08,8.88-21.15-4.57-32.34
		c-0.61-0.5-1.28-0.96-1.87-1.46c-1.92-1.65-2.08-3.73-0.4-5.14c1.6-1.32,4.52-1.32,6.61,0.18c1.66,1.2,3.23,2.52,4.65,3.88
		c16.39,15.97,14.4,33.55-0.77,40.83c-18.47,8.79-50.21,8.22-73.29-8.1c-26.56-20.21-25.01-53.29,3.14-71.31
		c13.08-8.28,29.13-11.93,47.13-12.17C415.74,281.74,425.39,281.86,435.19,281.86z"/>
	<path class="st9" d="M304.77,234.15c7.3,5.63,7.1,17.99-0.04,25.16c-6.86,6.79-16.31,3.82-17.94-4.85
		c-0.78-3.94-0.06-7.6,2.34-10.87c1.26-1.71,3.02-2.02,4.27-0.86c1.28,1.22,1.31,3.17,0.12,5.09c-1.43,2.29-1.63,4-0.73,5.66
		c0.99,1.85,3.31,2.77,5.36,2.08c4.95-1.66,7.07-9.88,3.45-14.21c-3.77-4.49-10.46-4.03-14.33,0.77
		c-5.62,7.12-4.99,17.86,0.97,23.66c3.32,3.15,7.4,4.19,12.06,4.14c15.88-0.15,35.1-0.28,56.55-0.37c4.15-0.02,6.23,1.27,6.22,3.93
		c0,2.67-2.12,4.02-6.23,4.01c-11.02-0.01-21.46-0.06-31.15-0.09c0,0,0-0.01,0-0.03c-9.18-0.03-17.68-0.06-25.4-0.11
		c-6.34-0.04-11.67-1.77-15.87-6.27c-7.17-7.99-8.33-21.62-2.11-31.94C287.36,230.93,297.6,228.56,304.77,234.15z"/>
	<path class="st9" d="M628.63,223.09c1.66,6.2-1.76,12.87-8.1,15.6c-6,2.6-13.94,1.49-19.62-2.79c-6.49-4.87-7.69-12.78-2.8-17.2
		c1.8-1.64,4.23-1.81,6.44-0.45c2.06,1.26,2.69,3.43,1.47,5.15c-2.17,3.03-1.95,5.13,0.84,7.11c3.13,2.23,7.67,2.37,10.38,0.33
		c4.35-3.26,3.74-9.38-1.24-13.18c-6.23-4.73-15.54-5.15-20.93-0.88c-7.21,5.68-6.6,16.51,1.77,23.55
		c6.05,5.08,13.33,7.11,21.05,7.27c16.85,0.35,32.74,0.71,47.29,1.18c0.7,0.02,1.4,0.02,2.08,0.2c1.89,0.53,3.19,2.35,3.07,4.18
		c-0.12,2.07-1.72,3.38-4.19,3.32c-7.71-0.16-15.8-0.32-24.24-0.47c0.12-0.18-19.5-0.23-30.02-1.08
		c-14.58-1.16-26.89-10.88-30.43-22.4c-3.85-12.68,4.48-23.96,17.9-25.59C612.11,205.34,625.83,212.54,628.63,223.09z"/>
	<path class="st9" d="M608,281.66c18.73-0.09,36.43-0.19,52.51-0.3c2.98-0.02,4.76,1.53,4.7,3.88c-0.07,2.33-1.94,3.85-4.94,3.9
		c-8.04,0.15-16.49,0.27-25.25,0.38c-8.77,0.11-17.88,0.21-27.24,0.29c-3.57,0.02-5.66-1.43-5.69-3.89
		C602.06,283.38,604.36,281.68,608,281.66z"/>
	<path class="st9" d="M693.12,281.04c2.27,0,3.71,1.65,3.6,3.8c-0.11,2.09-1.57,3.53-3.79,3.62c-2.37,0.09-4.8,0.12-7.28,0.17
		c0,0.01,0,0.01,0,0.03c-2.42,0.05-4.89,0.14-7.43,0.15c-2.46,0-3.92-1.44-3.86-3.74c0.07-2.25,1.64-3.8,4.09-3.85
		C683.57,281.12,688.46,281.05,693.12,281.04z"/>
	<path class="st9" d="M719.62,280.73c1.4,0.09,2.2,1.76,2.1,3.67c-0.1,1.8-1,3.07-2.41,3.22c-0.99,0.1-2.01,0.09-3.04,0.13
		c-1.03,0.04-2.1,0.13-3.18,0.1c-1.55-0.02-2.6-1.27-2.7-3.13c-0.1-1.96,0.91-3.74,2.45-3.88
		C715.2,280.64,717.48,280.61,719.62,280.73z"/>
	<path class="st9" d="M567.36,737.99l5.24-24.27c0.22-1,0.64-1.9,1.22-2.66l1.8,4.14c0.03,0.08,0.07,0.16,0.12,0.24l-1.62,5.1
		l-4.48,14.24C569.23,736.09,568.41,737.21,567.36,737.99z"/>
	<path class="st9" d="M586.06,715.16c0,0.47-0.05,0.96-0.15,1.44l-19.99,92.61c-0.14-0.79-0.34-1.54-0.6-2.25c0,0,0,0,0-0.01
		c-1.35-3.69-4.18-6.13-7.68-6.31c-0.95-0.04-1.95,0.08-2.99,0.4l-0.97,0.34l12.22-56.6h5.67c0.47-0.07,0.93-0.23,1.32-0.47
		c0.71-0.4,1.28-1.08,1.53-1.91l2.46-7.8l5.84-18.5c0.11-0.35,0.16-0.69,0.16-1.02c0-0.16-0.01-0.31-0.03-0.47v-0.01
		c0.11-0.54,0.06-1.12-0.18-1.69l-1.9-4.38C583.92,709.25,586.06,712.04,586.06,715.16z"/>
	<path class="st9" d="M582.88,715.08c0,0.33-0.05,0.67-0.16,1.02l-5.84,18.5l-2.46,7.8c-0.25,0.83-0.82,1.51-1.53,1.91
		c-0.39,0.24-0.85,0.4-1.32,0.47H430.6c-0.47-0.07-0.94-0.23-1.33-0.47c-0.71-0.4-1.28-1.08-1.52-1.91l-2.46-7.78l-5.85-18.52
		c-0.11-0.35-0.16-0.69-0.16-1.02c0-0.15,0.01-0.3,0.03-0.45c0-0.01,0-0.01,0-0.02c0.2-1.37,1.21-2.57,2.71-2.87
		c1.75-0.38,3.48,0.77,4.02,2.46l0.39,1.22l1.61,5.14l4.49,14.22c0.41,1.3,1.2,2.4,2.24,3.18c1.09,0.84,2.46,1.32,3.91,1.32h124.8
		c1.44,0,2.79-0.47,3.88-1.29c1.05-0.78,1.87-1.9,2.28-3.21l4.48-14.24l1.62-5.1l0.38-1.24c0.54-1.69,2.27-2.84,4.03-2.46
		c1.49,0.3,2.51,1.49,2.7,2.86v0.01C582.87,714.77,582.88,714.92,582.88,715.08z"/>
	<path class="st9" d="M434.77,737.96c-1.04-0.78-1.83-1.88-2.24-3.18l-4.49-14.22l-1.61-5.14c0.04-0.07,0.07-0.15,0.11-0.22
		l1.79-4.13c0.57,0.76,0.99,1.66,1.21,2.65L434.77,737.96z"/>
	<path class="st9" d="M565.94,814.86l-0.67,6.2l-0.11-1.31c0.03-0.2,0.06-0.4,0.08-0.59c0.02-0.16,0.04-0.32,0.05-0.47l0.01-0.09
		c0.02-0.15,0.03-0.31,0.04-0.46c0-0.03,0-0.06,0.01-0.09c0.01-0.15,0.02-0.3,0.02-0.46c0.02-0.46,0.01-0.93-0.01-1.38
		c-0.01-0.12-0.02-0.23-0.02-0.36c-0.02-0.24-0.04-0.47-0.07-0.7c0,0-0.01-0.01-0.01-0.02c0.01-0.01,0.01-0.01,0.01-0.01
		c-0.02-0.16-0.04-0.31-0.07-0.45c-0.02-0.15-0.04-0.3-0.07-0.44c-0.05-0.26-0.1-0.52-0.17-0.77c-0.25-1.04-0.61-2.01-1.09-2.88
		c-0.06-0.12-0.12-0.24-0.19-0.35c0-0.01,0-0.02-0.01-0.02c-0.07-0.11-0.13-0.22-0.2-0.33c-0.58-0.92-1.28-1.69-2.07-2.32
		c-0.27-0.21-0.56-0.41-0.85-0.58c-0.59-0.36-1.23-0.63-1.89-0.82c-0.32-0.09-0.63-0.15-0.96-0.2c-0.02-0.01-0.04-0.01-0.06-0.01
		c-0.18-0.03-0.35-0.05-0.54-0.06c-0.99-0.07-2.03,0.06-3.12,0.38l-1.46,0.5l-27.89,9.62c-15.57,4.7-31.52,4.7-47.09,0l-27.92-9.62
		l-1.44-0.5c-1.08-0.32-2.13-0.45-3.12-0.38c-0.18,0.01-0.36,0.03-0.53,0.06c-0.03,0-0.05,0-0.06,0.01
		c-0.33,0.05-0.65,0.11-0.96,0.2c-0.34,0.1-0.66,0.21-0.98,0.35c-0.31,0.13-0.61,0.29-0.91,0.47c-0.15,0.08-0.3,0.18-0.44,0.28
		c-0.11,0.07-0.21,0.15-0.32,0.23c-0.23,0.18-0.47,0.38-0.69,0.6c-0.09,0.08-0.18,0.16-0.26,0.25c-0.18,0.18-0.35,0.38-0.51,0.58
		c-0.09,0.1-0.17,0.19-0.24,0.31c-0.17,0.2-0.32,0.42-0.46,0.65c-0.07,0.11-0.14,0.22-0.2,0.33c0,0,0,0.01-0.01,0.02
		c-0.07,0.11-0.14,0.22-0.19,0.34c-0.14,0.24-0.26,0.49-0.37,0.74c-0.06,0.13-0.11,0.26-0.16,0.39c-0.11,0.26-0.21,0.53-0.3,0.8
		c-0.04,0.13-0.09,0.27-0.12,0.42c-0.05,0.13-0.08,0.27-0.12,0.42c-0.01,0.05-0.02,0.09-0.03,0.14c-0.06,0.24-0.12,0.48-0.16,0.73
		c-0.03,0.15-0.05,0.29-0.08,0.45c-0.02,0.14-0.04,0.28-0.06,0.43c0,0.01,0,0.01,0,0.02v0.01c-0.18,1.45-0.16,3,0.1,4.63l-0.1,1.31
		l-0.67-6.2c-0.32-1.98-0.3-3.86,0-5.57v-0.01c0.14-0.82,0.35-1.6,0.62-2.33c1.35-3.69,4.18-6.14,7.68-6.31
		c0.95-0.04,1.95,0.09,2.98,0.4l0.95,0.33l28.79,10.05c15.76,4.82,31.9,4.82,47.67,0l28.76-10.04l0.97-0.34
		c1.04-0.32,2.04-0.44,2.99-0.4c3.5,0.18,6.33,2.62,7.68,6.31c0,0.01,0,0.01,0,0.01c0.26,0.71,0.46,1.46,0.6,2.25
		C566.23,810.94,566.26,812.85,565.94,814.86z"/>
	<path class="st9" d="M448.46,801.37l-0.95-0.33c-1.03-0.31-2.03-0.44-2.98-0.4c-3.5,0.17-6.33,2.62-7.68,6.31
		c-0.27,0.73-0.48,1.51-0.62,2.33l-20-92.68c-0.1-0.48-0.15-0.96-0.15-1.44c0-3.12,2.16-5.93,5.32-6.64l-1.9,4.39
		c-0.24,0.57-0.3,1.15-0.19,1.7c0,0.01,0,0.01,0,0.02c-0.02,0.15-0.03,0.3-0.03,0.45c0,0.33,0.05,0.67,0.16,1.02l5.85,18.52
		l2.46,7.78c0.24,0.83,0.81,1.51,1.52,1.91c0.39,0.24,0.86,0.4,1.33,0.47h5.64L448.46,801.37z"/>
	<path class="st9" d="M742.93,397.54c-0.14,0.94-15.67,94.93-84.25,176.73c-57.67,68.76-81.14,103.91-87.05,113.17l-0.15-0.35
		c-0.11-0.25-0.25-0.5-0.44-0.72c-0.7-0.87-1.86-1.38-3.08-1.38c-0.24,0-0.48,0.02-0.72,0.06c5.75-9.06,29.29-44.46,87.6-114
		c63.56-75.79,80.96-162.15,82.95-173.13c0.48-0.12,0.96-0.26,1.44-0.39c0.46-0.12,0.93-0.25,1.39-0.38
		c0.75-0.21,1.51-0.42,2.26-0.63C742.97,396.85,742.99,397.19,742.93,397.54z"/>
	<path class="st9" d="M583.21,424.82c-2.98,33.97-9.81,93.92-23.96,148.47c-5.69,21.96-10.31,40.48-14.02,55.84
		c-0.61,2.51-1.19,4.93-1.74,7.27c-7.13,29.89-10.42,46.17-11.38,51.11h-5.08c0.66-3.47,3.77-19.34,11.11-50.23
		c0.54-2.29,1.11-4.67,1.7-7.13c3.8-15.81,8.6-35.09,14.57-58.12c13.95-53.79,20.74-112.88,23.74-146.8c1.3-0.1,2.6-0.21,3.89-0.31
		C582.43,424.88,582.82,424.85,583.21,424.82z"/>
	<path class="st9" d="M434.54,685c-0.11-0.01-0.23-0.01-0.34-0.01c-1.21,0-2.38,0.51-3.08,1.38c-0.18,0.22-0.33,0.47-0.44,0.72
		l-0.3,0.68c-5.53-8.72-28.86-43.88-87.25-113.5c-68.59-81.8-84.11-175.79-84.26-176.73c-0.06-0.39-0.03-0.76,0.08-1.11
		c0.87,0.25,1.75,0.49,2.62,0.74c0.46,0.13,0.93,0.26,1.39,0.38c0.35,0.09,0.69,0.19,1.04,0.28c1.92,10.57,19.22,97.21,82.96,173.22
		C405.16,640.46,428.73,675.86,434.54,685z"/>
	<path class="st9" d="M474.78,687.51h-5.09c-0.96-4.94-4.24-21.17-11.34-50.99c-0.57-2.4-1.17-4.89-1.79-7.47
		c-3.7-15.34-8.32-33.84-14-55.76c-14.16-54.57-20.98-114.54-23.96-148.51c1.68,0.16,3.37,0.29,5.06,0.42
		c2.99,33.91,9.78,93.03,23.74,146.83c5.96,23,10.75,42.25,14.55,58.05c0.61,2.52,1.19,4.95,1.74,7.29h0.01
		C471.01,668.2,474.12,684.04,474.78,687.51z"/>
</g>
</svg>
