<svg width="660" height="1000" viewBox="0 0 660 1000" fill="none" xmlns="http://www.w3.org/2000/svg">
<path opacity="0.25" d="M163.059 701.135L160.995 703.055L157.845 703.333L154.094 701.465L153.334 699.099L154.343 692.11L158.305 688.264L162.056 686.667L161.755 689.091L161.27 691.619L163.334 694.974L163.059 701.135Z" fill="#26BFDC"/>
<path opacity="0.25" d="M150 697.792L155.503 702.682L163.765 703.333L170 695.666L163.765 682.674L158.109 676.667L150.733 686.834L150 697.792Z" fill="#26BFDC"/>
<path opacity="0.25" d="M148.815 702.788L161.283 710L173.334 701.212L167.09 686.857L165.26 677.88L159.354 670L146.667 684.201L148.815 702.788Z" fill="#26BFDC"/>
<path opacity="0.25" d="M160.318 666.667L148.766 674.285L146.667 687.161L149.965 703.489L159.559 710L173.069 701.682L176.667 690.889L166.314 680.65L160.318 666.667Z" fill="#26BFDC"/>
<path opacity="0.25" d="M140 697.016L155.501 710L173.45 706.018L180 692.335L168.363 672.701L162.244 656.667L145.711 674.861L140 697.016Z" fill="#26BFDC"/>
<path opacity="0.25" d="M142.795 706.065L140 691.077L145.59 672.608L154.492 660.735L165.414 650L170.488 663.283L171.498 672.608L177.205 678.044L180 702.881L161.844 710L142.795 706.065Z" fill="#26BFDC"/>
<path opacity="0.25" d="M182.051 704.102L172.42 712.166L157.719 713.333L140.215 705.486L136.667 695.548L141.378 666.196L159.866 650.04L177.37 643.333L175.968 653.516L173.702 664.133L183.334 678.225L182.051 704.102Z" fill="#26BFDC"/>
<path d="M185.58 785.64L184.44 792.99H137.71L136.57 785.64H185.58Z" stroke="#888888" stroke-miterlimit="10"/>
<path d="M191.92 744.78L186.37 780.55H135.78L130.23 744.78H191.92Z" stroke="#888888" stroke-miterlimit="10"/>
<path d="M194.85 725.85L192.76 739.28H129.38L127.29 725.85H194.85Z" stroke="#888888" stroke-miterlimit="10"/>
<path d="M129.35 739.28H125.62L124.49 725.85H127.27L129.35 739.28Z" stroke="#888888" stroke-miterlimit="10"/>
<path d="M136.54 785.64H129.53L126.09 744.78H130.2L136.54 785.64Z" stroke="#888888" stroke-miterlimit="10"/>
<path d="M186.37 780.55L185.58 785.64H136.57L135.78 780.55H186.37Z" stroke="#888888" stroke-miterlimit="10"/>
<path d="M191.95 744.78H196.07L192.63 785.64H185.61L191.95 744.78Z" stroke="#888888" stroke-miterlimit="10"/>
<path d="M197.66 725.85L196.53 739.28H192.8L194.89 725.85H197.66Z" stroke="#888888" stroke-miterlimit="10"/>
<path d="M201.32 721.36L200.51 725.85H121.65L120.84 721.36L121.44 716.88H200.71L201.32 721.36Z" stroke="#888888" stroke-miterlimit="10"/>
<path d="M157.02 744.78H165.14L163.48 780.55H158.68L157.02 744.78Z" stroke="#888888" stroke-miterlimit="10"/>
<path d="M166.01 725.85L165.39 739.28H156.77L156.14 725.85H166.01Z" stroke="#888888" stroke-miterlimit="10"/>
<path d="M132.62 744.78H153.94C152.76 749.94 148.43 753.77 143.28 753.77C138.13 753.76 133.8 749.93 132.62 744.78Z" stroke="#888888" stroke-miterlimit="10"/>
<path d="M153.97 739.28H132.58C133.71 734.03 138.07 730.12 143.27 730.12C148.48 730.12 152.85 734.03 153.97 739.28Z" stroke="#888888" stroke-miterlimit="10"/>
<path d="M146.78 775.67C151.375 775.67 155.1 771.654 155.1 766.7C155.1 761.746 151.375 757.73 146.78 757.73C142.185 757.73 138.46 761.746 138.46 766.7C138.46 771.654 142.185 775.67 146.78 775.67Z" stroke="#888888" stroke-miterlimit="10"/>
<path d="M189.5 739.28H168.25C169.48 734.19 173.77 730.42 178.88 730.42C183.98 730.43 188.27 734.19 189.5 739.28Z" stroke="#888888" stroke-miterlimit="10"/>
<path d="M189.59 744.78C188.51 750.1 184.13 754.07 178.88 754.07C173.62 754.07 169.24 750.09 168.16 744.78H189.59Z" stroke="#888888" stroke-miterlimit="10"/>
<path d="M175.38 775.97C179.975 775.97 183.7 771.954 183.7 767C183.7 762.046 179.975 758.03 175.38 758.03C170.785 758.03 167.06 762.046 167.06 767C167.06 771.954 170.785 775.97 175.38 775.97Z" stroke="#888888" stroke-miterlimit="10"/>
<path d="M173 804.55C173 806.61 171.45 808.28 169.53 808.28C168.29 808.28 167.21 807.6 166.6 806.55H155.55C154.94 807.59 153.85 808.28 152.62 808.28C150.7 808.28 149.15 806.61 149.15 804.55C149.15 802.48 150.7 800.81 152.62 800.81C153.85 800.81 154.94 801.49 155.55 802.54H158.85V798.59H157.45C156.2 798.59 155.19 797.58 155.19 796.34V792.99H166.96V796.34C166.96 797.59 165.95 798.59 164.71 798.59H163.31V802.54H166.61C167.22 801.5 168.3 800.81 169.54 800.81C171.45 800.81 173 802.48 173 804.55Z" stroke="#888888" stroke-miterlimit="10"/>
<path d="M102.56 573.29C108.24 595.21 112.86 613.71 116.56 629.05L116.05 628.95C113.54 628.45 111.05 627.89 108.6 627.3C103.88 626.15 99.2601 624.85 94.8001 623.4C94.8001 623.4 94.8001 623.4 94.7901 623.4C94.6501 619.71 93.6301 616.25 91.9601 613.37C90.1601 610.28 87.6001 607.86 84.5301 606.53C18.5001 578.15 -33.8699 514.1 -57.2899 433.17C-57.6599 431.91 -58.0099 430.64 -58.3599 429.37C-58.5399 428.74 -58.7099 428.11 -58.8799 427.49C-60.1799 422.68 -61.3799 417.82 -62.4699 412.91C-62.6199 412.25 -62.7699 411.58 -62.8999 410.91C-62.9699 410.65 -63.0199 410.38 -63.0799 410.12V410.11C-63.4999 408.11 -63.9099 406.11 -64.2999 404.11C-64.4699 403.24 -64.6399 402.36 -64.7999 401.49C-64.7999 401.45 -64.8099 401.42 -64.8099 401.39C-64.8499 401.19 -64.8899 400.99 -64.9199 400.79C-49.6499 404.75 -33.9299 408.32 -17.7899 411.45C7.43009 416.38 33.6401 420.3 60.6601 423.11C60.6701 423.11 60.6701 423.11 60.6801 423.11C62.2001 423.27 63.7301 423.42 65.2501 423.57C65.2801 423.57 65.3101 423.58 65.3401 423.58C65.6501 423.62 65.9501 423.64 66.2601 423.67C70.3601 424.07 74.4701 424.44 78.6001 424.78C81.5801 458.75 88.4001 518.72 102.56 573.29Z" stroke="#888888" stroke-miterlimit="10"/>
<path d="M238.15 425.23C235.15 459.15 228.36 518.24 214.41 572.03C208.44 595.06 203.64 614.34 199.84 630.15C188.2 632.16 175.99 633.29 163.37 633.41C162.61 633.43 161.85 633.43 161.09 633.43H159.44C159.04 633.43 158.62 633.41 158.22 633.41C156.8 633.39 155.4 633.35 154 633.32C146.94 633.1 140.02 632.59 133.27 631.76C129.45 631.29 125.67 630.73 121.95 630.08C118.15 614.28 113.36 595.03 107.4 572.03C93.4401 518.23 86.6502 459.11 83.6602 425.2C101.12 426.59 118.89 427.51 136.91 427.95C141.69 428.06 146.49 428.14 151.3 428.19C152.69 428.21 154.09 428.22 155.49 428.22C157.35 428.23 159.22 428.24 161.09 428.24C162.82 428.24 164.54 428.24 166.26 428.22C167.12 428.22 167.99 428.22 168.85 428.21C192.39 428.03 215.52 427.02 238.15 425.23Z" stroke="#888888" stroke-miterlimit="10"/>
<path d="M387.1 400.78C385.16 411.38 382.72 421.76 379.84 431.88C356.61 513.41 304.02 578.01 237.65 606.54C231.72 609.08 227.66 615.76 227.39 623.41C227.38 623.41 227.38 623.41 227.37 623.41C220.59 625.6 213.49 627.47 206.13 628.96L205.23 629.13C208.94 613.77 213.56 595.25 219.25 573.29C233.4 518.74 240.23 458.79 243.21 424.82C247.77 424.43 252.31 424.02 256.82 423.57C256.85 423.57 256.88 423.56 256.91 423.56C258.44 423.42 259.96 423.27 261.48 423.11H261.51C305.83 418.5 347.98 410.92 387.1 400.78Z" stroke="#888888" stroke-miterlimit="10"/>
<path d="M116.56 629.05C117.18 631.63 117.78 634.12 118.35 636.52L118.21 636.5C110.98 635.26 104 633.71 97.3801 631.88C97.0701 631.41 96.8001 630.93 96.5601 630.44C96.5501 630.42 96.5501 630.41 96.5401 630.39C95.5701 628.51 94.98 626.42 94.83 624.2C94.81 623.93 94.8 623.66 94.8 623.4C99.26 624.85 103.88 626.15 108.6 627.3C111.05 627.89 113.54 628.45 116.05 628.95L116.56 629.05Z" stroke="#888888" stroke-miterlimit="10"/>
<path d="M199.84 630.15C199.25 632.61 198.68 634.99 198.14 637.28C192.3 638.16 186.28 638.83 180.13 639.29C173.76 639.78 167.22 640.03 160.59 640.03C153.94 640.03 147.41 639.78 141.02 639.29C135.11 638.84 129.33 638.21 123.7 637.37H123.69C123.14 635.03 122.56 632.6 121.95 630.08C125.67 630.73 129.45 631.29 133.27 631.76C140.02 632.59 146.94 633.1 154 633.32C155.4 633.35 156.8 633.39 158.22 633.41C158.62 633.41 159.04 633.43 159.44 633.43H161.09C161.85 633.43 162.61 633.43 163.37 633.41C175.99 633.29 188.2 632.16 199.84 630.15Z" stroke="#888888" stroke-miterlimit="10"/>
<path d="M227.37 623.41C227.37 623.69 227.36 623.96 227.34 624.23C227.18 626.45 226.59 628.54 225.62 630.42C225.44 630.81 225.24 631.17 225.01 631.53C218.32 633.43 211.31 635.03 204 636.31L203.49 636.4C204.04 634.06 204.62 631.64 205.23 629.13L206.13 628.96C213.49 627.47 220.59 625.6 227.37 623.41Z" stroke="#888888" stroke-miterlimit="10"/>
<path d="M242.85 714.6C242.66 713.23 241.64 712.04 240.15 711.74C238.39 711.36 236.66 712.51 236.12 714.2L235.74 715.44C235.69 715.36 235.65 715.28 235.62 715.2L233.82 711.06L233.15 709.51L225.12 690.93L224.44 689.38C224.18 688.75 224.14 688.11 224.3 687.51C224.51 686.73 225.04 686.03 225.82 685.56H225.83C226.08 685.41 226.34 685.29 226.64 685.19C226.84 685.13 227.04 685.08 227.24 685.05C227.48 685.01 227.72 684.99 227.96 684.99C229.18 684.99 230.34 685.5 231.04 686.37C231.23 686.59 231.37 686.84 231.48 687.09L231.63 687.44L240.2 707.23L240.76 708.53H240.77L242.67 712.91C242.91 713.48 242.96 714.06 242.85 714.6Z" stroke="#888888" stroke-miterlimit="10" stroke-linecap="round" stroke-linejoin="round"/>
<path d="M97.7201 689.38L97.0501 690.93L89.0101 709.49L88.3301 711.07L86.5401 715.2C86.5001 715.27 86.4701 715.35 86.4301 715.42L86.0401 714.2C85.5001 712.51 83.7701 711.36 82.0201 711.74C80.5201 712.04 79.5101 713.24 79.3101 714.61C79.2001 714.06 79.2601 713.48 79.5001 712.91L81.4001 708.52L81.9601 707.23L90.3801 687.78C90.3801 687.78 90.3801 687.78 90.3801 687.77L90.6801 687.09C90.7901 686.84 90.9401 686.59 91.1201 686.37C91.8201 685.5 92.9901 684.99 94.2001 684.99C94.3101 684.99 94.4301 684.99 94.5401 685C94.8701 685.03 95.1901 685.09 95.5201 685.19C95.8201 685.29 96.1001 685.41 96.3501 685.57C97.1301 686.03 97.6601 686.73 97.8701 687.51C98.0301 688.11 97.9901 688.75 97.7201 689.38Z" stroke="#888888" stroke-miterlimit="10" stroke-linecap="round" stroke-linejoin="round"/>
<path d="M225.12 690.93H97.05L97.7201 689.38C97.9901 688.75 98.0301 688.11 97.8701 687.51H224.3C224.14 688.11 224.18 688.75 224.44 689.38L225.12 690.93Z" stroke="#888888" stroke-miterlimit="10" stroke-linecap="round" stroke-linejoin="round"/>
<path d="M207.83 901.2L207.25 905.16C207.03 906.65 205.66 907.84 204.2 907.84H117.97C116.5 907.84 115.13 906.64 114.92 905.16L114.34 901.2C114.24 900.51 114.39 899.87 114.73 899.38C118.33 901.79 122.49 903.2 126.79 903.2H195.37C199.67 903.2 203.84 901.79 207.43 899.38C207.78 899.86 207.93 900.5 207.83 901.2Z" stroke="#888888" stroke-miterlimit="10"/>
<path d="M218.68 881.86C217.42 889.29 213.05 895.61 207.44 899.37C203.84 901.78 199.68 903.19 195.38 903.19H126.8C122.5 903.19 118.34 901.78 114.74 899.37C109.13 895.61 104.75 889.29 103.5 881.86L103.13 878.43C103.21 878.52 103.29 878.62 103.37 878.71C103.53 878.89 103.69 879.07 103.85 879.25C103.97 879.39 104.1 879.53 104.23 879.66C104.46 879.9 104.69 880.13 104.92 880.35C105.04 880.47 105.16 880.59 105.29 880.7C105.59 880.98 105.89 881.26 106.2 881.53C106.37 881.68 106.53 881.82 106.71 881.96C106.82 882.06 106.94 882.15 107.05 882.24C107.2 882.36 107.34 882.47 107.49 882.59C108.06 883.03 108.64 883.44 109.24 883.83C109.41 883.95 109.58 884.06 109.75 884.16C109.91 884.26 110.07 884.36 110.24 884.46C110.39 884.56 110.55 884.65 110.7 884.73C111.62 885.25 112.56 885.72 113.52 886.13C113.72 886.21 113.92 886.3 114.13 886.38C114.34 886.46 114.55 886.54 114.76 886.62C116.68 887.32 118.69 887.77 120.73 887.96C121.15 888 121.57 888.02 121.99 888.04C122.25 888.05 122.52 888.05 122.79 888.05H199.42C199.66 888.05 199.91 888.05 200.15 888.04C200.6 888.03 201.06 888 201.5 887.95C201.73 887.93 201.96 887.91 202.19 887.88C202.42 887.86 202.65 887.82 202.88 887.79C204.04 887.61 205.19 887.35 206.32 887C206.52 886.94 206.72 886.88 206.91 886.81C207.81 886.51 208.69 886.16 209.56 885.75C209.75 885.66 209.94 885.57 210.13 885.48C210.34 885.38 210.55 885.27 210.75 885.16C211.01 885.03 211.26 884.89 211.52 884.74C211.67 884.65 211.83 884.56 211.98 884.47C212.14 884.37 212.3 884.27 212.47 884.17C212.64 884.06 212.81 883.95 212.98 883.84C213.47 883.52 213.96 883.17 214.44 882.82C214.59 882.7 214.75 882.58 214.9 882.46C215.11 882.29 215.32 882.12 215.53 881.95C215.67 881.84 215.8 881.73 215.93 881.61C215.99 881.56 216.05 881.51 216.1 881.46C216.25 881.33 216.4 881.19 216.55 881.06C216.72 880.91 216.88 880.76 217.04 880.6C217.36 880.3 217.67 879.98 217.98 879.66C218.11 879.53 218.23 879.39 218.36 879.25C218.5 879.09 218.65 878.93 218.79 878.77C218.81 878.75 218.83 878.73 218.85 878.71V878.7C218.93 878.61 219.01 878.52 219.09 878.42L218.68 881.86Z" stroke="#888888" stroke-miterlimit="10"/>
<path d="M218.81 878.71C218.79 878.73 218.77 878.75 218.75 878.77C218.77 878.75 218.79 878.73 218.81 878.71Z" stroke="#888888" stroke-miterlimit="10"/>
<path d="M225.37 817.59C225.37 817.75 225.36 817.9 225.35 818.05C225.34 818.08 225.34 818.11 225.34 818.14C225.33 818.29 225.32 818.45 225.3 818.6L225.29 818.69C225.28 818.84 225.26 819 225.24 819.16C225.22 819.35 225.19 819.55 225.16 819.75L225.27 821.06L222.22 849.18C217.55 850.53 211.68 851.33 205.41 851.33H116.75C110.48 851.33 104.62 850.53 99.9501 849.18L96.9001 821.06L97.0001 819.75C96.7401 818.12 96.7201 816.57 96.9001 815.12V815.11C96.9001 815.1 96.9001 815.1 96.9001 815.09C96.9201 814.94 96.9401 814.8 96.9601 814.66C96.9901 814.5 97.0101 814.36 97.0401 814.21C97.0801 813.96 97.1401 813.72 97.2001 813.48C97.2101 813.43 97.2201 813.39 97.2301 813.34C97.2701 813.19 97.3001 813.05 97.3501 812.92C97.3801 812.77 97.4301 812.63 97.4701 812.5C97.5601 812.23 97.6601 811.96 97.7701 811.7C97.8201 811.57 97.8701 811.44 97.9301 811.31C98.0401 811.06 98.1601 810.81 98.3001 810.57C98.3501 810.45 98.4201 810.34 98.4901 810.23C98.5001 810.22 98.5001 810.21 98.5001 810.21C98.5601 810.1 98.6301 809.99 98.7001 809.88C98.8401 809.65 98.9901 809.43 99.1601 809.23C99.2301 809.11 99.3101 809.02 99.4001 808.92C99.5601 808.72 99.7301 808.52 99.9101 808.34C99.9901 808.25 100.08 808.17 100.17 808.09C100.39 807.87 100.63 807.67 100.86 807.49C100.97 807.41 101.07 807.33 101.18 807.26C101.32 807.16 101.47 807.06 101.62 806.98C101.92 806.8 102.22 806.64 102.53 806.51C102.85 806.37 103.17 806.26 103.51 806.16C103.82 806.07 104.14 806.01 104.47 805.96C104.48 805.95 104.5 805.95 104.53 805.95C104.7 805.92 104.88 805.9 105.06 805.89C106.05 805.82 107.1 805.95 108.18 806.27L109.62 806.77L137.54 816.39C153.11 821.09 169.06 821.09 184.63 816.39L212.52 806.77L213.98 806.27C215.07 805.95 216.11 805.82 217.1 805.89C217.29 805.9 217.46 805.92 217.64 805.95C217.66 805.95 217.68 805.95 217.7 805.96C218.03 806.01 218.34 806.07 218.66 806.16C219.32 806.35 219.96 806.62 220.55 806.98C220.84 807.15 221.13 807.35 221.4 807.56C222.19 808.19 222.89 808.96 223.47 809.88C223.54 809.99 223.6 810.1 223.67 810.21C223.68 810.21 223.68 810.22 223.68 810.23C223.75 810.34 223.81 810.46 223.87 810.58C224.35 811.45 224.71 812.42 224.96 813.46C225.03 813.71 225.08 813.97 225.13 814.23C225.16 814.37 225.18 814.52 225.2 814.67C225.23 814.81 225.25 814.96 225.27 815.12C225.27 815.12 225.27 815.12 225.26 815.13C225.26 815.14 225.27 815.15 225.27 815.15C225.3 815.38 225.32 815.61 225.34 815.85C225.34 815.98 225.35 816.09 225.36 816.21C225.38 816.66 225.39 817.13 225.37 817.59Z" stroke="#888888" stroke-miterlimit="10"/>
<path d="M222.22 849.18L221.7 854.02L219.05 878.43C218.97 878.52 218.89 878.61 218.81 878.7V878.71C218.79 878.73 218.77 878.75 218.75 878.77C218.62 878.93 218.47 879.09 218.33 879.25C218.2 879.39 218.07 879.53 217.94 879.66C217.64 879.98 217.32 880.29 217.01 880.6C216.85 880.76 216.68 880.91 216.51 881.06C216.37 881.2 216.22 881.33 216.07 881.46C216.01 881.51 215.95 881.56 215.9 881.61C215.77 881.73 215.63 881.84 215.5 881.95C215.29 882.12 215.08 882.29 214.86 882.46C214.71 882.58 214.55 882.7 214.4 882.82C213.92 883.18 213.43 883.52 212.94 883.84C212.77 883.96 212.6 884.06 212.43 884.17C212.27 884.27 212.11 884.38 211.94 884.47C211.79 884.57 211.63 884.66 211.48 884.74C211.23 884.89 210.97 885.03 210.72 885.16C210.51 885.27 210.3 885.38 210.09 885.48C209.91 885.57 209.72 885.66 209.53 885.75C208.67 886.16 207.78 886.51 206.88 886.81C206.69 886.88 206.49 886.94 206.29 887C205.16 887.35 204.02 887.61 202.85 887.79C202.62 887.83 202.4 887.86 202.17 887.89C201.94 887.91 201.71 887.94 201.48 887.96C201.03 888 200.58 888.03 200.12 888.05C199.88 888.05 199.64 888.06 199.4 888.06H122.77C122.51 888.06 122.24 888.05 121.97 888.04C121.56 888.03 121.13 888 120.72 887.96C118.67 887.78 116.67 887.32 114.75 886.62C114.54 886.55 114.32 886.47 114.12 886.38C113.91 886.31 113.71 886.22 113.5 886.14C112.55 885.73 111.6 885.27 110.69 884.74C110.53 884.66 110.38 884.57 110.23 884.47C110.06 884.38 109.9 884.27 109.74 884.17C109.57 884.07 109.4 883.96 109.23 883.84C108.63 883.45 108.05 883.04 107.48 882.6C107.33 882.49 107.19 882.37 107.04 882.26C106.93 882.16 106.81 882.07 106.7 881.97C106.53 881.83 106.36 881.69 106.19 881.54C105.88 881.27 105.58 881 105.28 880.71C105.15 880.6 105.03 880.48 104.91 880.36C104.68 880.13 104.45 879.9 104.22 879.67C104.1 879.53 103.97 879.39 103.84 879.25C103.68 879.08 103.52 878.9 103.36 878.71C103.28 878.63 103.2 878.53 103.12 878.44L100.47 854.02L99.9501 849.18C104.62 850.53 110.48 851.33 116.75 851.33H205.41C211.68 851.33 217.55 850.53 222.22 849.18Z" stroke="#888888" stroke-miterlimit="10"/>
<path d="M222.22 849.18L221.7 854.02C217.06 856.27 209.84 857.73 201.92 857.73H120.24C112.33 857.73 105.11 856.27 100.47 854.02L99.9501 849.18C104.62 850.53 110.48 851.33 116.75 851.33H205.41C211.68 851.33 217.55 850.53 222.22 849.18Z" stroke="#888888" stroke-miterlimit="10"/>
<path d="M412.37 345.317C412.37 360.127 411.09 374.637 408.61 388.737C408.29 390.537 407 391.977 405.28 392.497C405.25 392.507 405.23 392.517 405.2 392.527C404.88 392.617 404.57 392.707 404.25 392.797C403.8 392.927 403.34 393.057 402.88 393.187C402.13 393.397 401.37 393.607 400.62 393.817C400.16 393.947 399.69 394.077 399.23 394.197C398.75 394.327 398.27 394.467 397.79 394.587C394.62 395.467 391.42 396.317 388.22 397.157C387.85 397.257 387.48 397.347 387.1 397.447C347.98 407.587 305.83 415.167 261.51 419.777H261.48C259.96 419.937 258.44 420.087 256.91 420.227C256.88 420.227 256.85 420.237 256.82 420.237C252.31 420.687 247.77 421.097 243.21 421.477V421.487C241.53 421.627 239.84 421.767 238.15 421.897C215.52 423.687 192.39 424.697 168.85 424.877C167.99 424.887 167.12 424.887 166.26 424.887C164.54 424.907 162.82 424.907 161.09 424.907C159.22 424.907 157.35 424.897 155.49 424.887C154.09 424.887 152.69 424.877 151.3 424.857C146.49 424.807 141.69 424.727 136.91 424.617C118.89 424.177 101.12 423.257 83.6601 421.867C81.9701 421.737 80.2801 421.607 78.6001 421.447C74.4701 421.107 70.3601 420.737 66.2601 420.337C65.9501 420.307 65.6501 420.287 65.3401 420.247C65.3101 420.247 65.2801 420.237 65.2501 420.237C63.7301 420.087 62.2001 419.937 60.6801 419.777C60.6701 419.777 60.6701 419.777 60.6601 419.777C33.6401 416.967 7.43005 413.047 -17.79 408.117C-33.93 404.987 -49.65 401.417 -64.92 397.457C-65.3 397.357 -65.67 397.267 -66.04 397.167C-69.39 396.297 -72.71 395.407 -76 394.497C-76.35 394.407 -76.69 394.307 -77.04 394.217C-77.5 394.097 -77.9699 393.967 -78.4299 393.837C-79.2999 393.587 -80.1799 393.347 -81.0499 393.097V393.087C-81.3899 392.997 -81.7399 392.897 -82.0799 392.797C-82.3999 392.717 -82.71 392.617 -83.03 392.527C-83.06 392.527 -83.0799 392.517 -83.1099 392.497C-84.8399 391.987 -86.1299 390.537 -86.4299 388.747C-88.6799 375.947 -89.95 362.817 -90.16 349.427C-90.19 348.057 -90.2 346.697 -90.2 345.317C-90.2 316.227 -85.22 288.287 -76.06 262.307C-75.31 260.227 -74.55 258.127 -73.76 256.057C-68.65 242.727 -62.4299 229.937 -55.2099 217.807C-52.6499 213.497 -49.9599 209.267 -47.1499 205.127C-45.6099 202.867 -44.04 200.647 -42.44 198.437C-38.75 193.357 -34.8599 188.427 -30.7999 183.657C3.27007 143.547 49.7601 114.267 102.76 101.717C119.19 97.8268 136.25 95.5368 153.75 95.0368C156.19 94.9668 158.63 94.9468 161.09 94.9468C181.17 94.9468 200.7 97.2868 219.41 101.717C227.91 103.727 236.24 106.167 244.38 109.017C272.47 118.857 298.29 133.517 320.82 152.027C335.4 163.997 348.6 177.577 360.13 192.467C361.66 194.447 363.16 196.447 364.63 198.447C366.19 200.607 367.72 202.777 369.22 204.987C374.46 212.677 379.28 220.697 383.65 228.987C384.46 230.517 385.25 232.047 386.02 233.597C387.05 235.637 388.05 237.707 389.02 239.787C391.29 244.657 393.41 249.607 395.37 254.637C406.36 282.757 412.37 313.337 412.37 345.317Z" stroke="#888888" stroke-miterlimit="10"/>
<path d="M97.6101 182.56C105.82 192.28 101.28 209.64 84.5601 221.51C68.8701 232.65 46.2001 232.57 35.1001 221.81C26.2101 213.27 28.8001 200.05 40.5901 192.22C43.5501 190.25 46.0101 189.88 47.7401 191.09C49.4801 192.31 48.8701 194.1 46.0601 196.13C37.0601 202.59 35.9601 211.95 43.7901 217.8C52.7901 224.57 68.6001 223.67 79.4801 215.68C94.5601 204.5 96.2201 189.19 85.3501 181.88C70.8401 172.21 43.4501 172.76 23.2001 186.39C-0.799928 203.53 -0.839951 232.16 23.3001 248.17C35.5801 256.22 50.9101 259.47 68.1101 259.42C80.1901 259.4 92.6301 259.3 105.27 259.27C106.16 259.27 107.05 259.23 107.94 259.27C111.1 259.44 113 261.03 112.93 263.44C112.87 265.85 110.89 267.47 107.65 267.49C99.4301 267.57 91.2801 267.56 83.2601 267.58C83.1601 267.81 59.2801 267.64 48.4301 265.91C24.5701 262.17 7.66006 251.63 0.0900564 233.96C-9.18995 212.37 3.31005 187.05 29.6101 176.57C56.5001 166.63 86.0501 169.3 97.6101 182.56Z" stroke="#888888" stroke-miterlimit="10"/>
<path d="M184.22 197.41C198.86 206.36 200.33 223.33 185.47 234.42C175.12 242.15 156.79 241.88 146.74 233.84C144.46 232.03 144.24 229.66 146.13 228.03C148.06 226.39 150.99 226.21 153.26 227.82C159.28 232.12 166.26 233.48 173.77 230.87C181.66 228.15 185.54 222.94 186.01 216.72C186.77 205.81 175.21 197.51 160.75 196.64C144.11 195.7 129.33 202.99 124.41 216.77C120 229.28 125.94 242.59 140.6 250.98C151.12 257.03 163.21 259.25 175.96 259.29C197.02 259.35 217.91 259.41 238.05 259.55C278.6 259.8 316.03 260.26 345.3 260.94C348.85 261.02 350.5 262.32 350.51 264.88C350.5 267.37 348.95 268.51 345.5 268.47C322.83 268.25 295.17 268.05 264.92 267.93C264.92 267.92 264.92 267.9 264.92 267.89C236.98 267.77 206.81 267.74 176.33 267.68C159.17 267.67 143.27 264.11 130.17 254.88C106.85 238.44 108.33 211.07 129.81 197.78C145.7 187.89 168.28 187.77 184.22 197.41Z" stroke="#888888" stroke-miterlimit="10"/>
<path d="M206.54 281.87C219.09 281.85 231.46 281.81 243.54 281.78C244.6 281.78 245.67 281.77 246.67 282.01C249.07 282.59 250.3 284.08 250.06 286.18C249.84 288.27 248.36 289.61 245.86 289.94C244.91 290.07 243.94 290.01 242.99 290.02C221.26 290.17 198.56 290.21 175.68 290.29C161.61 290.34 148.45 293.14 137.52 300.53C118.77 313.21 118.49 334.37 134.68 346.14C147.18 355.2 166.51 355.41 178.99 346.7C188.36 340.1 188.73 328.36 178.88 321.23C171.59 315.93 159.78 316.28 153.04 322C148.14 326.13 148.28 332.39 153.15 336.18C156.47 338.78 161.57 339.3 165.58 337.5C169.74 335.64 170.65 332.27 167.74 329.26C167.23 328.74 166.62 328.19 166.39 327.57C165.72 325.72 166.34 324.08 168.62 323.07C171.02 321.99 173.18 322.51 174.99 323.98C181.45 329.16 180.4 337.73 173.21 342.15C162.08 348.96 145.65 345.35 140.74 334.39C135.93 323.57 146.19 311.25 162.38 309.73C180.37 307.99 195.84 319.13 195.91 332.68C195.95 346.75 182.45 356.82 164.7 358.84C143.99 361.12 124.33 353.66 116.09 336.87C106.8 317.78 119.57 295.27 147.09 286.24C156.39 283.15 166.16 281.96 176.12 281.91C186.32 281.87 196.48 281.89 206.54 281.87Z" stroke="#888888" stroke-miterlimit="10"/>
<path d="M95.1901 281.86C95.6801 281.86 96.16 281.88 96.65 281.94C99.51 282.34 101.27 284.12 101.1 286.41C100.95 288.59 99.1 290.11 96.27 290.13C89.92 290.16 83.6001 290.08 75.1901 290.02C64.0201 289.68 51.0701 290.16 39.4401 293.94C19.0401 300.51 6.78005 312.09 5.30005 329.76C3.66005 348.12 19.9801 366.19 41.3501 371.74C58.4601 376.26 75.5501 374.65 85.6701 367.48C95.7001 360.4 94.5501 346.33 81.1001 335.14C80.4901 334.64 79.8201 334.18 79.2301 333.68C77.3101 332.03 77.15 329.95 78.83 328.54C80.43 327.22 83.3501 327.22 85.4401 328.72C87.1001 329.92 88.67 331.24 90.09 332.6C106.48 348.57 104.49 366.15 89.3201 373.43C70.8501 382.22 39.1101 381.65 16.0301 365.33C-10.5299 345.12 -8.97992 312.04 19.1701 294.02C32.2501 285.74 48.3 282.09 66.3 281.85C75.74 281.74 85.3901 281.86 95.1901 281.86Z" stroke="#888888" stroke-miterlimit="10"/>
<path d="M-35.2299 234.15C-27.9299 239.78 -28.1299 252.14 -35.2699 259.31C-42.1299 266.1 -51.5799 263.13 -53.2099 254.46C-53.9899 250.52 -53.2699 246.86 -50.8699 243.59C-49.6099 241.88 -47.8499 241.57 -46.5999 242.73C-45.3199 243.95 -45.2899 245.9 -46.4799 247.82C-47.9099 250.11 -48.1099 251.82 -47.2099 253.48C-46.2199 255.33 -43.8999 256.25 -41.8499 255.56C-36.8999 253.9 -34.7799 245.68 -38.3999 241.35C-42.1699 236.86 -48.8599 237.32 -52.7299 242.12C-58.3499 249.24 -57.7199 259.98 -51.7599 265.78C-48.4399 268.93 -44.3599 269.97 -39.6999 269.92C-23.8199 269.77 -4.59989 269.64 16.8501 269.55C21.0001 269.53 23.0801 270.82 23.0701 273.48C23.0701 276.15 20.9501 277.5 16.8401 277.49C5.8201 277.48 -4.61989 277.43 -14.3099 277.4C-14.3099 277.4 -14.3099 277.39 -14.3099 277.37C-23.4899 277.34 -31.9899 277.31 -39.7099 277.26C-46.0499 277.22 -51.3799 275.49 -55.5799 270.99C-62.7499 263 -63.9099 249.37 -57.6899 239.05C-52.6399 230.93 -42.3999 228.56 -35.2299 234.15Z" stroke="#888888" stroke-miterlimit="10"/>
<path d="M288.63 223.09C290.29 229.29 286.87 235.96 280.53 238.69C274.53 241.29 266.59 240.18 260.91 235.9C254.42 231.03 253.22 223.12 258.11 218.7C259.91 217.06 262.34 216.89 264.55 218.25C266.61 219.51 267.24 221.68 266.02 223.4C263.85 226.43 264.07 228.53 266.86 230.51C269.99 232.74 274.53 232.88 277.24 230.84C281.59 227.58 280.98 221.46 276 217.66C269.77 212.93 260.46 212.51 255.07 216.78C247.86 222.46 248.47 233.29 256.84 240.33C262.89 245.41 270.17 247.44 277.89 247.6C294.74 247.95 310.63 248.31 325.18 248.78C325.88 248.8 326.58 248.8 327.26 248.98C329.15 249.51 330.45 251.33 330.33 253.16C330.21 255.23 328.61 256.54 326.14 256.48C318.43 256.32 310.34 256.16 301.9 256.01C302.02 255.83 282.4 255.78 271.88 254.93C257.3 253.77 244.99 244.05 241.45 232.53C237.6 219.85 245.93 208.57 259.35 206.94C272.11 205.34 285.83 212.54 288.63 223.09Z" stroke="#888888" stroke-miterlimit="10"/>
<path d="M268 281.66C286.73 281.57 304.43 281.47 320.51 281.36C323.49 281.34 325.27 282.89 325.21 285.24C325.14 287.57 323.27 289.09 320.27 289.14C312.23 289.29 303.78 289.41 295.02 289.52C286.25 289.63 277.14 289.73 267.78 289.81C264.21 289.83 262.12 288.38 262.09 285.92C262.06 283.38 264.36 281.68 268 281.66Z" stroke="#888888" stroke-miterlimit="10"/>
<path d="M353.12 281.04C355.39 281.04 356.83 282.69 356.72 284.84C356.61 286.93 355.15 288.37 352.93 288.46C350.56 288.55 348.13 288.58 345.65 288.63C345.65 288.64 345.65 288.64 345.65 288.66C343.23 288.71 340.76 288.8 338.22 288.81C335.76 288.81 334.3 287.37 334.36 285.07C334.43 282.82 336 281.27 338.45 281.22C343.57 281.12 348.46 281.05 353.12 281.04Z" stroke="#888888" stroke-miterlimit="10"/>
<path d="M379.62 280.73C381.02 280.82 381.82 282.49 381.72 284.4C381.62 286.2 380.72 287.47 379.31 287.62C378.32 287.72 377.3 287.71 376.27 287.75C375.24 287.79 374.17 287.88 373.09 287.85C371.54 287.83 370.49 286.58 370.39 284.72C370.29 282.76 371.3 280.98 372.84 280.84C375.2 280.64 377.48 280.61 379.62 280.73Z" stroke="#888888" stroke-miterlimit="10"/>
<path d="M227.36 737.99L232.6 713.72C232.82 712.72 233.24 711.82 233.82 711.06L235.62 715.2C235.65 715.28 235.69 715.36 235.74 715.44L234.12 720.54L229.64 734.78C229.23 736.09 228.41 737.21 227.36 737.99Z" stroke="#888888" stroke-miterlimit="10"/>
<path d="M246.06 715.16C246.06 715.63 246.01 716.12 245.91 716.6L225.92 809.21C225.78 808.42 225.58 807.67 225.32 806.96C225.32 806.96 225.32 806.96 225.32 806.95C223.97 803.26 221.14 800.82 217.64 800.64C216.69 800.6 215.69 800.72 214.65 801.04L213.68 801.38L225.9 744.78H231.57C232.04 744.71 232.5 744.55 232.89 744.31C233.6 743.91 234.17 743.23 234.42 742.4L236.88 734.6L242.72 716.1C242.83 715.75 242.88 715.41 242.88 715.08C242.88 714.92 242.87 714.77 242.85 714.61V714.6C242.96 714.06 242.91 713.48 242.67 712.91L240.77 708.53C243.92 709.25 246.06 712.04 246.06 715.16Z" stroke="#888888" stroke-miterlimit="10"/>
<path d="M242.88 715.08C242.88 715.41 242.83 715.75 242.72 716.1L236.88 734.6L234.42 742.4C234.17 743.23 233.6 743.91 232.89 744.31C232.5 744.55 232.04 744.71 231.57 744.78H90.6C90.13 744.71 89.66 744.55 89.27 744.31C88.56 743.91 87.99 743.23 87.75 742.4L85.29 734.62L79.44 716.1C79.33 715.75 79.28 715.41 79.28 715.08C79.28 714.93 79.29 714.78 79.31 714.63C79.31 714.62 79.31 714.62 79.31 714.61C79.51 713.24 80.52 712.04 82.02 711.74C83.77 711.36 85.5 712.51 86.04 714.2L86.43 715.42L88.04 720.56L92.53 734.78C92.94 736.08 93.73 737.18 94.77 737.96C95.86 738.8 97.23 739.28 98.68 739.28H223.48C224.92 739.28 226.27 738.81 227.36 737.99C228.41 737.21 229.23 736.09 229.64 734.78L234.12 720.54L235.74 715.44L236.12 714.2C236.66 712.51 238.39 711.36 240.15 711.74C241.64 712.04 242.66 713.23 242.85 714.6V714.61C242.87 714.77 242.88 714.92 242.88 715.08Z" stroke="#888888" stroke-miterlimit="10"/>
<path d="M94.7701 737.96C93.7301 737.18 92.9401 736.08 92.5301 734.78L88.0401 720.56L86.4301 715.42C86.4701 715.35 86.5001 715.27 86.5401 715.2L88.33 711.07C88.9 711.83 89.3201 712.73 89.5401 713.72L94.7701 737.96Z" stroke="#888888" stroke-miterlimit="10"/>
<path d="M225.94 814.86L225.27 821.06L225.16 819.75C225.19 819.55 225.22 819.35 225.24 819.16C225.26 819 225.28 818.84 225.29 818.69L225.3 818.6C225.32 818.45 225.33 818.29 225.34 818.14C225.34 818.11 225.34 818.08 225.35 818.05C225.36 817.9 225.37 817.75 225.37 817.59C225.39 817.13 225.38 816.66 225.36 816.21C225.35 816.09 225.34 815.98 225.34 815.85C225.32 815.61 225.3 815.38 225.27 815.15C225.27 815.15 225.26 815.14 225.26 815.13C225.27 815.12 225.27 815.12 225.27 815.12C225.25 814.96 225.23 814.81 225.2 814.67C225.18 814.52 225.16 814.37 225.13 814.23C225.08 813.97 225.03 813.71 224.96 813.46C224.71 812.42 224.35 811.45 223.87 810.58C223.81 810.46 223.75 810.34 223.68 810.23C223.68 810.22 223.68 810.21 223.67 810.21C223.6 810.1 223.54 809.99 223.47 809.88C222.89 808.96 222.19 808.19 221.4 807.56C221.13 807.35 220.84 807.15 220.55 806.98C219.96 806.62 219.32 806.35 218.66 806.16C218.34 806.07 218.03 806.01 217.7 805.96C217.68 805.95 217.66 805.95 217.64 805.95C217.46 805.92 217.29 805.9 217.1 805.89C216.11 805.82 215.07 805.95 213.98 806.27L212.52 806.77L184.63 816.39C169.06 821.09 153.11 821.09 137.54 816.39L109.62 806.77L108.18 806.27C107.1 805.95 106.05 805.82 105.06 805.89C104.88 805.9 104.7 805.92 104.53 805.95C104.5 805.95 104.48 805.95 104.47 805.96C104.14 806.01 103.82 806.07 103.51 806.16C103.17 806.26 102.85 806.37 102.53 806.51C102.22 806.64 101.92 806.8 101.62 806.98C101.47 807.06 101.32 807.16 101.18 807.26C101.07 807.33 100.97 807.41 100.86 807.49C100.63 807.67 100.39 807.87 100.17 808.09C100.08 808.17 99.9901 808.25 99.9101 808.34C99.7301 808.52 99.5601 808.72 99.4001 808.92C99.3101 809.02 99.2301 809.11 99.1601 809.23C98.9901 809.43 98.8401 809.65 98.7001 809.88C98.6301 809.99 98.5601 810.1 98.5001 810.21C98.5001 810.21 98.5001 810.22 98.4901 810.23C98.4201 810.34 98.3501 810.45 98.3001 810.57C98.1601 810.81 98.0401 811.06 97.9301 811.31C97.8701 811.44 97.8201 811.57 97.7701 811.7C97.6601 811.96 97.5601 812.23 97.4701 812.5C97.4301 812.63 97.3801 812.77 97.3501 812.92C97.3001 813.05 97.2701 813.19 97.2301 813.34C97.2201 813.39 97.2101 813.43 97.2001 813.48C97.1401 813.72 97.0801 813.96 97.0401 814.21C97.0101 814.36 96.9901 814.5 96.9601 814.66C96.9401 814.8 96.9201 814.94 96.9001 815.09C96.9001 815.1 96.9001 815.1 96.9001 815.11V815.12C96.7201 816.57 96.7401 818.12 97.0001 819.75L96.9001 821.06L96.2301 814.86C95.9101 812.88 95.9301 811 96.2301 809.29V809.28C96.3701 808.46 96.5801 807.68 96.8501 806.95C98.2001 803.26 101.03 800.81 104.53 800.64C105.48 800.6 106.48 800.73 107.51 801.04L108.46 801.37L137.25 811.42C153.01 816.24 169.15 816.24 184.92 811.42L213.68 801.38L214.65 801.04C215.69 800.72 216.69 800.6 217.64 800.64C221.14 800.82 223.97 803.26 225.32 806.95C225.32 806.96 225.32 806.96 225.32 806.96C225.58 807.67 225.78 808.42 225.92 809.21C226.23 810.94 226.26 812.85 225.94 814.86Z" stroke="#888888" stroke-miterlimit="10"/>
<path d="M108.46 801.37L107.51 801.04C106.48 800.73 105.48 800.6 104.53 800.64C101.03 800.81 98.2001 803.26 96.8501 806.95C96.5801 807.68 96.3701 808.46 96.2301 809.28L76.2301 716.6C76.1301 716.12 76.0801 715.64 76.0801 715.16C76.0801 712.04 78.2401 709.23 81.4001 708.52L79.5001 712.91C79.2601 713.48 79.2001 714.06 79.3101 714.61C79.3101 714.62 79.3101 714.62 79.3101 714.63C79.2901 714.78 79.2801 714.93 79.2801 715.08C79.2801 715.41 79.3301 715.75 79.4401 716.1L85.2901 734.62L87.7501 742.4C87.9901 743.23 88.5601 743.91 89.2701 744.31C89.6601 744.55 90.1301 744.71 90.6001 744.78H96.2401L108.46 801.37Z" stroke="#888888" stroke-miterlimit="10"/>
<path d="M402.93 397.54C402.79 398.48 387.26 492.47 318.68 574.27C261.01 643.03 237.54 678.18 231.63 687.44L231.48 687.09C231.37 686.84 231.23 686.59 231.04 686.37C230.34 685.5 229.18 684.99 227.96 684.99C227.72 684.99 227.48 685.01 227.24 685.05C232.99 675.99 256.53 640.59 314.84 571.05C378.4 495.26 395.8 408.9 397.79 397.92C398.27 397.8 398.75 397.66 399.23 397.53C399.69 397.41 400.16 397.28 400.62 397.15C401.37 396.94 402.13 396.73 402.88 396.52C402.97 396.85 402.99 397.19 402.93 397.54Z" stroke="#888888" stroke-miterlimit="10"/>
<path d="M243.21 424.82C240.23 458.79 233.4 518.74 219.25 573.29C213.56 595.25 208.94 613.77 205.23 629.13C204.62 631.64 204.04 634.06 203.49 636.4C196.36 666.29 193.07 682.57 192.11 687.51H187.03C187.69 684.04 190.8 668.17 198.14 637.28C198.68 634.99 199.25 632.61 199.84 630.15C203.64 614.34 208.44 595.06 214.41 572.03C228.36 518.24 235.15 459.15 238.15 425.23C239.45 425.13 240.75 425.02 242.04 424.92C242.43 424.88 242.82 424.85 243.21 424.82Z" stroke="#888888" stroke-miterlimit="10"/>
<path d="M94.5402 685C94.4302 684.99 94.3102 684.99 94.2002 684.99C92.9902 684.99 91.8202 685.5 91.1202 686.37C90.9402 686.59 90.7902 686.84 90.6802 687.09L90.3802 687.77C84.8502 679.05 61.5202 643.89 3.13023 574.27C-65.4598 492.47 -80.9798 398.48 -81.1298 397.54C-81.1898 397.15 -81.1598 396.78 -81.0498 396.43C-80.1798 396.68 -79.2998 396.92 -78.4298 397.17C-77.9698 397.3 -77.4998 397.43 -77.0398 397.55C-76.6898 397.64 -76.3498 397.74 -75.9998 397.83C-74.0798 408.4 -56.7798 495.04 6.96022 571.05C65.1602 640.46 88.7302 675.86 94.5402 685Z" stroke="#888888" stroke-miterlimit="10"/>
<path d="M134.78 687.51H129.69C128.73 682.57 125.45 666.34 118.35 636.52C117.78 634.12 117.18 631.63 116.56 629.05C112.86 613.71 108.24 595.21 102.56 573.29C88.4001 518.72 81.5801 458.75 78.6001 424.78C80.2801 424.94 81.9701 425.07 83.6601 425.2C86.6501 459.11 93.4401 518.23 107.4 572.03C113.36 595.03 118.15 614.28 121.95 630.08C122.56 632.6 123.14 635.03 123.69 637.37H123.7C131.01 668.2 134.12 684.04 134.78 687.51Z" stroke="#888888" stroke-miterlimit="10"/>
</svg>
