<svg width="303" height="488" viewBox="0 0 303 488" fill="none" xmlns="http://www.w3.org/2000/svg">
<path d="M166.348 413.384L165.664 417.794H137.626L136.942 413.384H166.348Z" stroke="#BBBBBB" stroke-miterlimit="10"/>
<path d="M170.152 388.868L166.822 410.33H136.468L133.138 388.868H170.152Z" stroke="#BBBBBB" stroke-miterlimit="10"/>
<path d="M171.91 377.51L170.656 385.568H132.628L131.374 377.51H171.91Z" stroke="#BBBBBB" stroke-miterlimit="10"/>
<path d="M132.61 385.568H130.372L129.694 377.51H131.362L132.61 385.568Z" stroke="#BBBBBB" stroke-miterlimit="10"/>
<path d="M136.924 413.384H132.718L130.654 388.868H133.12L136.924 413.384Z" stroke="#BBBBBB" stroke-miterlimit="10"/>
<path d="M166.822 410.33L166.348 413.384H136.942L136.468 410.33H166.822Z" stroke="#BBBBBB" stroke-miterlimit="10"/>
<path d="M170.17 388.868H172.642L170.578 413.384H166.366L170.17 388.868Z" stroke="#BBBBBB" stroke-miterlimit="10"/>
<path d="M173.596 377.51L172.918 385.568H170.68L171.934 377.51H173.596Z" stroke="#BBBBBB" stroke-miterlimit="10"/>
<path d="M175.792 374.816L175.306 377.51H127.99L127.504 374.816L127.864 372.128H175.426L175.792 374.816Z" stroke="#BBBBBB" stroke-miterlimit="10"/>
<path d="M149.212 388.868H154.084L153.088 410.33H150.208L149.212 388.868Z" stroke="#BBBBBB" stroke-miterlimit="10"/>
<path d="M154.606 377.51L154.234 385.568H149.062L148.684 377.51H154.606Z" stroke="#BBBBBB" stroke-miterlimit="10"/>
<path d="M134.572 388.868H147.364C146.656 391.964 144.058 394.262 140.968 394.262C137.878 394.256 135.28 391.958 134.572 388.868Z" stroke="#BBBBBB" stroke-miterlimit="10"/>
<path d="M147.382 385.568H134.548C135.226 382.418 137.842 380.072 140.962 380.072C144.088 380.072 146.71 382.418 147.382 385.568Z" stroke="#BBBBBB" stroke-miterlimit="10"/>
<path d="M143.068 407.402C145.825 407.402 148.06 404.993 148.06 402.02C148.06 399.048 145.825 396.638 143.068 396.638C140.311 396.638 138.076 399.048 138.076 402.02C138.076 404.993 140.311 407.402 143.068 407.402Z" stroke="#BBBBBB" stroke-miterlimit="10"/>
<path d="M168.7 385.568H155.95C156.688 382.514 159.262 380.252 162.328 380.252C165.388 380.258 167.962 382.514 168.7 385.568Z" stroke="#BBBBBB" stroke-miterlimit="10"/>
<path d="M168.754 388.868C168.106 392.06 165.478 394.442 162.328 394.442C159.172 394.442 156.544 392.054 155.896 388.868H168.754Z" stroke="#BBBBBB" stroke-miterlimit="10"/>
<path d="M160.228 407.582C162.985 407.582 165.22 405.172 165.22 402.2C165.22 399.228 162.985 396.818 160.228 396.818C157.471 396.818 155.236 399.228 155.236 402.2C155.236 405.172 157.471 407.582 160.228 407.582Z" stroke="#BBBBBB" stroke-miterlimit="10"/>
<path d="M158.8 424.73C158.8 425.966 157.87 426.968 156.718 426.968C155.974 426.968 155.326 426.56 154.96 425.93H148.33C147.964 426.554 147.31 426.968 146.572 426.968C145.42 426.968 144.49 425.966 144.49 424.73C144.49 423.488 145.42 422.486 146.572 422.486C147.31 422.486 147.964 422.894 148.33 423.524H150.31V421.154H149.47C148.72 421.154 148.114 420.548 148.114 419.804V417.794H155.176V419.804C155.176 420.554 154.57 421.154 153.826 421.154H152.986V423.524H154.966C155.332 422.9 155.98 422.486 156.724 422.486C157.87 422.486 158.8 423.488 158.8 424.73Z" stroke="#BBBBBB" stroke-miterlimit="10"/>
<path d="M140.644 352.28C137.44 346.832 138.244 343.838 143.944 339.716C147.448 337.178 150.988 334.664 154.354 332.024C156.04 330.698 157.372 329.12 158.974 327.554C159.988 330.104 159.688 332.504 158.368 334.802C157.63 336.086 156.682 337.316 155.674 338.492C152.116 342.632 152.362 345.122 156.88 348.716C159.334 350.66 161.92 352.52 164.308 354.494H141.982C141.478 353.792 141.082 353.03 140.644 352.28Z" fill="#E25822" stroke="#BBBBBB" stroke-miterlimit="10" stroke-linecap="round" stroke-linejoin="round"/>
<path d="M168.202 368.456C166.75 370.382 165.088 371.648 162.604 372.128H135.244C137.254 370.04 138.808 368.126 140.758 366.5C144.526 363.362 145.6 360.116 143.482 356.564H166.624C167.932 357.854 169.048 359.294 169.918 360.77C171.526 363.512 170.056 366.008 168.202 368.456Z" fill="#E25822" stroke="#BBBBBB" stroke-miterlimit="10" stroke-linecap="round" stroke-linejoin="round"/>
<path d="M116.536 285.974C119.944 299.126 122.716 310.226 124.936 319.43L124.63 319.37C123.124 319.07 121.63 318.734 120.16 318.38C117.328 317.69 114.556 316.91 111.88 316.04C111.88 316.04 111.88 316.04 111.874 316.04C111.79 313.826 111.178 311.75 110.176 310.022C109.096 308.168 107.56 306.716 105.718 305.918C66.0999 288.89 34.6779 250.46 20.6259 201.902C20.4039 201.146 20.1939 200.384 19.9839 199.622C19.8759 199.244 19.7739 198.866 19.6719 198.494C18.8919 195.608 18.1719 192.692 17.5179 189.746C17.4279 189.35 17.3379 188.948 17.2599 188.546C17.2179 188.39 17.1879 188.228 17.1519 188.072V188.066C16.8999 186.866 16.6539 185.666 16.4199 184.466C16.3179 183.944 16.2159 183.416 16.1199 182.894C16.1199 182.87 16.1139 182.852 16.1139 182.834C16.0899 182.714 16.0659 182.594 16.0479 182.474C25.2099 184.85 34.6419 186.992 44.3259 188.87C59.4579 191.828 75.1839 194.18 91.3959 195.866C91.4019 195.866 91.4019 195.866 91.4079 195.866C92.3199 195.962 93.2379 196.052 94.1499 196.142C94.1679 196.142 94.1859 196.148 94.2039 196.148C94.3899 196.172 94.5699 196.184 94.7559 196.202C97.2159 196.442 99.6819 196.664 102.16 196.868C103.948 217.25 108.04 253.232 116.536 285.974Z" stroke="#BBBBBB" stroke-miterlimit="10"/>
<path d="M197.89 197.138C196.09 217.49 192.016 252.944 183.646 285.218C180.064 299.036 177.184 310.604 174.904 320.09C167.92 321.296 160.594 321.974 153.022 322.046C152.566 322.058 152.11 322.058 151.654 322.058H150.664C150.424 322.058 150.172 322.046 149.932 322.046C149.08 322.034 148.24 322.01 147.4 321.992C143.164 321.86 139.012 321.554 134.962 321.056C132.67 320.774 130.402 320.438 128.17 320.048C125.89 310.568 123.016 299.018 119.44 285.218C111.064 252.938 106.99 217.466 105.196 197.12C115.672 197.954 126.334 198.506 137.146 198.77C140.014 198.836 142.894 198.884 145.78 198.914C146.614 198.926 147.454 198.932 148.294 198.932C149.41 198.938 150.532 198.944 151.654 198.944C152.692 198.944 153.724 198.944 154.756 198.932C155.272 198.932 155.794 198.932 156.31 198.926C170.434 198.818 184.312 198.212 197.89 197.138Z" stroke="#BBBBBB" stroke-miterlimit="10"/>
<path d="M287.26 182.468C286.096 188.828 284.632 195.056 282.904 201.128C268.966 250.046 237.412 288.806 197.59 305.924C194.032 307.448 191.596 311.456 191.434 316.046C191.428 316.046 191.428 316.046 191.422 316.046C187.354 317.36 183.094 318.482 178.678 319.376L178.138 319.478C180.364 310.262 183.136 299.15 186.55 285.974C195.04 253.244 199.138 217.274 200.926 196.892C203.662 196.658 206.386 196.412 209.092 196.142C209.11 196.142 209.128 196.136 209.146 196.136C210.064 196.052 210.976 195.962 211.888 195.866H211.906C238.498 193.1 263.788 188.552 287.26 182.468Z" stroke="#BBBBBB" stroke-miterlimit="10"/>
<path d="M124.936 319.43C125.308 320.978 125.668 322.472 126.01 323.912L125.926 323.9C121.588 323.156 117.4 322.226 113.428 321.128C113.242 320.846 113.08 320.558 112.936 320.264C112.93 320.252 112.93 320.246 112.924 320.234C112.342 319.106 111.988 317.852 111.898 316.52C111.886 316.358 111.88 316.196 111.88 316.04C114.556 316.91 117.328 317.69 120.16 318.38C121.63 318.734 123.124 319.07 124.63 319.37L124.936 319.43Z" stroke="#BBBBBB" stroke-miterlimit="10"/>
<path d="M174.904 320.09C174.55 321.566 174.208 322.994 173.884 324.368C170.38 324.896 166.768 325.298 163.078 325.574C159.256 325.868 155.332 326.018 151.354 326.018C147.364 326.018 143.446 325.868 139.612 325.574C136.066 325.304 132.598 324.926 129.22 324.422H129.214C128.884 323.018 128.536 321.56 128.17 320.048C130.402 320.438 132.67 320.774 134.962 321.056C139.012 321.554 143.164 321.86 147.4 321.992C148.24 322.01 149.08 322.034 149.932 322.046C150.172 322.046 150.424 322.058 150.664 322.058H151.654C152.11 322.058 152.566 322.058 153.022 322.046C160.594 321.974 167.92 321.296 174.904 320.09Z" stroke="#BBBBBB" stroke-miterlimit="10"/>
<path d="M191.422 316.046C191.422 316.214 191.416 316.376 191.404 316.538C191.308 317.87 190.954 319.124 190.372 320.252C190.264 320.486 190.144 320.702 190.006 320.918C185.992 322.058 181.786 323.018 177.4 323.786L177.094 323.84C177.424 322.436 177.772 320.984 178.138 319.478L178.678 319.376C183.094 318.482 187.354 317.36 191.422 316.046Z" stroke="#BBBBBB" stroke-miterlimit="10"/>
<path d="M200.71 370.76C200.596 369.938 199.984 369.224 199.09 369.044C198.034 368.816 196.996 369.506 196.672 370.52L196.444 371.264C196.414 371.216 196.39 371.168 196.372 371.12L195.292 368.636L194.89 367.706L190.072 356.558L189.664 355.628C189.508 355.25 189.484 354.866 189.58 354.506C189.706 354.038 190.024 353.618 190.492 353.336H190.498C190.648 353.246 190.804 353.174 190.984 353.114C191.104 353.078 191.224 353.048 191.344 353.03C191.488 353.006 191.632 352.994 191.776 352.994C192.508 352.994 193.204 353.3 193.624 353.822C193.738 353.954 193.822 354.104 193.888 354.254L193.978 354.464L199.12 366.338L199.456 367.118H199.462L200.602 369.746C200.746 370.088 200.776 370.436 200.71 370.76Z" stroke="#BBBBBB" stroke-miterlimit="10" stroke-linecap="round" stroke-linejoin="round"/>
<path d="M113.632 355.628L113.23 356.558L108.406 367.694L107.998 368.642L106.924 371.12C106.9 371.162 106.882 371.21 106.858 371.252L106.624 370.52C106.3 369.506 105.262 368.816 104.212 369.044C103.312 369.224 102.706 369.944 102.586 370.766C102.52 370.436 102.556 370.088 102.7 369.746L103.84 367.112L104.176 366.338L109.228 354.668C109.228 354.668 109.228 354.668 109.228 354.662L109.408 354.254C109.474 354.104 109.564 353.954 109.672 353.822C110.092 353.3 110.794 352.994 111.52 352.994C111.586 352.994 111.658 352.994 111.724 353C111.922 353.018 112.114 353.054 112.312 353.114C112.492 353.174 112.66 353.246 112.81 353.342C113.278 353.618 113.596 354.038 113.722 354.506C113.818 354.866 113.794 355.25 113.632 355.628Z" stroke="#BBBBBB" stroke-miterlimit="10" stroke-linecap="round" stroke-linejoin="round"/>
<path d="M190.072 356.558H113.23L113.632 355.628C113.794 355.25 113.818 354.866 113.722 354.506H189.58C189.484 354.866 189.508 355.25 189.664 355.628L190.072 356.558Z" stroke="#BBBBBB" stroke-miterlimit="10" stroke-linecap="round" stroke-linejoin="round"/>
<path d="M179.698 482.72L179.35 485.096C179.218 485.99 178.396 486.704 177.52 486.704H125.782C124.9 486.704 124.078 485.984 123.952 485.096L123.604 482.72C123.544 482.306 123.634 481.922 123.838 481.628C125.998 483.074 128.494 483.92 131.074 483.92H172.222C174.802 483.92 177.304 483.074 179.458 481.628C179.668 481.916 179.758 482.3 179.698 482.72Z" stroke="#BBBBBB" stroke-miterlimit="10"/>
<path d="M186.208 471.116C185.452 475.574 182.83 479.366 179.464 481.622C177.304 483.068 174.808 483.914 172.228 483.914H131.08C128.5 483.914 126.004 483.068 123.844 481.622C120.478 479.366 117.85 475.574 117.1 471.116L116.878 469.058C116.926 469.112 116.974 469.172 117.022 469.226C117.118 469.334 117.214 469.442 117.31 469.55C117.382 469.634 117.46 469.718 117.538 469.796C117.676 469.94 117.814 470.078 117.952 470.21C118.024 470.282 118.096 470.354 118.174 470.42C118.354 470.588 118.534 470.756 118.72 470.918C118.822 471.008 118.918 471.092 119.026 471.176C119.092 471.236 119.164 471.29 119.23 471.344C119.32 471.416 119.404 471.482 119.494 471.554C119.836 471.818 120.184 472.064 120.544 472.298C120.646 472.37 120.748 472.436 120.85 472.496C120.946 472.556 121.042 472.616 121.144 472.676C121.234 472.736 121.33 472.79 121.42 472.838C121.972 473.15 122.536 473.432 123.112 473.678C123.232 473.726 123.352 473.78 123.478 473.828C123.604 473.876 123.73 473.924 123.856 473.972C125.008 474.392 126.214 474.662 127.438 474.776C127.69 474.8 127.942 474.812 128.194 474.824C128.35 474.83 128.512 474.83 128.674 474.83H174.652C174.796 474.83 174.946 474.83 175.09 474.824C175.36 474.818 175.636 474.8 175.9 474.77C176.038 474.758 176.176 474.746 176.314 474.728C176.452 474.716 176.59 474.692 176.728 474.674C177.424 474.566 178.114 474.41 178.792 474.2C178.912 474.164 179.032 474.128 179.146 474.086C179.686 473.906 180.214 473.696 180.736 473.45C180.85 473.396 180.964 473.342 181.078 473.288C181.204 473.228 181.33 473.162 181.45 473.096C181.606 473.018 181.756 472.934 181.912 472.844C182.002 472.79 182.098 472.736 182.188 472.682C182.284 472.622 182.38 472.562 182.482 472.502C182.584 472.436 182.686 472.37 182.788 472.304C183.082 472.112 183.376 471.902 183.664 471.692C183.754 471.62 183.85 471.548 183.94 471.476C184.066 471.374 184.192 471.272 184.318 471.17C184.402 471.104 184.48 471.038 184.558 470.966C184.594 470.936 184.63 470.906 184.66 470.876C184.75 470.798 184.84 470.714 184.93 470.636C185.032 470.546 185.128 470.456 185.224 470.36C185.416 470.18 185.602 469.988 185.788 469.796C185.866 469.718 185.938 469.634 186.016 469.55C186.1 469.454 186.19 469.358 186.274 469.262C186.286 469.25 186.298 469.238 186.31 469.226V469.22C186.358 469.166 186.406 469.112 186.454 469.052L186.208 471.116Z" stroke="#BBBBBB" stroke-miterlimit="10"/>
<path d="M186.286 469.226C186.274 469.238 186.262 469.25 186.25 469.262C186.262 469.25 186.274 469.238 186.286 469.226Z" stroke="#BBBBBB" stroke-miterlimit="10"/>
<path d="M190.222 432.554C190.222 432.65 190.216 432.74 190.21 432.83C190.204 432.848 190.204 432.866 190.204 432.884C190.198 432.974 190.192 433.07 190.18 433.16L190.174 433.214C190.168 433.304 190.156 433.4 190.144 433.496C190.132 433.61 190.114 433.73 190.096 433.85L190.162 434.636L188.332 451.508C185.53 452.318 182.008 452.798 178.246 452.798H125.05C121.288 452.798 117.772 452.318 114.97 451.508L113.14 434.636L113.2 433.85C113.044 432.872 113.032 431.942 113.14 431.072V431.066C113.14 431.06 113.14 431.06 113.14 431.054C113.152 430.964 113.164 430.88 113.176 430.796C113.194 430.7 113.206 430.616 113.224 430.526C113.248 430.376 113.284 430.232 113.32 430.088C113.326 430.058 113.332 430.034 113.338 430.004C113.362 429.914 113.38 429.83 113.41 429.752C113.428 429.662 113.458 429.578 113.482 429.5C113.536 429.338 113.596 429.176 113.662 429.02C113.692 428.942 113.722 428.864 113.758 428.786C113.824 428.636 113.896 428.486 113.98 428.342C114.01 428.27 114.052 428.204 114.094 428.138C114.1 428.132 114.1 428.126 114.1 428.126C114.136 428.06 114.178 427.994 114.22 427.928C114.304 427.79 114.394 427.658 114.496 427.538C114.538 427.466 114.586 427.412 114.64 427.352C114.736 427.232 114.838 427.112 114.946 427.004C114.994 426.95 115.048 426.902 115.102 426.854C115.234 426.722 115.378 426.602 115.516 426.494C115.582 426.446 115.642 426.398 115.708 426.356C115.792 426.296 115.882 426.236 115.972 426.188C116.152 426.08 116.332 425.984 116.518 425.906C116.71 425.822 116.902 425.756 117.106 425.696C117.292 425.642 117.484 425.606 117.682 425.576C117.688 425.57 117.7 425.57 117.718 425.57C117.82 425.552 117.928 425.54 118.036 425.534C118.63 425.492 119.26 425.57 119.908 425.762L120.772 426.062L137.524 431.834C146.866 434.654 156.436 434.654 165.778 431.834L182.512 426.062L183.388 425.762C184.042 425.57 184.666 425.492 185.26 425.534C185.374 425.54 185.476 425.552 185.584 425.57C185.596 425.57 185.608 425.57 185.62 425.576C185.818 425.606 186.004 425.642 186.196 425.696C186.592 425.81 186.976 425.972 187.33 426.188C187.504 426.29 187.678 426.41 187.84 426.536C188.314 426.914 188.734 427.376 189.082 427.928C189.124 427.994 189.16 428.06 189.202 428.126C189.208 428.126 189.208 428.132 189.208 428.138C189.25 428.204 189.286 428.276 189.322 428.348C189.61 428.87 189.826 429.452 189.976 430.076C190.018 430.226 190.048 430.382 190.078 430.538C190.096 430.622 190.108 430.712 190.12 430.802C190.138 430.886 190.15 430.976 190.162 431.072C190.162 431.072 190.162 431.072 190.156 431.078C190.156 431.084 190.162 431.09 190.162 431.09C190.18 431.228 190.192 431.366 190.204 431.51C190.204 431.588 190.21 431.654 190.216 431.726C190.228 431.996 190.234 432.278 190.222 432.554Z" stroke="#BBBBBB" stroke-miterlimit="10"/>
<path d="M188.332 451.508L188.02 454.412L186.43 469.058C186.382 469.112 186.334 469.166 186.286 469.22V469.226C186.274 469.238 186.262 469.25 186.25 469.262C186.172 469.358 186.082 469.454 185.998 469.55C185.92 469.634 185.842 469.718 185.764 469.796C185.584 469.988 185.392 470.174 185.206 470.36C185.11 470.456 185.008 470.546 184.906 470.636C184.822 470.72 184.732 470.798 184.642 470.876C184.606 470.906 184.57 470.936 184.54 470.966C184.462 471.038 184.378 471.104 184.3 471.17C184.174 471.272 184.048 471.374 183.916 471.476C183.826 471.548 183.73 471.62 183.64 471.692C183.352 471.908 183.058 472.112 182.764 472.304C182.662 472.376 182.56 472.436 182.458 472.502C182.362 472.562 182.266 472.628 182.164 472.682C182.074 472.742 181.978 472.796 181.888 472.844C181.738 472.934 181.582 473.018 181.432 473.096C181.306 473.162 181.18 473.228 181.054 473.288C180.946 473.342 180.832 473.396 180.718 473.45C180.202 473.696 179.668 473.906 179.128 474.086C179.014 474.128 178.894 474.164 178.774 474.2C178.096 474.41 177.412 474.566 176.71 474.674C176.572 474.698 176.44 474.716 176.302 474.734C176.164 474.746 176.026 474.764 175.888 474.776C175.618 474.8 175.348 474.818 175.072 474.83C174.928 474.83 174.784 474.836 174.64 474.836H128.662C128.506 474.836 128.344 474.83 128.182 474.824C127.936 474.818 127.678 474.8 127.432 474.776C126.202 474.668 125.002 474.392 123.85 473.972C123.724 473.93 123.592 473.882 123.472 473.828C123.346 473.786 123.226 473.732 123.1 473.684C122.53 473.438 121.96 473.162 121.414 472.844C121.318 472.796 121.228 472.742 121.138 472.682C121.036 472.628 120.94 472.562 120.844 472.502C120.742 472.442 120.64 472.376 120.538 472.304C120.178 472.07 119.83 471.824 119.488 471.56C119.398 471.494 119.314 471.422 119.224 471.356C119.158 471.296 119.086 471.242 119.02 471.182C118.918 471.098 118.816 471.014 118.714 470.924C118.528 470.762 118.348 470.6 118.168 470.426C118.09 470.36 118.018 470.288 117.946 470.216C117.808 470.078 117.67 469.94 117.532 469.802C117.46 469.718 117.382 469.634 117.304 469.55C117.208 469.448 117.112 469.34 117.016 469.226C116.968 469.178 116.92 469.118 116.872 469.064L115.282 454.412L114.97 451.508C117.772 452.318 121.288 452.798 125.05 452.798H178.246C182.008 452.798 185.53 452.318 188.332 451.508Z" stroke="#BBBBBB" stroke-miterlimit="10"/>
<path d="M188.332 451.508L188.02 454.412C185.236 455.762 180.904 456.638 176.152 456.638H127.144C122.398 456.638 118.066 455.762 115.282 454.412L114.97 451.508C117.772 452.318 121.288 452.798 125.05 452.798H178.246C182.008 452.798 185.53 452.318 188.332 451.508Z" stroke="#BBBBBB" stroke-miterlimit="10"/>
<path d="M302.422 151.19C302.422 160.076 301.654 168.782 300.166 177.242C299.974 178.322 299.2 179.186 298.168 179.498C298.15 179.504 298.138 179.51 298.12 179.516C297.928 179.57 297.742 179.624 297.55 179.678C297.28 179.756 297.004 179.834 296.728 179.912C296.278 180.038 295.822 180.164 295.372 180.29C295.096 180.368 294.814 180.446 294.538 180.518C294.25 180.596 293.962 180.68 293.674 180.752C291.772 181.28 289.852 181.79 287.932 182.294C287.71 182.354 287.488 182.408 287.26 182.468C263.788 188.552 238.498 193.1 211.906 195.866H211.888C210.976 195.962 210.064 196.052 209.146 196.136C209.128 196.136 209.11 196.142 209.092 196.142C206.386 196.412 203.662 196.658 200.926 196.886V196.892C199.918 196.976 198.904 197.06 197.89 197.138C184.312 198.212 170.434 198.818 156.31 198.926C155.794 198.932 155.272 198.932 154.756 198.932C153.724 198.944 152.692 198.944 151.654 198.944C150.532 198.944 149.41 198.938 148.294 198.932C147.454 198.932 146.614 198.926 145.78 198.914C142.894 198.884 140.014 198.836 137.146 198.77C126.334 198.506 115.672 197.954 105.196 197.12C104.182 197.042 103.168 196.964 102.16 196.868C99.6819 196.664 97.2159 196.442 94.7559 196.202C94.5699 196.184 94.3899 196.172 94.2039 196.148C94.1859 196.148 94.1679 196.142 94.1499 196.142C93.2379 196.052 92.3199 195.962 91.4079 195.866C91.4019 195.866 91.4019 195.866 91.3959 195.866C75.1839 194.18 59.4579 191.828 44.3259 188.87C34.6419 186.992 25.2099 184.85 16.0479 182.474C15.8199 182.414 15.5979 182.36 15.3759 182.3C13.3659 181.778 11.3739 181.244 9.39988 180.698C9.18988 180.644 8.98588 180.584 8.77588 180.53C8.49988 180.458 8.21789 180.38 7.94189 180.302C7.41989 180.152 6.89189 180.008 6.36989 179.858V179.852C6.16589 179.798 5.95589 179.738 5.75189 179.678C5.55989 179.63 5.37388 179.57 5.18188 179.516C5.16388 179.516 5.15189 179.51 5.13389 179.498C4.09589 179.192 3.32189 178.322 3.14189 177.248C1.79189 169.568 1.02988 161.69 0.903879 153.656C0.885879 152.834 0.879883 152.018 0.879883 151.19C0.879883 133.736 3.86788 116.972 9.36388 101.384C9.81388 100.136 10.2699 98.876 10.7439 97.634C13.8099 89.636 17.5419 81.962 21.8739 74.684C23.4099 72.098 25.0239 69.56 26.7099 67.076C27.6339 65.72 28.5759 64.388 29.5359 63.062C31.7499 60.014 34.0839 57.056 36.5199 54.194C56.9619 30.128 84.8559 12.56 116.656 5.03002C126.514 2.69602 136.75 1.32202 147.25 1.02202C148.714 0.98002 150.178 0.968018 151.654 0.968018C163.702 0.968018 175.42 2.37202 186.646 5.03002C191.746 6.23602 196.744 7.70002 201.628 9.41002C218.482 15.314 233.974 24.11 247.492 35.216C256.24 42.398 264.16 50.546 271.078 59.48C271.996 60.668 272.896 61.868 273.778 63.068C274.714 64.364 275.632 65.666 276.532 66.992C279.676 71.606 282.568 76.418 285.19 81.392C285.676 82.31 286.15 83.228 286.612 84.158C287.23 85.382 287.83 86.624 288.412 87.872C289.774 90.794 291.046 93.764 292.222 96.782C298.816 113.654 302.422 132.002 302.422 151.19Z" stroke="#BBBBBB" stroke-miterlimit="10"/>
<path d="M113.566 51.536C118.492 57.368 115.768 67.784 105.736 74.906C96.3221 81.59 82.7201 81.542 76.0601 75.086C70.7261 69.962 72.2801 62.03 79.3541 57.332C81.1301 56.15 82.6061 55.928 83.6441 56.654C84.6881 57.386 84.3221 58.46 82.6361 59.678C77.2361 63.554 76.5761 69.17 81.2741 72.68C86.6741 76.742 96.1601 76.202 102.688 71.408C111.736 64.7 112.732 55.514 106.21 51.128C97.5041 45.326 81.0701 45.656 68.9201 53.834C54.5201 64.118 54.4961 81.296 68.9801 90.902C76.3481 95.732 85.5461 97.682 95.8661 97.652C103.114 97.64 110.578 97.58 118.162 97.562C118.696 97.562 119.23 97.538 119.764 97.562C121.66 97.664 122.8 98.618 122.758 100.064C122.722 101.51 121.534 102.482 119.59 102.494C114.658 102.542 109.768 102.536 104.956 102.548C104.896 102.686 90.5681 102.584 84.0581 101.546C69.7421 99.302 59.5961 92.978 55.0541 82.376C49.4861 69.422 56.9861 54.23 72.7661 47.942C88.9001 41.978 106.63 43.58 113.566 51.536Z" stroke="#BBBBBB" stroke-miterlimit="10"/>
<path d="M165.532 60.4461C174.316 65.8161 175.198 75.9981 166.282 82.6521C160.072 87.2901 149.074 87.1281 143.044 82.3041C141.676 81.2181 141.544 79.7961 142.678 78.8181C143.836 77.8341 145.594 77.7261 146.956 78.6921C150.568 81.2721 154.756 82.0881 159.262 80.5221C163.996 78.8901 166.324 75.7641 166.606 72.0321C167.062 65.4861 160.126 60.5061 151.45 59.9841C141.466 59.4201 132.598 63.7941 129.646 72.0621C127 79.5681 130.564 87.5541 139.36 92.5881C145.672 96.2181 152.926 97.5501 160.576 97.5741C173.212 97.6101 185.746 97.6461 197.83 97.7301C222.16 97.8801 244.618 98.1561 262.18 98.5641C264.31 98.6121 265.3 99.3921 265.306 100.928C265.3 102.422 264.37 103.106 262.3 103.082C248.698 102.95 232.102 102.83 213.952 102.758C213.952 102.752 213.952 102.74 213.952 102.734C197.188 102.662 179.086 102.644 160.798 102.608C150.502 102.602 140.962 100.466 133.102 94.9281C119.11 85.0641 119.998 68.6421 132.886 60.6681C142.42 54.734 155.968 54.6621 165.532 60.4461Z" stroke="#BBBBBB" stroke-miterlimit="10"/>
<path d="M178.924 111.122C186.454 111.11 193.876 111.086 201.124 111.068C201.76 111.068 202.402 111.062 203.002 111.206C204.442 111.554 205.18 112.448 205.036 113.708C204.904 114.962 204.016 115.766 202.516 115.964C201.946 116.042 201.364 116.006 200.794 116.012C187.756 116.102 174.136 116.126 160.408 116.174C151.966 116.204 144.07 117.884 137.512 122.318C126.262 129.926 126.094 142.622 135.808 149.684C143.308 155.12 154.906 155.246 162.394 150.02C168.016 146.06 168.238 139.016 162.328 134.738C157.954 131.558 150.868 131.768 146.824 135.2C143.884 137.678 143.968 141.434 146.89 143.708C148.882 145.268 151.942 145.58 154.348 144.5C156.844 143.384 157.39 141.362 155.644 139.556C155.338 139.244 154.972 138.914 154.834 138.542C154.432 137.432 154.804 136.448 156.172 135.842C157.612 135.194 158.908 135.506 159.994 136.388C163.87 139.496 163.24 144.638 158.926 147.29C152.248 151.376 142.39 149.21 139.444 142.634C136.558 136.142 142.714 128.75 152.428 127.838C163.222 126.794 172.504 133.478 172.546 141.608C172.57 150.05 164.47 156.092 153.82 157.304C141.394 158.672 129.598 154.196 124.654 144.122C119.08 132.668 126.742 119.162 143.254 113.744C148.834 111.89 154.696 111.176 160.672 111.146C166.792 111.122 172.888 111.134 178.924 111.122Z" stroke="#BBBBBB" stroke-miterlimit="10"/>
<path d="M112.114 111.116C112.408 111.116 112.696 111.128 112.99 111.164C114.706 111.404 115.762 112.472 115.66 113.846C115.57 115.154 114.46 116.066 112.762 116.078C108.952 116.096 105.16 116.048 100.114 116.012C93.4119 115.808 85.6419 116.096 78.6639 118.364C66.4239 122.306 59.0679 129.254 58.1799 139.856C57.1959 150.872 66.9879 161.714 79.8099 165.044C90.0759 167.756 100.33 166.79 106.402 162.488C112.42 158.24 111.73 149.798 103.66 143.084C103.294 142.784 102.892 142.508 102.538 142.208C101.386 141.218 101.29 139.97 102.298 139.124C103.258 138.332 105.01 138.332 106.264 139.232C107.26 139.952 108.202 140.744 109.054 141.56C118.888 151.142 117.694 161.69 108.592 166.058C97.5099 171.332 78.4659 170.99 64.6179 161.198C48.6819 149.072 49.6119 129.224 66.5019 118.412C74.3499 113.444 83.9799 111.254 94.7799 111.11C100.444 111.044 106.234 111.116 112.114 111.116Z" stroke="#BBBBBB" stroke-miterlimit="10"/>
<path d="M33.8619 82.49C38.2419 85.868 38.1219 93.284 33.8379 97.586C29.7219 101.66 24.0519 99.878 23.0739 94.676C22.6059 92.312 23.0379 90.116 24.4779 88.154C25.2339 87.128 26.2899 86.942 27.0399 87.638C27.8079 88.37 27.8259 89.54 27.1119 90.692C26.2539 92.066 26.1339 93.092 26.6739 94.088C27.2679 95.198 28.6599 95.75 29.8899 95.336C32.8599 94.34 34.1319 89.408 31.9599 86.81C29.6979 84.116 25.6839 84.392 23.3619 87.272C19.9899 91.544 20.3679 97.988 23.9439 101.468C25.9359 103.358 28.3839 103.982 31.1799 103.952C40.7079 103.862 52.2399 103.784 65.1099 103.73C67.5999 103.718 68.8479 104.492 68.8419 106.088C68.8419 107.69 67.5699 108.5 65.1039 108.494C58.4919 108.488 52.2279 108.458 46.4139 108.44C46.4139 108.44 46.4139 108.434 46.4139 108.422C40.9059 108.404 35.8059 108.386 31.1739 108.356C27.3699 108.332 24.1719 107.294 21.6519 104.594C17.3499 99.8 16.6539 91.622 20.3859 85.43C23.4159 80.558 29.5599 79.136 33.8619 82.49Z" stroke="#BBBBBB" stroke-miterlimit="10"/>
<path d="M228.178 75.854C229.174 79.574 227.122 83.576 223.318 85.214C219.718 86.774 214.954 86.108 211.546 83.54C207.652 80.618 206.932 75.872 209.866 73.22C210.946 72.236 212.404 72.134 213.73 72.95C214.966 73.706 215.344 75.008 214.612 76.04C213.31 77.858 213.442 79.118 215.116 80.306C216.994 81.644 219.718 81.728 221.344 80.504C223.954 78.548 223.588 74.876 220.6 72.596C216.862 69.758 211.276 69.506 208.042 72.068C203.716 75.476 204.082 81.974 209.104 86.198C212.734 89.246 217.102 90.464 221.734 90.56C231.844 90.77 241.378 90.986 250.108 91.268C250.528 91.28 250.948 91.28 251.356 91.388C252.49 91.706 253.27 92.798 253.198 93.896C253.126 95.138 252.166 95.924 250.684 95.888C246.058 95.792 241.204 95.696 236.14 95.606C236.212 95.498 224.44 95.468 218.128 94.958C209.38 94.262 201.994 88.43 199.87 81.518C197.56 73.91 202.558 67.142 210.61 66.164C218.266 65.204 226.498 69.524 228.178 75.854Z" stroke="#BBBBBB" stroke-miterlimit="10"/>
<path d="M215.8 110.996C227.038 110.942 237.658 110.882 247.306 110.816C249.094 110.804 250.162 111.734 250.126 113.144C250.084 114.542 248.962 115.454 247.162 115.484C242.338 115.574 237.268 115.646 232.012 115.712C226.75 115.778 221.284 115.838 215.668 115.886C213.526 115.898 212.272 115.028 212.254 113.552C212.236 112.028 213.616 111.008 215.8 110.996Z" stroke="#BBBBBB" stroke-miterlimit="10"/>
<path d="M266.872 110.624C268.234 110.624 269.098 111.614 269.032 112.904C268.966 114.158 268.09 115.022 266.758 115.076C265.336 115.13 263.878 115.148 262.39 115.178C262.39 115.184 262.39 115.184 262.39 115.196C260.938 115.226 259.456 115.28 257.932 115.286C256.456 115.286 255.58 114.422 255.616 113.042C255.658 111.692 256.6 110.762 258.07 110.732C261.142 110.672 264.076 110.63 266.872 110.624Z" stroke="#BBBBBB" stroke-miterlimit="10"/>
<path d="M282.772 110.438C283.612 110.492 284.092 111.494 284.032 112.64C283.972 113.72 283.432 114.482 282.586 114.572C281.992 114.632 281.38 114.626 280.762 114.65C280.144 114.674 279.502 114.728 278.854 114.71C277.924 114.698 277.294 113.948 277.234 112.832C277.174 111.656 277.78 110.588 278.704 110.504C280.12 110.384 281.488 110.366 282.772 110.438Z" stroke="#BBBBBB" stroke-miterlimit="10"/>
<path d="M191.416 384.794L194.56 370.232C194.692 369.632 194.944 369.092 195.292 368.636L196.372 371.12C196.39 371.168 196.414 371.216 196.444 371.264L195.472 374.324L192.784 382.868C192.538 383.654 192.046 384.326 191.416 384.794Z" stroke="#BBBBBB" stroke-miterlimit="10"/>
<path d="M202.636 371.096C202.636 371.378 202.606 371.672 202.546 371.96L190.552 427.526C190.468 427.052 190.348 426.602 190.192 426.176C190.192 426.176 190.192 426.176 190.192 426.17C189.382 423.956 187.684 422.492 185.584 422.384C185.014 422.36 184.414 422.432 183.79 422.624L183.208 422.828L190.54 388.868H193.942C194.224 388.826 194.5 388.73 194.734 388.586C195.16 388.346 195.502 387.938 195.652 387.44L197.128 382.76L200.632 371.66C200.698 371.45 200.728 371.246 200.728 371.048C200.728 370.952 200.722 370.862 200.71 370.766V370.76C200.776 370.436 200.746 370.088 200.602 369.746L199.462 367.118C201.352 367.55 202.636 369.224 202.636 371.096Z" stroke="#BBBBBB" stroke-miterlimit="10"/>
<path d="M200.728 371.048C200.728 371.246 200.698 371.45 200.632 371.66L197.128 382.76L195.652 387.44C195.502 387.938 195.16 388.346 194.734 388.586C194.5 388.73 194.224 388.826 193.942 388.868H109.36C109.078 388.826 108.796 388.73 108.562 388.586C108.136 388.346 107.794 387.938 107.65 387.44L106.174 382.772L102.664 371.66C102.598 371.45 102.568 371.246 102.568 371.048C102.568 370.958 102.574 370.868 102.586 370.778C102.586 370.772 102.586 370.772 102.586 370.766C102.706 369.944 103.312 369.224 104.212 369.044C105.262 368.816 106.3 369.506 106.624 370.52L106.858 371.252L107.824 374.336L110.518 382.868C110.764 383.648 111.238 384.308 111.862 384.776C112.516 385.28 113.338 385.568 114.208 385.568H189.088C189.952 385.568 190.762 385.286 191.416 384.794C192.046 384.326 192.538 383.654 192.784 382.868L195.472 374.324L196.444 371.264L196.672 370.52C196.996 369.506 198.034 368.816 199.09 369.044C199.984 369.224 200.596 369.938 200.71 370.76V370.766C200.722 370.862 200.728 370.952 200.728 371.048Z" stroke="#BBBBBB" stroke-miterlimit="10"/>
<path d="M111.862 384.776C111.238 384.308 110.764 383.648 110.518 382.868L107.824 374.336L106.858 371.252C106.882 371.21 106.9 371.162 106.924 371.12L107.998 368.642C108.34 369.098 108.592 369.638 108.724 370.232L111.862 384.776Z" stroke="#BBBBBB" stroke-miterlimit="10"/>
<path d="M190.564 430.916L190.162 434.636L190.096 433.85C190.114 433.73 190.132 433.61 190.144 433.496C190.156 433.4 190.168 433.304 190.174 433.214L190.18 433.16C190.192 433.07 190.198 432.974 190.204 432.884C190.204 432.866 190.204 432.848 190.21 432.83C190.216 432.74 190.222 432.65 190.222 432.554C190.234 432.278 190.228 431.996 190.216 431.726C190.21 431.654 190.204 431.588 190.204 431.51C190.192 431.366 190.18 431.228 190.162 431.09C190.162 431.09 190.156 431.084 190.156 431.078C190.162 431.072 190.162 431.072 190.162 431.072C190.15 430.976 190.138 430.886 190.12 430.802C190.108 430.712 190.096 430.622 190.078 430.538C190.048 430.382 190.018 430.226 189.976 430.076C189.826 429.452 189.61 428.87 189.322 428.348C189.286 428.276 189.25 428.204 189.208 428.138C189.208 428.132 189.208 428.126 189.202 428.126C189.16 428.06 189.124 427.994 189.082 427.928C188.734 427.376 188.314 426.914 187.84 426.536C187.678 426.41 187.504 426.29 187.33 426.188C186.976 425.972 186.592 425.81 186.196 425.696C186.004 425.642 185.818 425.606 185.62 425.576C185.608 425.57 185.596 425.57 185.584 425.57C185.476 425.552 185.374 425.54 185.26 425.534C184.666 425.492 184.042 425.57 183.388 425.762L182.512 426.062L165.778 431.834C156.436 434.654 146.866 434.654 137.524 431.834L120.772 426.062L119.908 425.762C119.26 425.57 118.63 425.492 118.036 425.534C117.928 425.54 117.82 425.552 117.718 425.57C117.7 425.57 117.688 425.57 117.682 425.576C117.484 425.606 117.292 425.642 117.106 425.696C116.902 425.756 116.71 425.822 116.518 425.906C116.332 425.984 116.152 426.08 115.972 426.188C115.882 426.236 115.792 426.296 115.708 426.356C115.642 426.398 115.582 426.446 115.516 426.494C115.378 426.602 115.234 426.722 115.102 426.854C115.048 426.902 114.994 426.95 114.946 427.004C114.838 427.112 114.736 427.232 114.64 427.352C114.586 427.412 114.538 427.466 114.496 427.538C114.394 427.658 114.304 427.79 114.22 427.928C114.178 427.994 114.136 428.06 114.1 428.126C114.1 428.126 114.1 428.132 114.094 428.138C114.052 428.204 114.01 428.27 113.98 428.342C113.896 428.486 113.824 428.636 113.758 428.786C113.722 428.864 113.692 428.942 113.662 429.02C113.596 429.176 113.536 429.338 113.482 429.5C113.458 429.578 113.428 429.662 113.41 429.752C113.38 429.83 113.362 429.914 113.338 430.004C113.332 430.034 113.326 430.058 113.32 430.088C113.284 430.232 113.248 430.376 113.224 430.526C113.206 430.616 113.194 430.7 113.176 430.796C113.164 430.88 113.152 430.964 113.14 431.054C113.14 431.06 113.14 431.06 113.14 431.066V431.072C113.032 431.942 113.044 432.872 113.2 433.85L113.14 434.636L112.738 430.916C112.546 429.728 112.558 428.6 112.738 427.574V427.568C112.822 427.076 112.948 426.608 113.11 426.17C113.92 423.956 115.618 422.486 117.718 422.384C118.288 422.36 118.888 422.438 119.506 422.624L120.076 422.822L137.35 428.852C146.806 431.744 156.49 431.744 165.952 428.852L183.208 422.828L183.79 422.624C184.414 422.432 185.014 422.36 185.584 422.384C187.684 422.492 189.382 423.956 190.192 426.17C190.192 426.176 190.192 426.176 190.192 426.176C190.348 426.602 190.468 427.052 190.552 427.526C190.738 428.564 190.756 429.71 190.564 430.916Z" stroke="#BBBBBB" stroke-miterlimit="10"/>
<path d="M120.076 422.822L119.506 422.624C118.888 422.438 118.288 422.36 117.718 422.384C115.618 422.486 113.92 423.956 113.11 426.17C112.948 426.608 112.822 427.076 112.738 427.568L100.738 371.96C100.678 371.672 100.648 371.384 100.648 371.096C100.648 369.224 101.944 367.538 103.84 367.112L102.7 369.746C102.556 370.088 102.52 370.436 102.586 370.766C102.586 370.772 102.586 370.772 102.586 370.778C102.574 370.868 102.568 370.958 102.568 371.048C102.568 371.246 102.598 371.45 102.664 371.66L106.174 382.772L107.65 387.44C107.794 387.938 108.136 388.346 108.562 388.586C108.796 388.73 109.078 388.826 109.36 388.868H112.744L120.076 422.822Z" stroke="#BBBBBB" stroke-miterlimit="10"/>
<path d="M296.758 180.524C296.674 181.088 287.356 237.482 246.208 286.562C211.606 327.818 197.524 348.908 193.978 354.464L193.888 354.254C193.822 354.104 193.738 353.954 193.624 353.822C193.204 353.3 192.508 352.994 191.776 352.994C191.632 352.994 191.488 353.006 191.344 353.03C194.794 347.594 208.918 326.354 243.904 284.63C282.04 239.156 292.48 187.34 293.674 180.752C293.962 180.68 294.25 180.596 294.538 180.518C294.814 180.446 295.096 180.368 295.372 180.29C295.822 180.164 296.278 180.038 296.728 179.912C296.782 180.11 296.794 180.314 296.758 180.524Z" stroke="#BBBBBB" stroke-miterlimit="10"/>
<path d="M200.926 196.892C199.138 217.274 195.04 253.244 186.55 285.974C183.136 299.15 180.364 310.262 178.138 319.478C177.772 320.984 177.424 322.436 177.094 323.84C172.816 341.774 170.842 351.542 170.266 354.506H167.218C167.614 352.424 169.48 342.902 173.884 324.368C174.208 322.994 174.55 321.566 174.904 320.09C177.184 310.604 180.064 299.036 183.646 285.218C192.016 252.944 196.09 217.49 197.89 197.138C198.67 197.078 199.45 197.012 200.224 196.952C200.458 196.928 200.692 196.91 200.926 196.892Z" stroke="#BBBBBB" stroke-miterlimit="10"/>
<path d="M111.724 353C111.658 352.994 111.586 352.994 111.52 352.994C110.794 352.994 110.092 353.3 109.672 353.822C109.564 353.954 109.474 354.104 109.408 354.254L109.228 354.662C105.91 349.43 91.9119 328.334 56.8779 286.562C15.7239 237.482 6.41194 181.088 6.32194 180.524C6.28594 180.29 6.30395 180.068 6.36995 179.858C6.89195 180.008 7.41994 180.152 7.94194 180.302C8.21794 180.38 8.49993 180.458 8.77593 180.53C8.98593 180.584 9.18994 180.644 9.39994 180.698C10.5519 187.04 20.9319 239.024 59.1759 284.63C94.0959 326.276 108.238 347.516 111.724 353Z" stroke="#BBBBBB" stroke-miterlimit="10"/>
<path d="M135.868 354.506H132.814C132.238 351.542 130.27 341.804 126.01 323.912C125.668 322.472 125.308 320.978 124.936 319.43C122.716 310.226 119.944 299.126 116.536 285.974C108.04 253.232 103.948 217.25 102.16 196.868C103.168 196.964 104.182 197.042 105.196 197.12C106.99 217.466 111.064 252.938 119.44 285.218C123.016 299.018 125.89 310.568 128.17 320.048C128.536 321.56 128.884 323.018 129.214 324.422H129.22C133.606 342.92 135.472 352.424 135.868 354.506Z" stroke="#BBBBBB" stroke-miterlimit="10"/>
</svg>
