<?xml version="1.0" encoding="utf-8"?>
<!-- Generator: Adobe Illustrator 25.2.3, SVG Export Plug-In . SVG Version: 6.00 Build 0)  -->
<svg version="1.1" id="Layer_1" xmlns="http://www.w3.org/2000/svg" xmlns:xlink="http://www.w3.org/1999/xlink" x="0px" y="0px"
	 viewBox="0 0 295.2 60.4" style="enable-background:new 0 0 295.2 60.4;" xml:space="preserve">
<style type="text/css">
	.st0{fill:#FFFFFF;}
	.st1{fill:#E25822;}
</style>
<g>
	<path class="st0" d="M4.3,58.4c-0.7,0-1.2-0.2-1.7-0.7c-0.4-0.4-0.7-1-0.7-1.7V13.9c0-0.7,0.2-1.2,0.7-1.7c0.4-0.4,1-0.7,1.7-0.7
		h28.1c0.6,0,1.2,0.2,1.6,0.7c0.5,0.4,0.7,0.9,0.7,1.6c0,0.6-0.2,1.1-0.7,1.6c-0.4,0.4-1,0.7-1.6,0.7H6.7v16.6h18.8
		c0.7,0,1.2,0.2,1.7,0.7c0.4,0.4,0.7,1,0.7,1.6c0,0.6-0.2,1.2-0.7,1.6c-0.4,0.4-1,0.7-1.7,0.7H6.7v16.7h25.8c0.6,0,1.2,0.2,1.6,0.7
		c0.5,0.4,0.7,1,0.7,1.6c0,0.7-0.2,1.2-0.7,1.7c-0.4,0.4-1,0.6-1.6,0.6H4.3z M45.9,58.4c-0.7,0-1.2-0.2-1.7-0.7
		c-0.4-0.4-0.7-1-0.7-1.7V13.9c0-0.7,0.2-1.2,0.7-1.7c0.4-0.4,1-0.7,1.7-0.7h12c3,0,5.6,0.7,7.9,2c2.3,1.3,4.1,3.1,5.3,5.3
		s1.9,4.9,1.9,7.9c0,2.9-0.6,5.5-1.9,7.8c-1.3,2.2-3.1,4-5.3,5.3c-2.3,1.3-4.9,1.9-7.9,1.9h-9.7v14.2c0,0.7-0.2,1.2-0.7,1.7
		C47.1,58.2,46.6,58.4,45.9,58.4z M48.2,37.4h9.7c2,0,3.9-0.4,5.5-1.3c1.6-0.9,2.8-2.2,3.7-3.8c0.9-1.6,1.4-3.4,1.4-5.5
		c0-2.1-0.5-4-1.4-5.6c-0.9-1.6-2.1-2.9-3.7-3.8c-1.6-0.9-3.4-1.4-5.5-1.4h-9.7V37.4z M82.6,58.4c-0.7,0-1.2-0.2-1.7-0.7
		c-0.4-0.4-0.7-1-0.7-1.7V13.9c0-0.7,0.2-1.2,0.7-1.7c0.4-0.4,1-0.7,1.7-0.7s1.2,0.2,1.7,0.7c0.4,0.4,0.7,1,0.7,1.7v42.2
		c0,0.7-0.2,1.2-0.7,1.7C83.9,58.2,83.3,58.4,82.6,58.4z M136.3,57.7l-13-12.9c-0.5-0.5-0.7-1-0.7-1.6c0-0.6,0.2-1.1,0.7-1.6
		c0.4-0.4,1-0.7,1.6-0.7c0.6,0,1.1,0.2,1.6,0.7l13,13c0.4,0.5,0.7,1,0.7,1.6c0,0.6-0.2,1.1-0.7,1.6c-0.5,0.5-1,0.7-1.6,0.7
		C137.3,58.4,136.8,58.2,136.3,57.7z M118.6,59c-3.5,0-6.7-0.6-9.6-1.8c-2.9-1.2-5.5-2.9-7.6-5c-2.1-2.2-3.8-4.7-5-7.6
		c-1.2-2.9-1.7-6.1-1.7-9.6c0-3.4,0.6-6.6,1.7-9.5c1.2-2.9,2.9-5.5,5-7.6c2.2-2.2,4.7-3.8,7.6-5s6.1-1.8,9.6-1.8
		c3.4,0,6.6,0.6,9.5,1.8c2.9,1.2,5.5,2.9,7.6,5s3.8,4.7,5,7.6c1.2,2.9,1.8,6.1,1.8,9.5c0,3.5-0.6,6.7-1.8,9.6
		c-1.2,2.9-2.8,5.5-5,7.6c-2.2,2.2-4.7,3.8-7.6,5C125.3,58.4,122.1,59,118.6,59z M118.6,54.6c2.8,0,5.3-0.5,7.7-1.4
		c2.4-1,4.4-2.4,6.1-4.1c1.8-1.8,3.1-3.9,4.1-6.2c1-2.4,1.4-5,1.4-7.8c0-2.8-0.5-5.3-1.4-7.7c-1-2.4-2.3-4.5-4.1-6.2
		c-1.7-1.8-3.8-3.2-6.1-4.1c-2.4-1-4.9-1.5-7.7-1.5c-2.8,0-5.4,0.5-7.7,1.5c-2.4,1-4.4,2.3-6.2,4.1c-1.7,1.8-3.1,3.8-4,6.2
		c-1,2.4-1.4,4.9-1.4,7.7c0,2.8,0.5,5.4,1.4,7.8c1,2.4,2.3,4.4,4,6.2c1.8,1.8,3.8,3.1,6.2,4.1C113.3,54.1,115.8,54.6,118.6,54.6z
		 M170.9,59.4c-3.6,0-6.9-0.7-9.7-2.1c-2.8-1.4-5-3.3-6.6-5.8c-1.6-2.5-2.3-5.3-2.3-8.5v-29c0-0.7,0.2-1.2,0.7-1.7
		c0.4-0.4,1-0.7,1.7-0.7c0.7,0,1.2,0.2,1.7,0.7c0.4,0.4,0.7,1,0.7,1.7v29c0,2.4,0.6,4.4,1.7,6.2c1.2,1.8,2.9,3.2,5,4.3
		c2.1,1,4.5,1.5,7.3,1.5c2.7,0,5.1-0.5,7.1-1.5c2.1-1,3.7-2.5,4.9-4.3c1.2-1.8,1.8-3.9,1.8-6.2v-29c0-0.7,0.2-1.2,0.7-1.7
		c0.4-0.4,1-0.7,1.7-0.7c0.7,0,1.3,0.2,1.7,0.7c0.4,0.4,0.7,1,0.7,1.7v29c0,3.2-0.8,6-2.4,8.5c-1.6,2.5-3.7,4.4-6.5,5.8
		C177.7,58.7,174.5,59.4,170.9,59.4z M203.7,58.4c-0.7,0-1.2-0.2-1.7-0.7c-0.4-0.4-0.7-1-0.7-1.7V13.9c0-0.7,0.2-1.2,0.7-1.7
		c0.4-0.4,1-0.7,1.7-0.7h28.1c0.6,0,1.2,0.2,1.6,0.7c0.5,0.4,0.7,0.9,0.7,1.6c0,0.6-0.2,1.1-0.7,1.6c-0.4,0.4-1,0.7-1.6,0.7h-25.8
		v16.6h18.8c0.7,0,1.2,0.2,1.7,0.7c0.4,0.4,0.7,1,0.7,1.6c0,0.6-0.2,1.2-0.7,1.6s-1,0.7-1.7,0.7h-18.8v16.7h25.8
		c0.6,0,1.2,0.2,1.6,0.7c0.5,0.4,0.7,1,0.7,1.6c0,0.7-0.2,1.2-0.7,1.7c-0.4,0.4-1,0.6-1.6,0.6H203.7z"/>
	<path class="st0" d="M2.7,57.8l0.7-0.7l0,0L2.7,57.8z M2.7,12.2l0.7,0.7l0,0L2.7,12.2z M34.1,12.2l-0.7,0.7c0,0,0,0,0.1,0.1
		L34.1,12.2z M34.1,15.4l-0.7-0.7c0,0,0,0,0,0L34.1,15.4z M6.7,16.1v-1c-0.6,0-1,0.4-1,1H6.7z M6.7,32.6h-1c0,0.6,0.4,1,1,1V32.6z
		 M27.1,33.3l0.7-0.7l0,0L27.1,33.3z M27.1,36.5l0.7,0.7l0,0L27.1,36.5z M6.7,37.2v-1c-0.6,0-1,0.4-1,1H6.7z M6.7,53.9h-1
		c0,0.6,0.4,1,1,1V53.9z M34.1,54.6l-0.7,0.7c0,0,0,0,0,0L34.1,54.6z M34.1,57.8l0.7,0.7l0,0L34.1,57.8z M4.3,57.4
		c-0.4,0-0.7-0.1-1-0.4L2,58.5c0.6,0.6,1.5,1,2.4,1V57.4z M3.4,57.1c-0.2-0.2-0.4-0.5-0.4-1H1c0,0.9,0.3,1.7,1,2.4L3.4,57.1z
		 M3,56.1V13.9H1v42.2H3z M3,13.9c0-0.4,0.1-0.7,0.4-1L2,11.5c-0.6,0.6-1,1.5-1,2.4H3z M3.4,12.9c0.2-0.2,0.5-0.4,1-0.4v-2
		c-0.9,0-1.7,0.3-2.4,1L3.4,12.9z M4.3,12.6h28.1v-2H4.3V12.6z M32.5,12.6c0.4,0,0.7,0.1,0.9,0.4l1.4-1.4c-0.6-0.6-1.4-1-2.3-1V12.6
		z M33.5,13c0.2,0.2,0.4,0.4,0.4,0.9h2c0-0.9-0.3-1.8-1.1-2.4L33.5,13z M33.8,13.8c0,0.3-0.1,0.6-0.4,0.8l1.4,1.5
		c0.7-0.6,1-1.4,1-2.3H33.8z M33.4,14.7c-0.2,0.2-0.5,0.4-0.9,0.4v2c0.9,0,1.7-0.3,2.3-1L33.4,14.7z M32.5,15.1H6.7v2h25.8V15.1z
		 M5.7,16.1v16.6h2V16.1H5.7z M6.7,33.6h18.8v-2H6.7V33.6z M25.5,33.6c0.4,0,0.7,0.1,1,0.4l1.4-1.4c-0.6-0.6-1.5-1-2.4-1V33.6z
		 M26.4,34c0.2,0.2,0.4,0.5,0.4,0.9h2c0-0.9-0.3-1.7-1-2.3L26.4,34z M26.8,34.9c0,0.4-0.1,0.7-0.4,0.9l1.4,1.4c0.6-0.6,1-1.4,1-2.3
		H26.8z M26.4,35.8c-0.2,0.2-0.5,0.4-1,0.4v2c0.9,0,1.7-0.3,2.4-1L26.4,35.8z M25.5,36.2H6.7v2h18.8V36.2z M5.7,37.2v16.7h2V37.2
		H5.7z M6.7,54.9h25.8v-2H6.7V54.9z M32.5,54.9c0.4,0,0.7,0.1,0.9,0.4l1.4-1.4c-0.6-0.6-1.4-1-2.3-1V54.9z M33.4,55.3
		c0.3,0.3,0.4,0.5,0.4,0.8h2c0-0.9-0.4-1.7-1-2.3L33.4,55.3z M33.8,56.1c0,0.4-0.1,0.7-0.4,0.9l1.4,1.5c0.7-0.6,1-1.5,1-2.4H33.8z
		 M33.4,57.1c-0.2,0.2-0.5,0.3-0.9,0.3v2c0.9,0,1.7-0.3,2.3-0.9L33.4,57.1z M32.5,57.4H4.3v2h28.1V57.4z M44.2,57.8l0.7-0.7
		L44.2,57.8z M44.2,12.2l0.7,0.7l0,0L44.2,12.2z M65.7,13.5l-0.5,0.9l0,0L65.7,13.5z M71.1,34.6l0.9,0.5l0,0L71.1,34.6z M65.7,39.9
		l0.5,0.9l0,0L65.7,39.9z M48.2,41.9v-1c-0.6,0-1,0.4-1,1H48.2z M47.6,57.8l0.7,0.7L47.6,57.8z M48.2,37.4h-1c0,0.6,0.4,1,1,1V37.4z
		 M63.3,36l0.5,0.9c0,0,0,0,0,0L63.3,36z M67.1,32.3l-0.9-0.5c0,0,0,0,0,0L67.1,32.3z M67.1,21.2l-0.9,0.5c0,0,0,0,0,0L67.1,21.2z
		 M63.3,17.4l-0.5,0.9L63.3,17.4z M48.2,16.1v-1c-0.6,0-1,0.4-1,1H48.2z M45.9,57.4c-0.4,0-0.7-0.1-1-0.4l-1.4,1.4
		c0.6,0.6,1.5,1,2.4,1V57.4z M44.9,57.1c-0.2-0.2-0.4-0.5-0.4-1h-2c0,0.9,0.3,1.7,1,2.4L44.9,57.1z M44.5,56.1V13.9h-2v42.2H44.5z
		 M44.5,13.9c0-0.4,0.1-0.7,0.4-1l-1.4-1.4c-0.6,0.6-1,1.5-1,2.4H44.5z M44.9,12.9c0.2-0.2,0.5-0.4,1-0.4v-2c-0.9,0-1.7,0.3-2.4,1
		L44.9,12.9z M45.9,12.6h12v-2h-12V12.6z M57.9,12.6c2.8,0,5.2,0.6,7.4,1.8l1-1.7c-2.5-1.4-5.2-2.1-8.4-2.1V12.6z M65.3,14.4
		c2.1,1.2,3.8,2.8,5,5l1.7-1c-1.4-2.4-3.3-4.4-5.7-5.7L65.3,14.4z M70.2,19.4c1.2,2.1,1.8,4.6,1.8,7.4h2c0-3.1-0.7-6-2-8.4
		L70.2,19.4z M72,26.8c0,2.8-0.6,5.2-1.8,7.3l1.7,1c1.4-2.4,2-5.2,2-8.3H72z M70.2,34.1c-1.2,2.1-2.8,3.7-5,5l1,1.7
		c2.4-1.4,4.3-3.3,5.7-5.7L70.2,34.1z M65.3,39.1c-2.1,1.2-4.6,1.8-7.4,1.8v2c3.1,0,5.9-0.7,8.3-2L65.3,39.1z M57.9,40.9h-9.7v2h9.7
		V40.9z M47.2,41.9v14.2h2V41.9H47.2z M47.2,56.1c0,0.4-0.1,0.7-0.4,1l1.4,1.4c0.6-0.6,1-1.5,1-2.4H47.2z M46.9,57.1
		c-0.2,0.2-0.5,0.4-1,0.4v2c0.9,0,1.7-0.3,2.4-1L46.9,57.1z M48.2,38.4h9.7v-2h-9.7V38.4z M57.9,38.4c2.2,0,4.2-0.5,5.9-1.4l-1-1.8
		c-1.4,0.8-3.1,1.2-5,1.2V38.4z M63.8,36.9c1.8-1,3.1-2.4,4.1-4.2l-1.8-1c-0.8,1.4-1.9,2.6-3.3,3.4L63.8,36.9z M67.9,32.8
		c1-1.8,1.5-3.8,1.5-6h-2c0,1.9-0.4,3.5-1.2,5L67.9,32.8z M69.4,26.8c0-2.3-0.5-4.3-1.5-6.1l-1.7,1c0.8,1.4,1.2,3.1,1.2,5.1H69.4z
		 M67.9,20.7c-1-1.8-2.3-3.2-4.1-4.2l-1,1.7c1.4,0.8,2.6,2,3.3,3.4L67.9,20.7z M63.8,16.6c-1.8-1-3.8-1.5-6-1.5v2
		c1.9,0,3.5,0.4,5,1.2L63.8,16.6z M57.9,15.1h-9.7v2h9.7V15.1z M47.2,16.1v21.3h2V16.1H47.2z M80.9,57.8l0.7-0.7L80.9,57.8z
		 M80.9,12.2l0.7,0.7l0,0L80.9,12.2z M84.3,12.2l0.7-0.7l0,0L84.3,12.2z M84.3,57.8l0.7,0.7L84.3,57.8z M82.6,57.4
		c-0.4,0-0.7-0.1-1-0.4l-1.4,1.4c0.6,0.6,1.5,1,2.4,1V57.4z M81.6,57.1c-0.2-0.2-0.4-0.5-0.4-1h-2c0,0.9,0.3,1.7,1,2.4L81.6,57.1z
		 M81.3,56.1V13.9h-2v42.2H81.3z M81.3,13.9c0-0.4,0.1-0.7,0.4-1l-1.4-1.4c-0.6,0.6-1,1.5-1,2.4H81.3z M81.6,12.9
		c0.2-0.2,0.5-0.4,1-0.4v-2c-0.9,0-1.7,0.3-2.4,1L81.6,12.9z M82.6,12.6c0.4,0,0.7,0.1,1,0.4l1.4-1.4c-0.6-0.6-1.5-1-2.4-1V12.6z
		 M83.6,12.9c0.2,0.2,0.4,0.5,0.4,1h2c0-0.9-0.3-1.7-1-2.4L83.6,12.9z M84,13.9v42.2h2V13.9H84z M84,56.1c0,0.4-0.1,0.7-0.4,1
		l1.4,1.4c0.6-0.6,1-1.5,1-2.4H84z M83.6,57.1c-0.2,0.2-0.5,0.4-1,0.4v2c0.9,0,1.7-0.3,2.4-1L83.6,57.1z M136.3,57.7L137,57l0,0
		L136.3,57.7z M123.3,44.8l-0.7,0.7l0,0L123.3,44.8z M123.3,41.6l0.7,0.7l0,0L123.3,41.6z M126.5,41.6l0.7-0.7c0,0,0,0,0,0
		L126.5,41.6z M139.5,54.5l0.7-0.7c0,0,0,0,0,0L139.5,54.5z M139.5,57.7l0.7,0.7c0,0,0,0,0,0L139.5,57.7z M109,57.2l0.4-0.9
		L109,57.2z M101.4,52.2l-0.7,0.7l0,0L101.4,52.2z M96.4,44.6l-0.9,0.4l0,0L96.4,44.6z M96.4,25.4L95.5,25l0,0L96.4,25.4z
		 M101.4,17.8l-0.7-0.7l0,0L101.4,17.8z M109,12.8l-0.4-0.9l0,0L109,12.8z M128.2,12.8l0.4-0.9l0,0L128.2,12.8z M135.8,17.8l0.7-0.7
		l0,0L135.8,17.8z M140.8,25.4l-0.9,0.4l0,0L140.8,25.4z M140.8,44.6l-0.9-0.4l0,0L140.8,44.6z M135.8,52.2l0.7,0.7L135.8,52.2z
		 M128.2,57.2l-0.4-0.9L128.2,57.2z M126.3,53.1l0.4,0.9c0,0,0,0,0,0L126.3,53.1z M132.4,49l-0.7-0.7v0L132.4,49z M136.5,42.8
		l0.9,0.4l0,0L136.5,42.8z M136.5,27.3l-0.9,0.4l0,0L136.5,27.3z M132.4,21l-0.7,0.7c0,0,0,0,0,0L132.4,21z M126.3,16.9l-0.4,0.9
		c0,0,0,0,0,0L126.3,16.9z M110.9,16.9l0.4,0.9c0,0,0,0,0,0L110.9,16.9z M104.7,21l-0.7-0.7v0L104.7,21z M100.7,27.3l0.9,0.4l0,0
		L100.7,27.3z M100.7,42.8l-0.9,0.4l0,0L100.7,42.8z M104.7,49l-0.7,0.7c0,0,0,0,0,0L104.7,49z M110.9,53.1l-0.4,0.9c0,0,0,0,0,0
		L110.9,53.1z M137,57l-13-12.9l-1.4,1.4l13,12.9L137,57z M124,44.1c-0.3-0.3-0.4-0.6-0.4-0.9h-2c0,0.9,0.4,1.7,1,2.3L124,44.1z
		 M123.6,43.2c0-0.3,0.1-0.6,0.4-0.9l-1.4-1.4c-0.6,0.6-1,1.4-1,2.3H123.6z M124,42.3c0.3-0.3,0.5-0.4,0.9-0.4v-2
		c-0.9,0-1.6,0.3-2.3,1L124,42.3z M124.9,41.9c0.3,0,0.6,0.1,0.9,0.4l1.4-1.5c-0.6-0.6-1.4-0.9-2.3-0.9V41.9z M125.8,42.3l13,13
		l1.4-1.4l-13-13L125.8,42.3z M138.8,55.2c0.3,0.3,0.4,0.6,0.4,0.9h2c0-0.9-0.3-1.6-0.9-2.3L138.8,55.2z M139.2,56.1
		c0,0.3-0.1,0.6-0.4,0.9l1.5,1.4c0.6-0.6,0.9-1.4,0.9-2.2H139.2z M138.8,57c-0.3,0.3-0.6,0.4-0.9,0.4v2c0.9,0,1.7-0.4,2.3-1
		L138.8,57z M137.9,57.4c-0.3,0-0.6-0.1-0.9-0.4l-1.4,1.4c0.6,0.6,1.4,1,2.3,1V57.4z M118.6,58c-3.4,0-6.4-0.6-9.2-1.7l-0.8,1.8
		c3.1,1.3,6.4,1.9,10,1.9V58z M109.4,56.3c-2.8-1.2-5.2-2.8-7.3-4.8l-1.4,1.4c2.3,2.3,4.9,4,7.9,5.3L109.4,56.3z M102.1,51.5
		c-2-2.1-3.6-4.5-4.8-7.3l-1.8,0.8c1.2,3,3,5.7,5.2,7.9L102.1,51.5z M97.4,44.2c-1.1-2.8-1.7-5.9-1.7-9.2h-2c0,3.6,0.6,6.9,1.8,10
		L97.4,44.2z M95.7,35c0-3.3,0.6-6.4,1.7-9.2l-1.9-0.7c-1.2,3-1.8,6.4-1.8,9.9H95.7z M97.4,25.8c1.2-2.8,2.7-5.2,4.8-7.3l-1.4-1.4
		c-2.2,2.3-3.9,4.9-5.2,7.9L97.4,25.8z M102.1,18.5c2.1-2.1,4.5-3.7,7.3-4.8l-0.8-1.8c-3,1.2-5.7,3-7.9,5.3L102.1,18.5z M109.4,13.7
		c2.8-1.1,5.9-1.7,9.2-1.7v-2c-3.6,0-6.9,0.6-10,1.9L109.4,13.7z M118.6,12c3.3,0,6.4,0.6,9.2,1.7l0.8-1.8c-3.1-1.3-6.4-1.9-9.9-1.9
		V12z M127.8,13.7c2.8,1.2,5.2,2.8,7.3,4.8l1.4-1.4c-2.3-2.3-4.9-4-7.9-5.3L127.8,13.7z M135.1,18.5c2.1,2.1,3.6,4.5,4.8,7.3
		l1.9-0.7c-1.2-3-2.9-5.7-5.2-8L135.1,18.5z M139.9,25.8c1.1,2.8,1.7,5.8,1.7,9.2h2c0-3.6-0.6-6.9-1.9-9.9L139.9,25.8z M141.6,35
		c0,3.4-0.6,6.4-1.7,9.2l1.8,0.8c1.3-3.1,1.9-6.4,1.9-10H141.6z M139.9,44.2c-1.1,2.8-2.7,5.2-4.8,7.3l1.4,1.4c2.3-2.3,4-4.9,5.2-8
		L139.9,44.2z M135.1,51.5c-2.1,2.1-4.5,3.7-7.3,4.8l0.8,1.8c3-1.2,5.7-3,7.9-5.3L135.1,51.5z M127.8,56.3c-2.8,1.1-5.8,1.7-9.2,1.7
		v2c3.6,0,6.9-0.6,9.9-1.9L127.8,56.3z M118.6,55.6c2.9,0,5.6-0.5,8.1-1.5l-0.8-1.9c-2.2,0.9-4.7,1.4-7.3,1.4V55.6z M126.7,54.1
		c2.5-1,4.6-2.5,6.4-4.4l-1.4-1.4c-1.6,1.7-3.6,3-5.8,3.9L126.7,54.1z M133.2,49.7c1.9-1.9,3.3-4.1,4.3-6.6l-1.9-0.8
		c-0.9,2.2-2.2,4.2-3.9,5.9L133.2,49.7z M137.4,43.1c1-2.5,1.5-5.3,1.5-8.2h-2c0,2.7-0.5,5.2-1.4,7.4L137.4,43.1z M139,35
		c0-2.9-0.5-5.6-1.5-8.1l-1.9,0.8c0.9,2.2,1.4,4.7,1.4,7.3H139z M137.4,26.9c-1-2.5-2.4-4.7-4.3-6.6l-1.4,1.4
		c1.7,1.7,2.9,3.6,3.9,5.9L137.4,26.9z M133.2,20.3c-1.8-1.9-4-3.4-6.5-4.4l-0.8,1.9c2.2,0.9,4.2,2.2,5.8,3.9L133.2,20.3z M126.7,16
		c-2.5-1.1-5.2-1.6-8.1-1.6v2c2.6,0,5.1,0.5,7.3,1.4L126.7,16z M118.6,14.4c-2.9,0-5.6,0.5-8.1,1.6l0.8,1.8c2.2-0.9,4.7-1.4,7.3-1.4
		V14.4z M110.5,16c-2.5,1-4.7,2.5-6.5,4.4l1.4,1.4c1.7-1.7,3.6-3,5.8-3.9L110.5,16z M104,20.3c-1.8,1.9-3.2,4.1-4.2,6.6l1.9,0.7
		c0.9-2.3,2.2-4.3,3.8-5.9L104,20.3z M99.8,26.9c-1,2.5-1.5,5.2-1.5,8.1h2c0-2.6,0.5-5.1,1.4-7.3L99.8,26.9z M98.3,35
		c0,2.9,0.5,5.6,1.5,8.2l1.9-0.7c-0.9-2.3-1.4-4.7-1.4-7.4H98.3z M99.8,43.1c1,2.5,2.4,4.7,4.2,6.6l1.4-1.4
		c-1.6-1.7-2.9-3.7-3.8-5.9L99.8,43.1z M104,49.7c1.9,1.9,4,3.3,6.5,4.4l0.8-1.8c-2.2-1-4.2-2.3-5.9-3.9L104,49.7z M110.5,54.1
		c2.5,1,5.2,1.5,8.1,1.5v-2c-2.7,0-5.1-0.5-7.4-1.4L110.5,54.1z M161.2,57.3l-0.4,0.9l0,0L161.2,57.3z M154.6,51.5l-0.8,0.5l0,0
		L154.6,51.5z M152.9,12.2l0.7,0.7l0,0L152.9,12.2z M156.3,12.2l0.7-0.7l0,0L156.3,12.2z M158.7,49.2l-0.8,0.5c0,0,0,0,0,0
		L158.7,49.2z M163.6,53.4l-0.4,0.9c0,0,0,0,0,0L163.6,53.4z M178,53.4l0.4,0.9c0,0,0,0,0,0L178,53.4z M182.9,49.2l-0.8-0.6
		c0,0,0,0,0,0L182.9,49.2z M185.4,12.2l-0.7-0.7l0,0L185.4,12.2z M188.7,12.2l-0.7,0.7c0,0,0,0,0,0L188.7,12.2z M187,51.5l-0.8-0.5
		l0,0L187,51.5z M180.4,57.3l-0.4-0.9l0,0L180.4,57.3z M170.9,58.4c-3.5,0-6.6-0.7-9.3-2l-0.9,1.8c3,1.5,6.4,2.2,10.2,2.2V58.4z
		 M161.6,56.4c-2.6-1.3-4.7-3.1-6.2-5.5l-1.7,1.1c1.7,2.6,4,4.7,7,6.2L161.6,56.4z M155.4,50.9c-1.5-2.3-2.2-5-2.2-8h-2
		c0,3.4,0.8,6.4,2.5,9.1L155.4,50.9z M153.2,42.9v-29h-2v29H153.2z M153.2,13.9c0-0.4,0.1-0.7,0.4-1l-1.4-1.4c-0.6,0.6-1,1.5-1,2.4
		H153.2z M153.6,12.9c0.2-0.2,0.5-0.4,1-0.4v-2c-0.9,0-1.7,0.3-2.4,1L153.6,12.9z M154.6,12.6c0.4,0,0.7,0.1,1,0.4l1.4-1.4
		c-0.6-0.6-1.5-1-2.4-1V12.6z M155.5,12.9c0.2,0.2,0.4,0.5,0.4,1h2c0-0.9-0.3-1.7-1-2.4L155.5,12.9z M155.9,13.9v29h2v-29H155.9z
		 M155.9,42.9c0,2.5,0.6,4.8,1.9,6.8l1.7-1.1c-1-1.6-1.6-3.5-1.6-5.7H155.9z M157.8,49.7c1.3,2,3.1,3.5,5.4,4.6l0.9-1.8
		c-2-1-3.5-2.3-4.6-3.9L157.8,49.7z M163.2,54.3c2.3,1.1,4.8,1.6,7.7,1.6v-2c-2.6,0-4.9-0.5-6.8-1.4L163.2,54.3z M170.9,55.9
		c2.8,0,5.3-0.5,7.6-1.6l-0.9-1.8c-1.9,0.9-4.2,1.4-6.7,1.4V55.9z M178.5,54.3c2.2-1.1,4-2.6,5.3-4.6l-1.7-1.1
		c-1.1,1.6-2.5,2.9-4.5,3.9L178.5,54.3z M183.7,49.7c1.3-2,2-4.3,2-6.8h-2c0,2.2-0.6,4.1-1.6,5.7L183.7,49.7z M185.7,42.9v-29h-2v29
		H185.7z M185.7,13.9c0-0.4,0.1-0.7,0.4-1l-1.4-1.4c-0.6,0.6-1,1.5-1,2.4H185.7z M186.1,12.9c0.2-0.2,0.5-0.4,1-0.4v-2
		c-0.9,0-1.7,0.3-2.4,1L186.1,12.9z M187,12.6c0.5,0,0.8,0.1,0.9,0.3l1.5-1.3c-0.6-0.7-1.5-1-2.4-1V12.6z M188,12.9
		c0.2,0.2,0.4,0.5,0.4,1h2c0-0.9-0.3-1.7-1-2.4L188,12.9z M188.4,13.9v29h2v-29H188.4z M188.4,42.9c0,3-0.8,5.7-2.2,8l1.7,1.1
		c1.7-2.7,2.6-5.7,2.6-9.1H188.4z M186.1,50.9c-1.5,2.3-3.5,4.1-6.1,5.5l0.9,1.8c3-1.5,5.3-3.5,6.9-6.2L186.1,50.9z M180,56.4
		c-2.6,1.3-5.6,2-9.1,2v2c3.7,0,7.1-0.7,10-2.2L180,56.4z M202.1,57.8l0.7-0.7L202.1,57.8z M202.1,12.2l0.7,0.7l0,0L202.1,12.2z
		 M233.5,12.2l-0.7,0.7c0,0,0,0,0.1,0.1L233.5,12.2z M233.5,15.4l-0.7-0.7c0,0,0,0,0,0L233.5,15.4z M206.1,16.1v-1c-0.6,0-1,0.4-1,1
		H206.1z M206.1,32.6h-1c0,0.6,0.4,1,1,1V32.6z M226.5,33.3l0.7-0.7l0,0L226.5,33.3z M226.5,36.5l0.7,0.7l0,0L226.5,36.5z
		 M206.1,37.2v-1c-0.6,0-1,0.4-1,1H206.1z M206.1,53.9h-1c0,0.6,0.4,1,1,1V53.9z M233.5,54.6l-0.7,0.7c0,0,0,0,0,0L233.5,54.6z
		 M233.5,57.8l0.7,0.7l0,0L233.5,57.8z M203.7,57.4c-0.4,0-0.7-0.1-1-0.4l-1.4,1.4c0.6,0.6,1.5,1,2.4,1V57.4z M202.8,57.1
		c-0.2-0.2-0.4-0.5-0.4-1h-2c0,0.9,0.3,1.7,1,2.4L202.8,57.1z M202.4,56.1V13.9h-2v42.2H202.4z M202.4,13.9c0-0.4,0.1-0.7,0.4-1
		l-1.4-1.4c-0.6,0.6-1,1.5-1,2.4H202.4z M202.8,12.9c0.2-0.2,0.5-0.4,1-0.4v-2c-0.9,0-1.7,0.3-2.4,1L202.8,12.9z M203.7,12.6h28.1
		v-2h-28.1V12.6z M231.9,12.6c0.4,0,0.7,0.1,0.9,0.4l1.4-1.4c-0.6-0.6-1.4-1-2.3-1V12.6z M232.9,13c0.2,0.2,0.4,0.4,0.4,0.9h2
		c0-0.9-0.3-1.8-1.1-2.4L232.9,13z M233.2,13.8c0,0.3-0.1,0.6-0.4,0.8l1.4,1.5c0.7-0.6,1-1.4,1-2.3H233.2z M232.8,14.7
		c-0.2,0.2-0.5,0.4-0.9,0.4v2c0.9,0,1.7-0.3,2.3-1L232.8,14.7z M231.9,15.1h-25.8v2h25.8V15.1z M205.1,16.1v16.6h2V16.1H205.1z
		 M206.1,33.6h18.8v-2h-18.8V33.6z M224.9,33.6c0.4,0,0.7,0.1,1,0.4l1.4-1.4c-0.6-0.6-1.5-1-2.4-1V33.6z M225.8,34
		c0.2,0.2,0.4,0.5,0.4,0.9h2c0-0.9-0.3-1.7-1-2.3L225.8,34z M226.2,34.9c0,0.4-0.1,0.7-0.4,0.9l1.4,1.4c0.6-0.6,1-1.4,1-2.3H226.2z
		 M225.8,35.8c-0.2,0.2-0.5,0.4-1,0.4v2c0.9,0,1.7-0.3,2.4-1L225.8,35.8z M224.9,36.2h-18.8v2h18.8V36.2z M205.1,37.2v16.7h2V37.2
		H205.1z M206.1,54.9h25.8v-2h-25.8V54.9z M231.9,54.9c0.4,0,0.7,0.1,0.9,0.4l1.4-1.4c-0.6-0.6-1.4-1-2.3-1V54.9z M232.8,55.3
		c0.3,0.3,0.4,0.5,0.4,0.8h2c0-0.9-0.4-1.7-1-2.3L232.8,55.3z M233.2,56.1c0,0.4-0.1,0.7-0.4,0.9l1.4,1.5c0.7-0.6,1-1.5,1-2.4H233.2
		z M232.8,57.1c-0.2,0.2-0.5,0.3-0.9,0.3v2c0.9,0,1.7-0.3,2.3-0.9L232.8,57.1z M231.9,57.4h-28.1v2h28.1V57.4z"/>
</g>
<path class="st1" d="M264.7,33.3c-7.1-15,7.8-15.6,18.8-33.3c4.3,16.8-14.9,17,0,30.9c14.9,13.9,14.1,18.7,5.5,29.1h-29.8
	C270.2,43.7,271.7,48.3,264.7,33.3z"/>
</svg>
