<svg width="133" height="82" viewBox="0 0 133 82" fill="none" xmlns="http://www.w3.org/2000/svg">
<path d="M11.048 28.4542C8.6154 48.2658 22.9609 65.9443 41.391 67.7794C58.1247 69.4917 74.413 57.7568 78.3305 40.1385" stroke="black" stroke-miterlimit="10"/>
<path d="M11.3025 38.9257L14.3433 34.7207" stroke="black" stroke-miterlimit="10"/>
<path d="M13.2299 45.8799L6.27832 39.4211" stroke="black" stroke-miterlimit="10"/>
<path d="M17.1228 53.2041L20.3084 45.38" stroke="black" stroke-miterlimit="10"/>
<path d="M22.9947 59.7442L15.2875 59.4397" stroke="black" stroke-miterlimit="10"/>
<path d="M29.6208 64.3231L30.0865 55.6515" stroke="black" stroke-miterlimit="10"/>
<path d="M38.6089 67.4376L28.6359 69.2083" stroke="black" stroke-miterlimit="10"/>
<path d="M45.3473 67.9657L42.4675 61.4506" stroke="black" stroke-miterlimit="10"/>
<path d="M57.0729 65.5117L46.5735 72.2666" stroke="black" stroke-miterlimit="10"/>
<path d="M62.4137 62.7871L53.3384 60.7314" stroke="black" stroke-miterlimit="10"/>
<path d="M18.5427 49.6558L17.1715 46.5351L17.8267 42.5935L21.0908 39.3573L23.3581 37.967L24.8579 42.1304L23.5328 45.6047L21.0363 48.1649L18.5427 49.6558Z" stroke="black" stroke-miterlimit="10"/>
<path d="M29.7421 61.9417L27.9805 58.5163L27.34 54.6724L27.7481 50.9999L29.4904 47.962L31.0196 46.3099L32.5209 51.1581L32.3362 55.7993L31.5908 59.4303L29.7421 61.9417Z" stroke="black" stroke-miterlimit="10"/>
<path d="M43.812 64.4395L40.3466 62.3453L37.9846 58.9317L38.0303 55.771L38.9473 53.5303L42.1184 55.9307L43.8725 58.371L43.812 64.4395Z" stroke="black" stroke-miterlimit="10"/>
<path d="M61.0855 62.4529L56.6394 59.9816L51.8888 57.9007L48.703 58.4081L47.4192 59.1062L49.3568 61.0984L51.7454 62.2047L54.5334 62.8465L57.9366 63.0076L61.0855 62.4529Z" stroke="black" stroke-miterlimit="10"/>
<path d="M51.9601 68.8203L47.4639 69.8942L44.3077 71.9027L42.5107 73.9926L42.1706 75.0206L44.611 75.7053L47.9047 73.9703L50.2696 71.4367L51.9601 68.8203Z" stroke="black" stroke-miterlimit="10"/>
<path d="M33.0064 68.4613L30.2317 66.6658L26.5696 66.1734L23.2907 67.4395L21.3517 69.6403L23.2937 71.248L26.9336 71.2242L29.5973 70.4388L33.0064 68.4613Z" stroke="black" stroke-miterlimit="10"/>
<path d="M21.3352 59.6688L17.1333 57.9976L13.5126 57.168L9.66863 57.8085L7.21643 58.9622L10.4111 60.1246L13.9312 60.728L17.0653 60.6421L21.3352 59.6688Z" stroke="black" stroke-miterlimit="10"/>
<path d="M11.0024 43.8093L7.92742 39.5808L5.34647 37.2529L3.28469 36.2723L1.85151 36.0964L3.16789 38.269L5.29034 40.4979L8.45107 42.9826L11.0024 43.8093Z" stroke="black" stroke-miterlimit="10"/>
<path d="M12.7992 36.8416L12.7282 33.2387L16.2363 28.3637L18.9192 26.7249L20.3361 26.6849L20.3007 29.7613L17.9417 32.5952L15.1242 35.3299L12.7992 36.8416Z" stroke="black" stroke-miterlimit="10"/>
<path d="M42.6554 67.9347L39.9148 69.6948L39.4519 69.9802" stroke="black" stroke-miterlimit="10"/>
<path d="M36.0769 70.6353L40.2359 69.52L37.1404 72.7769L34.2578 74.6479L31.7361 75.3224L29.7971 75.0843L32.5362 72.6394L36.0769 70.6353Z" stroke="black" stroke-miterlimit="10"/>
<path d="M122.71 28.4542C125.142 48.2658 110.797 65.9443 92.3668 67.7794C75.6331 69.4917 59.3448 57.7568 55.4273 40.1385" stroke="black" stroke-miterlimit="10"/>
<path d="M122.455 38.9257L119.415 34.7207" stroke="black" stroke-miterlimit="10"/>
<path d="M120.528 45.8799L127.479 39.4211" stroke="black" stroke-miterlimit="10"/>
<path d="M116.635 53.2041L113.449 45.38" stroke="black" stroke-miterlimit="10"/>
<path d="M110.763 59.7442L118.47 59.4397" stroke="black" stroke-miterlimit="10"/>
<path d="M104.137 64.3231L103.671 55.6515" stroke="black" stroke-miterlimit="10"/>
<path d="M95.1489 67.4376L105.122 69.2083" stroke="black" stroke-miterlimit="10"/>
<path d="M88.4105 67.9657L91.2903 61.4506" stroke="black" stroke-miterlimit="10"/>
<path d="M76.6849 65.5117L87.1843 72.2666" stroke="black" stroke-miterlimit="10"/>
<path d="M71.3441 62.7871L80.4194 60.7314" stroke="black" stroke-miterlimit="10"/>
<path d="M115.215 49.6558L116.586 46.5351L115.931 42.5935L112.667 39.3573L110.4 37.967L108.9 42.1304L110.225 45.6047L112.722 48.1649L115.215 49.6558Z" stroke="black" stroke-miterlimit="10"/>
<path d="M104.016 61.9417L105.777 58.5163L106.418 54.6724L106.01 50.9999L104.267 47.962L102.738 46.3099L101.237 51.1581L101.422 55.7993L102.167 59.4303L104.016 61.9417Z" stroke="black" stroke-miterlimit="10"/>
<path d="M89.9458 64.4395L93.4112 62.3453L95.7733 58.9317L95.7275 55.771L94.8105 53.5303L91.6394 55.9307L89.8853 58.371L89.9458 64.4395Z" stroke="black" stroke-miterlimit="10"/>
<path d="M72.6724 62.4529L77.1184 59.9816L81.869 57.9007L85.0548 58.4081L86.3386 59.1062L84.4011 61.0984L82.0124 62.2047L79.2244 62.8465L75.8212 63.0076L72.6724 62.4529Z" stroke="black" stroke-miterlimit="10"/>
<path d="M81.7977 68.8203L86.2939 69.8942L89.4501 71.9027L91.2471 73.9926L91.5872 75.0206L89.1468 75.7053L85.8531 73.9703L83.4882 71.4367L81.7977 68.8203Z" stroke="black" stroke-miterlimit="10"/>
<path d="M100.751 68.4613L103.526 66.6658L107.188 66.1734L110.467 67.4395L112.406 69.6403L110.464 71.248L106.824 71.2242L104.161 70.4388L100.751 68.4613Z" stroke="black" stroke-miterlimit="10"/>
<path d="M112.423 59.6688L116.625 57.9976L120.245 57.168L124.089 57.8085L126.541 58.9622L123.347 60.1246L119.827 60.728L116.693 60.6421L112.423 59.6688Z" stroke="black" stroke-miterlimit="10"/>
<path d="M122.755 43.8093L125.83 39.5808L128.411 37.2529L130.473 36.2723L131.906 36.0964L130.59 38.269L128.467 40.4979L125.307 42.9826L122.755 43.8093Z" stroke="black" stroke-miterlimit="10"/>
<path d="M120.959 36.8416L121.03 33.2387L117.522 28.3637L114.839 26.7249L113.422 26.6849L113.457 29.7613L115.816 32.5952L118.634 35.3299L120.959 36.8416Z" stroke="black" stroke-miterlimit="10"/>
<path d="M91.1024 67.9347L93.843 69.6948L94.3059 69.9802" stroke="black" stroke-miterlimit="10"/>
<path d="M97.6809 70.6353L93.5219 69.52L96.6174 72.7769L99.5 74.6479L102.022 75.3224L103.961 75.0843L101.222 72.6394L97.6809 70.6353Z" stroke="black" stroke-miterlimit="10"/>
</svg>
