<svg width="634" height="1000" viewBox="0 0 634 1000" fill="none" xmlns="http://www.w3.org/2000/svg">
<path opacity="0.25" d="M576.955 203.064L575.426 204.444L573.093 204.644L570.314 203.301L569.751 201.599L570.499 196.574L573.433 193.807L576.212 192.659L575.989 194.403L575.63 196.22L577.158 198.633L576.955 203.064Z" fill="#26BFDC"/>
<path opacity="0.25" d="M566.974 202.508L570.88 206.244L576.746 206.742L581.172 200.883L576.746 190.957L572.731 186.367L567.494 194.135L566.974 202.508Z" fill="#26BFDC"/>
<path opacity="0.25" d="M566.873 204.581L575.243 210.038L583.333 203.389L579.141 192.528L577.913 185.737L573.948 179.776L565.431 190.52L566.873 204.581Z" fill="#26BFDC"/>
<path opacity="0.25" d="M575.403 176.779L566.964 182.626L565.431 192.509L567.84 205.04L574.849 210.037L584.717 203.653L587.345 195.37L579.783 187.511L575.403 176.779Z" fill="#26BFDC"/>
<path opacity="0.25" d="M561.727 200.555L572.013 210.037L583.923 207.129L588.27 197.136L580.548 182.796L576.487 171.086L565.517 184.374L561.727 200.555Z" fill="#26BFDC"/>
<path opacity="0.25" d="M561.967 207.989L559.875 196.762L564.059 182.927L570.721 174.034L578.896 165.993L582.693 175.942L583.449 182.927L587.721 186.999L589.813 205.604L576.224 210.936L561.967 207.989Z" fill="#26BFDC"/>
<path opacity="0.25" d="M590.749 206.3L583.87 212.444L573.369 213.333L560.866 207.355L558.332 199.783L561.697 177.419L574.903 165.11L587.405 160L586.404 167.758L584.785 175.847L591.665 186.584L590.749 206.3Z" fill="#26BFDC"/>
<path d="M443.71 680.493V693.893H443.96L465.84 680.493H443.71Z" stroke="#888888" stroke-width="0.6" stroke-miterlimit="10" stroke-linecap="round" stroke-linejoin="round"/>
<path d="M444.73 534.453L454.3 680.493H465.84L469.22 678.423L483.49 534.453H444.73Z" stroke="#888888" stroke-width="0.6" stroke-miterlimit="10" stroke-linecap="round" stroke-linejoin="round"/>
<path d="M540.82 722.093H540.81L542.91 724.553H542.92L540.82 722.093Z" stroke="#888888" stroke-width="0.6" stroke-miterlimit="10" stroke-linecap="round" stroke-linejoin="round"/>
<path d="M519.37 708.003L525.82 712.253L534.56 717.983L519.37 708.003Z" stroke="#888888" stroke-width="0.6" stroke-miterlimit="10" stroke-linecap="round" stroke-linejoin="round"/>
<path d="M490.83 701.993L487.33 704.093V704.103L490.83 701.993Z" stroke="#888888" stroke-width="0.6" stroke-miterlimit="10" stroke-linecap="round" stroke-linejoin="round"/>
<path d="M481.49 707.603V707.613L482.92 706.753L481.49 707.603Z" stroke="#888888" stroke-width="0.6" stroke-miterlimit="10" stroke-linecap="round" stroke-linejoin="round"/>
<path d="M469.22 678.423L472.04 676.693L474.25 678.423L508.95 328.403H503.92L483.65 532.873L483.49 534.453L469.22 678.423Z" stroke="#888888" stroke-width="0.6" stroke-miterlimit="10" stroke-linecap="round" stroke-linejoin="round"/>
<path d="M513.03 695.903H518.64L538.16 328.403H532.55L513.03 695.903Z" stroke="#888888" stroke-width="0.6" stroke-miterlimit="10" stroke-linecap="round" stroke-linejoin="round"/>
<path d="M512.62 703.563V703.573L514.43 704.753L512.62 703.563Z" stroke="#888888" stroke-width="0.6" stroke-miterlimit="10" stroke-linecap="round" stroke-linejoin="round"/>
<path d="M487.33 704.093V704.103L490.83 701.993L487.33 704.093Z" stroke="#888888" stroke-width="0.6" stroke-miterlimit="10" stroke-linecap="round" stroke-linejoin="round"/>
<path d="M486.37 687.923L491.66 692.073L520.13 328.403H514.51L486.37 687.923Z" stroke="#888888" stroke-width="0.6" stroke-miterlimit="10" stroke-linecap="round" stroke-linejoin="round"/>
<path d="M551.31 695.903H556.91L563.89 328.403H558.28L551.31 695.903Z" stroke="#888888" stroke-width="0.6" stroke-miterlimit="10" stroke-linecap="round" stroke-linejoin="round"/>
<path d="M586.71 328.403L593.38 693.173L598.96 691.973L592.32 328.403H586.71Z" stroke="#888888" stroke-width="0.6" stroke-miterlimit="10" stroke-linecap="round" stroke-linejoin="round"/>
<path d="M612.43 328.403L631.14 685.073L636.68 683.883L618.04 328.403H612.43Z" stroke="#888888" stroke-width="0.6" stroke-miterlimit="10" stroke-linecap="round" stroke-linejoin="round"/>
<path d="M630.47 328.403L657.63 678.593L663.23 678.283L636.09 328.403H630.47Z" stroke="#888888" stroke-width="0.6" stroke-miterlimit="10" stroke-linecap="round" stroke-linejoin="round"/>
<path d="M423.66 693.893V707.293H425.3L434.9 699.443L443.96 693.893H423.66Z" stroke="#888888" stroke-width="0.6" stroke-miterlimit="10" stroke-linecap="round" stroke-linejoin="round"/>
<path d="M403.62 707.293V720.693H412.66L414.53 719.723L413.32 717.083L425.3 707.293H403.62Z" stroke="#888888" stroke-width="0.6" stroke-miterlimit="10" stroke-linecap="round" stroke-linejoin="round"/>
<path d="M383.58 720.693V734.093H386.77L411.53 721.273V720.693H383.58Z" stroke="#888888" stroke-width="0.6" stroke-miterlimit="10" stroke-linecap="round" stroke-linejoin="round"/>
<path d="M363.54 734.093V747.493H367.75L372.73 741.363L386.77 734.093H363.54Z" stroke="#888888" stroke-width="0.6" stroke-miterlimit="10" stroke-linecap="round" stroke-linejoin="round"/>
<path d="M343.49 747.493V760.893H349.02L358.98 758.293L367.75 747.493H343.49Z" stroke="#888888" stroke-width="0.6" stroke-miterlimit="10" stroke-linecap="round" stroke-linejoin="round"/>
<path d="M323.45 760.893V768.493L325.88 766.933L349.02 760.893H323.45Z" stroke="#888888" stroke-width="0.6" stroke-miterlimit="10" stroke-linecap="round" stroke-linejoin="round"/>
<path d="M303.41 774.293V781.393L314.44 774.293H303.41Z" stroke="#888888" stroke-width="0.6" stroke-miterlimit="10" stroke-linecap="round" stroke-linejoin="round"/>
<path d="M427.5 656.533C428.56 656.803 429.4 657.633 429.68 658.693L444.88 648.403C444.24 647.843 443.83 647.013 443.83 646.093C443.83 645.873 443.85 645.653 443.9 645.443L427.5 656.533Z" stroke="#888888" stroke-width="0.6" stroke-miterlimit="10" stroke-linecap="round" stroke-linejoin="round"/>
<path d="M407.59 670.003C408.59 670.363 409.35 671.223 409.56 672.293L424.89 661.933C424.14 661.383 423.66 660.493 423.66 659.493C423.66 659.363 423.67 659.233 423.69 659.113L407.59 670.003Z" stroke="#888888" stroke-width="0.6" stroke-miterlimit="10" stroke-linecap="round" stroke-linejoin="round"/>
<path d="M387.65 683.493C388.61 683.923 389.3 684.833 389.42 685.923L404.89 675.453C404.05 674.913 403.49 673.963 403.49 672.893C403.49 672.853 403.49 672.813 403.5 672.773L387.65 683.493Z" stroke="#888888" stroke-width="0.6" stroke-miterlimit="10" stroke-linecap="round" stroke-linejoin="round"/>
<path d="M367.69 696.993C368.6 697.493 369.23 698.453 369.27 699.553L384.91 688.973C384 688.473 383.37 687.513 383.33 686.413L367.69 696.993Z" stroke="#888888" stroke-width="0.6" stroke-miterlimit="10" stroke-linecap="round" stroke-linejoin="round"/>
<path d="M349.11 713.073C349.11 713.113 349.11 713.163 349.1 713.203L364.93 702.493V702.463C363.98 702.023 363.3 701.123 363.18 700.043L347.72 710.503C348.56 711.053 349.11 712.003 349.11 713.073Z" stroke="#888888" stroke-width="0.6" stroke-miterlimit="10" stroke-linecap="round" stroke-linejoin="round"/>
<path d="M328.94 726.473C328.94 726.603 328.93 726.733 328.91 726.863L344.76 716.133V715.863C343.88 715.453 343.23 714.653 343.04 713.673L327.72 724.033C328.46 724.583 328.94 725.473 328.94 726.473Z" stroke="#888888" stroke-width="0.6" stroke-miterlimit="10" stroke-linecap="round" stroke-linejoin="round"/>
<path d="M308.77 739.863C308.77 740.093 308.75 740.313 308.7 740.533L324.59 729.783V729.253C323.78 728.873 323.16 728.153 322.92 727.273L307.72 737.563C308.37 738.123 308.77 738.943 308.77 739.863Z" stroke="#888888" stroke-width="0.6" stroke-miterlimit="10" stroke-linecap="round" stroke-linejoin="round"/>
<path d="M445.61 648.873V680.503H448.19V648.873C447.8 649.063 447.36 649.163 446.9 649.163C446.44 649.163 446 649.063 445.61 648.873Z" stroke="#888888" stroke-width="0.6" stroke-miterlimit="10" stroke-linecap="round" stroke-linejoin="round"/>
<path d="M443.83 646.093C443.83 647.013 444.24 647.843 444.88 648.403C445.1 648.593 445.34 648.753 445.61 648.873C446 649.063 446.44 649.163 446.9 649.163C447.36 649.163 447.8 649.063 448.19 648.873C449.24 648.393 449.96 647.333 449.96 646.093C449.96 644.403 448.59 643.033 446.9 643.033C445.44 643.033 444.2 644.063 443.9 645.443C443.85 645.653 443.83 645.873 443.83 646.093Z" stroke="#888888" stroke-width="0.6" stroke-miterlimit="10" stroke-linecap="round" stroke-linejoin="round"/>
<path d="M425.44 662.263V693.893H428.02V662.263C427.63 662.453 427.19 662.553 426.73 662.553C426.27 662.553 425.83 662.453 425.44 662.263Z" stroke="#888888" stroke-width="0.6" stroke-miterlimit="10" stroke-linecap="round" stroke-linejoin="round"/>
<path d="M423.66 659.493C423.66 660.493 424.14 661.383 424.89 661.933C425.06 662.063 425.24 662.173 425.44 662.263C425.83 662.453 426.27 662.553 426.73 662.553C427.19 662.553 427.63 662.453 428.02 662.263C429.07 661.783 429.79 660.723 429.79 659.493C429.79 659.213 429.75 658.943 429.68 658.693C429.4 657.633 428.56 656.803 427.5 656.533C427.26 656.463 427 656.433 426.73 656.433C425.17 656.433 423.87 657.603 423.69 659.113C423.67 659.233 423.66 659.363 423.66 659.493Z" stroke="#888888" stroke-width="0.6" stroke-miterlimit="10" stroke-linecap="round" stroke-linejoin="round"/>
<path d="M405.27 675.663V707.293H407.85V675.663C407.46 675.853 407.02 675.953 406.56 675.953C406.1 675.953 405.66 675.853 405.27 675.663Z" stroke="#888888" stroke-width="0.6" stroke-miterlimit="10" stroke-linecap="round" stroke-linejoin="round"/>
<path d="M403.49 672.893C403.49 673.963 404.05 674.913 404.89 675.453C405.01 675.533 405.14 675.603 405.27 675.663C405.66 675.853 406.1 675.953 406.56 675.953C407.02 675.953 407.46 675.853 407.85 675.663C408.9 675.183 409.62 674.123 409.62 672.893C409.62 672.683 409.6 672.483 409.56 672.293C409.35 671.223 408.59 670.363 407.59 670.003C407.27 669.883 406.92 669.823 406.56 669.823C404.91 669.823 403.56 671.123 403.5 672.773C403.49 672.813 403.49 672.853 403.49 672.893Z" stroke="#888888" stroke-width="0.6" stroke-miterlimit="10" stroke-linecap="round" stroke-linejoin="round"/>
<path d="M385.1 689.073V720.683H387.68V689.063C387.29 689.253 386.85 689.353 386.39 689.353C385.93 689.353 385.49 689.253 385.1 689.073Z" stroke="#888888" stroke-width="0.6" stroke-miterlimit="10" stroke-linecap="round" stroke-linejoin="round"/>
<path d="M383.32 686.283C383.32 686.323 383.32 686.373 383.33 686.413C383.37 687.513 384 688.473 384.91 688.973C384.98 689.013 385.04 689.043 385.1 689.073C385.49 689.253 385.93 689.353 386.39 689.353C386.85 689.353 387.29 689.253 387.68 689.063C388.73 688.573 389.45 687.513 389.45 686.283C389.45 686.163 389.44 686.043 389.42 685.923C389.3 684.833 388.61 683.923 387.65 683.493C387.27 683.323 386.84 683.223 386.39 683.223C384.69 683.223 383.32 684.593 383.32 686.283Z" stroke="#888888" stroke-width="0.6" stroke-miterlimit="10" stroke-linecap="round" stroke-linejoin="round"/>
<path d="M364.93 702.463V734.083H367.51V702.453C367.12 702.643 366.68 702.743 366.22 702.743C365.77 702.743 365.35 702.653 364.96 702.473C364.95 702.473 364.94 702.463 364.93 702.463Z" stroke="#888888" stroke-width="0.6" stroke-miterlimit="10" stroke-linecap="round" stroke-linejoin="round"/>
<path d="M363.15 699.683C363.15 699.803 363.16 699.923 363.18 700.043C363.3 701.123 363.98 702.023 364.93 702.463C364.94 702.463 364.95 702.473 364.96 702.473C365.35 702.653 365.77 702.743 366.22 702.743C366.68 702.743 367.12 702.643 367.51 702.453C368.56 701.973 369.28 700.913 369.28 699.683C369.28 699.643 369.28 699.593 369.27 699.553C369.23 698.453 368.6 697.493 367.69 696.993C367.25 696.743 366.75 696.613 366.22 696.613C364.52 696.613 363.15 697.993 363.15 699.683Z" stroke="#888888" stroke-width="0.6" stroke-miterlimit="10" stroke-linecap="round" stroke-linejoin="round"/>
<path d="M344.76 715.863V747.473H347.34V715.853C346.95 716.043 346.51 716.143 346.05 716.143C345.69 716.143 345.34 716.083 345.02 715.963C344.93 715.933 344.85 715.903 344.76 715.863Z" stroke="#888888" stroke-width="0.6" stroke-miterlimit="10" stroke-linecap="round" stroke-linejoin="round"/>
<path d="M342.98 713.073C342.98 713.283 343 713.483 343.04 713.673C343.23 714.653 343.88 715.453 344.76 715.863C344.85 715.903 344.93 715.933 345.02 715.963C345.34 716.083 345.69 716.143 346.05 716.143C346.51 716.143 346.95 716.043 347.34 715.853C348.35 715.383 349.06 714.383 349.1 713.203C349.11 713.163 349.11 713.113 349.11 713.073C349.11 712.003 348.56 711.053 347.72 710.503C347.24 710.193 346.67 710.013 346.05 710.013C344.35 710.013 342.98 711.383 342.98 713.073Z" stroke="#888888" stroke-width="0.6" stroke-miterlimit="10" stroke-linecap="round" stroke-linejoin="round"/>
<path d="M324.59 729.253V760.873H327.17V729.243C326.78 729.433 326.34 729.533 325.88 729.533C325.61 729.533 325.36 729.503 325.11 729.433C324.93 729.393 324.76 729.333 324.59 729.253Z" stroke="#888888" stroke-width="0.6" stroke-miterlimit="10" stroke-linecap="round" stroke-linejoin="round"/>
<path d="M322.81 726.473C322.81 726.753 322.85 727.023 322.92 727.273C323.16 728.153 323.78 728.873 324.59 729.253C324.76 729.333 324.93 729.393 325.11 729.433C325.36 729.503 325.61 729.533 325.88 729.533C326.34 729.533 326.78 729.433 327.17 729.243C328.1 728.813 328.78 727.923 328.91 726.863C328.93 726.733 328.94 726.603 328.94 726.473C328.94 725.473 328.46 724.583 327.72 724.033C327.21 723.643 326.57 723.403 325.88 723.403C324.18 723.403 322.81 724.783 322.81 726.473Z" stroke="#888888" stroke-width="0.6" stroke-miterlimit="10" stroke-linecap="round" stroke-linejoin="round"/>
<path d="M304.42 742.653V774.273H307V742.643C306.61 742.833 306.17 742.933 305.71 742.933C305.25 742.933 304.81 742.833 304.42 742.653Z" stroke="#888888" stroke-width="0.6" stroke-miterlimit="10" stroke-linecap="round" stroke-linejoin="round"/>
<path d="M302.64 739.863C302.64 741.103 303.37 742.163 304.42 742.653C304.81 742.833 305.25 742.933 305.71 742.933C306.17 742.933 306.61 742.833 307 742.643C307.85 742.253 308.49 741.473 308.7 740.533C308.75 740.313 308.77 740.093 308.77 739.863C308.77 738.943 308.37 738.123 307.72 737.563C307.19 737.083 306.49 736.803 305.71 736.803C304.01 736.803 302.64 738.173 302.64 739.863Z" stroke="#888888" stroke-width="0.6" stroke-miterlimit="10" stroke-linecap="round" stroke-linejoin="round"/>
<path d="M500.96 695.913L501.81 702.653L501.86 703.033L502.75 710.063L503.6 716.823L508.46 755.273V755.283L566.49 752.103L542.92 724.553H542.91L540.81 722.093L534.56 717.983L525.82 712.253L519.37 708.003L518.35 707.333H518.34L518.03 707.283L518.04 707.133L514.43 704.753L512.62 703.573V703.563L508.46 700.833L500.96 695.913Z" stroke="#888888" stroke-width="0.6" stroke-miterlimit="10" stroke-linecap="round" stroke-linejoin="round"/>
<path d="M542.93 724.553H542.92L566.49 752.103H566.5L542.93 724.553Z" stroke="#888888" stroke-width="0.6" stroke-miterlimit="10" stroke-linecap="round" stroke-linejoin="round"/>
<path d="M540.82 722.093H540.81L542.91 724.553H542.92L540.82 722.093Z" stroke="#888888" stroke-width="0.6" stroke-miterlimit="10" stroke-linecap="round" stroke-linejoin="round"/>
<path d="M518.04 707.133L518.03 707.283L518.34 707.333L518.04 707.133Z" stroke="#888888" stroke-width="0.6" stroke-miterlimit="10" stroke-linecap="round" stroke-linejoin="round"/>
<path d="M514.43 704.753L512.62 703.563V703.573L514.43 704.753Z" stroke="#888888" stroke-width="0.6" stroke-miterlimit="10" stroke-linecap="round" stroke-linejoin="round"/>
<path d="M500.96 695.903V695.913L508.46 700.833L500.97 695.903H500.96Z" stroke="#888888" stroke-width="0.6" stroke-miterlimit="10" stroke-linecap="round" stroke-linejoin="round"/>
<path d="M588.35 717.083L593.81 716.854L599.41 716.614L633.58 715.143L637.34 714.984L653.04 714.313L709.09 711.913C708.84 711.863 707.41 711.013 705.14 709.603C699.57 706.143 688.98 699.293 678.67 692.573C676.68 691.273 674.69 689.983 672.76 688.723C669.5 686.593 666.37 684.543 663.57 682.713C662.29 681.873 661.08 681.073 659.95 680.333L658.85 679.613L657.65 678.843V678.833L657.31 678.613H657.3C653.66 676.213 651.39 674.723 651.39 674.723L638.26 683.543L636.72 684.583L631.3 688.223L599.29 709.733L595.17 712.503L593.75 713.453L588.35 717.083Z" stroke="#888888" stroke-width="0.6" stroke-miterlimit="10" stroke-linecap="round" stroke-linejoin="round"/>
<path d="M588.35 717.083L593.84 718.293L599.45 719.523L616.18 723.213H616.19L657.3 732.263L709.09 711.913L653.04 714.313L637.34 714.983L633.58 715.143L599.41 716.613L593.81 716.853L588.35 717.083Z" stroke="#888888" stroke-width="0.6" stroke-miterlimit="10" stroke-linecap="round" stroke-linejoin="round"/>
<path d="M588.35 717.083L594.5 721.223L596.03 722.253L600.92 725.543L640.38 752.113L657.3 732.263L616.19 723.213H616.18L599.45 719.523L593.84 718.294L588.35 717.083Z" stroke="#888888" stroke-width="0.6" stroke-miterlimit="10" stroke-linecap="round" stroke-linejoin="round"/>
<path d="M566.5 752.113L611.86 778.293L640.38 752.113H566.5Z" stroke="#888888" stroke-width="0.6" stroke-miterlimit="10" stroke-linecap="round" stroke-linejoin="round"/>
<path d="M693.92 801.813L663.73 827.293C663.73 827.293 625.2 791.643 625.95 791.643C626.71 791.643 693.92 801.813 693.92 801.813Z" stroke="#888888" stroke-width="0.6" stroke-miterlimit="10" stroke-linecap="round" stroke-linejoin="round"/>
<path d="M640.38 752.113L625.96 791.643L693.92 801.813L640.38 752.113Z" stroke="#888888" stroke-width="0.6" stroke-miterlimit="10" stroke-linecap="round" stroke-linejoin="round"/>
<path d="M553.66 901.043L652.39 886.703L676.13 842.013L641.65 849.373L561.48 896.453L553.66 901.043Z" stroke="#888888" stroke-width="0.6" stroke-miterlimit="10" stroke-linecap="round" stroke-linejoin="round"/>
<path d="M625.96 791.643L585.93 830.793L611.86 778.293L640.38 752.113L625.96 791.643Z" stroke="#888888" stroke-width="0.6" stroke-miterlimit="10" stroke-linecap="round" stroke-linejoin="round"/>
<path d="M641.66 849.363L585.93 830.793L625.96 791.643L663.73 827.293L641.66 849.363Z" stroke="#888888" stroke-width="0.6" stroke-miterlimit="10" stroke-linecap="round" stroke-linejoin="round"/>
<path d="M566.5 752.113C566.5 752.113 547.65 787.633 546.99 787.633C546.33 787.633 508.46 755.273 508.46 755.273L566.5 752.113Z" stroke="#888888" stroke-width="0.6" stroke-miterlimit="10" stroke-linecap="round" stroke-linejoin="round"/>
<path d="M463.43 778.963L546.99 787.643L509.12 755.843L508.46 755.283L463.43 778.963Z" stroke="#888888" stroke-width="0.6" stroke-miterlimit="10" stroke-linecap="round" stroke-linejoin="round"/>
<path d="M585.93 830.793L546.99 787.633L566.5 752.113L611.86 778.293L585.93 830.793Z" stroke="#888888" stroke-width="0.6" stroke-miterlimit="10" stroke-linecap="round" stroke-linejoin="round"/>
<path d="M528.28 877.673L478.86 832.173V832.183L502.37 895.963L535.45 899.243H535.46L553.65 901.043L528.28 877.673Z" stroke="#888888" stroke-width="0.6" stroke-miterlimit="10" stroke-linecap="round" stroke-linejoin="round"/>
<path d="M463.43 778.963L478.85 832.164V832.174H478.86L546.99 787.643L463.43 778.963Z" stroke="#888888" stroke-width="0.6" stroke-miterlimit="10" stroke-linecap="round" stroke-linejoin="round"/>
<path d="M478.86 832.173L585.93 830.793L546.99 787.643L478.86 832.173Z" stroke="#888888" stroke-width="0.6" stroke-miterlimit="10" stroke-linecap="round" stroke-linejoin="round"/>
<path d="M478.86 832.173V832.183L528.28 877.673L553.65 901.043L641.65 849.363L585.93 830.793L478.86 832.173Z" stroke="#888888" stroke-width="0.6" stroke-miterlimit="10" stroke-linecap="round" stroke-linejoin="round"/>
<path d="M566.5 752.103V752.113H640.38L600.92 725.543L596.03 722.253L594.5 721.223L588.35 717.083L582.81 725.963L566.5 752.103Z" stroke="#888888" stroke-width="0.6" stroke-miterlimit="10" stroke-linecap="round" stroke-linejoin="round"/>
<path d="M500.97 695.903L512.88 698.793L518.41 700.133L551.08 708.053L556.66 709.403L569.45 712.503L588.35 717.083L593.75 713.453L595.17 712.503L599.29 709.733L631.3 688.223L636.72 684.583L638.26 683.543L636.68 683.883L631.14 685.073L598.96 691.973L593.38 693.173L580.67 695.903H500.97Z" stroke="#888888" stroke-width="0.6" stroke-miterlimit="10" stroke-linecap="round" stroke-linejoin="round"/>
<path d="M500.97 695.903L508.46 700.833L512.62 703.563L514.43 704.753L518.04 707.133L518.34 707.333H518.35L519.37 708.003L534.56 717.983L540.81 722.093H540.82L542.92 724.553H542.93L566.5 752.103L582.81 725.963L588.35 717.083L569.45 712.503L556.66 709.403L551.08 708.053L518.41 700.133L512.88 698.793L500.97 695.903Z" stroke="#888888" stroke-width="0.6" stroke-miterlimit="10" stroke-linecap="round" stroke-linejoin="round"/>
<path d="M542.92 724.553L566.49 752.103H566.5L542.93 724.553H542.92Z" stroke="#888888" stroke-width="0.6" stroke-miterlimit="10" stroke-linecap="round" stroke-linejoin="round"/>
<path d="M540.81 722.093L542.91 724.553H542.92L540.82 722.093H540.81Z" stroke="#888888" stroke-width="0.6" stroke-miterlimit="10" stroke-linecap="round" stroke-linejoin="round"/>
<path d="M512.62 703.563V703.573L514.43 704.753L512.62 703.563Z" stroke="#888888" stroke-width="0.6" stroke-miterlimit="10" stroke-linecap="round" stroke-linejoin="round"/>
<path d="M500.96 695.903V695.913L508.46 700.833L500.97 695.903H500.96Z" stroke="#888888" stroke-width="0.6" stroke-miterlimit="10" stroke-linecap="round" stroke-linejoin="round"/>
<path d="M457.42 722.083L457.62 723.923L463.43 778.953L508.46 755.273L503.6 716.823L502.75 710.063L501.86 703.033L501.81 702.653L500.96 695.913V695.903L498.46 697.403L494.55 699.763H494.54L490.84 701.993H490.83L487.33 704.103L482.92 706.753L481.49 707.613L457.42 722.083Z" stroke="#888888" stroke-width="0.6" stroke-miterlimit="10" stroke-linecap="round" stroke-linejoin="round"/>
<path d="M434.9 699.443L442.71 707.293L457.42 722.083L481.49 707.613V707.603L482.92 706.753L487.33 704.103V704.093L490.83 701.993H490.84L494.54 699.763H494.55L498.46 697.403L491.66 692.073L486.37 687.923L474.25 678.423L472.04 676.693L469.22 678.423L465.84 680.493L443.96 693.893L434.9 699.443Z" stroke="#888888" stroke-width="0.6" stroke-miterlimit="10" stroke-linecap="round" stroke-linejoin="round"/>
<path d="M413.32 717.083L414.53 719.723L414.98 720.693L431.58 756.883L457.42 722.083L442.71 707.293L434.9 699.443L425.3 707.293L413.32 717.083Z" stroke="#888888" stroke-width="0.6" stroke-miterlimit="10" stroke-linecap="round" stroke-linejoin="round"/>
<path d="M386.39 792.503L463.43 778.953L457.42 722.083L431.58 756.883L386.39 792.503Z" stroke="#888888" stroke-width="0.6" stroke-miterlimit="10" stroke-linecap="round" stroke-linejoin="round"/>
<path d="M372.73 741.363L391.49 746.313L431.58 756.883L414.98 720.693L414.53 719.723L412.66 720.693L411.53 721.273L386.77 734.093L372.73 741.363Z" stroke="#888888" stroke-width="0.6" stroke-miterlimit="10" stroke-linecap="round" stroke-linejoin="round"/>
<path d="M358.98 758.293L361.06 760.893L386.39 792.503L431.58 756.883L391.49 746.313L372.73 741.363L367.75 747.493L358.98 758.293Z" stroke="#888888" stroke-width="0.6" stroke-miterlimit="10" stroke-linecap="round" stroke-linejoin="round"/>
<path d="M478.86 832.173L463.43 778.953L386.39 792.503L433.88 808.503L478.86 832.173Z" stroke="#888888" stroke-width="0.6" stroke-miterlimit="10" stroke-linecap="round" stroke-linejoin="round"/>
<path d="M325.88 766.933L329.71 774.293L331.36 777.453L348.26 809.904L358.44 760.893L358.98 758.293L349.02 760.893L325.88 766.933Z" stroke="#888888" stroke-width="0.6" stroke-miterlimit="10" stroke-linecap="round" stroke-linejoin="round"/>
<path d="M348.26 809.904L386.39 792.503L361.06 760.893L358.98 758.293L358.44 760.893L348.26 809.904Z" stroke="#888888" stroke-width="0.6" stroke-miterlimit="10" stroke-linecap="round" stroke-linejoin="round"/>
<path d="M348.26 809.903L478.85 832.174V832.164L433.88 808.503L386.39 792.503L348.26 809.903Z" stroke="#888888" stroke-width="0.6" stroke-miterlimit="10" stroke-linecap="round" stroke-linejoin="round"/>
<path d="M290.9 789.443L317.39 866.603L348.26 809.903L331.36 777.453L329.71 774.293L325.88 766.933L323.45 768.493L314.44 774.293L303.41 781.393L290.9 789.443Z" stroke="#888888" stroke-width="0.6" stroke-miterlimit="10" stroke-linecap="round" stroke-linejoin="round"/>
<path d="M371.46 877.013L479.68 905.213L535.45 899.243L502.37 895.953L371.46 877.013Z" stroke="#888888" stroke-width="0.6" stroke-miterlimit="10" stroke-linecap="round" stroke-linejoin="round"/>
<path d="M317.39 866.604C317.39 866.604 369.71 876.684 371.45 877.014L348.36 810.183L348.26 809.903L317.39 866.604Z" stroke="#888888" stroke-width="0.6" stroke-miterlimit="10" stroke-linecap="round" stroke-linejoin="round"/>
<path d="M371.46 877.013L502.37 895.953L478.87 832.193L478.86 832.173H478.85L371.5 876.993L371.46 877.013Z" stroke="#888888" stroke-width="0.6" stroke-miterlimit="10" stroke-linecap="round" stroke-linejoin="round"/>
<path d="M348.26 809.903L348.36 810.183L371.45 877.014H371.46L371.5 876.994L478.85 832.174L348.26 809.903Z" stroke="#888888" stroke-width="0.6" stroke-miterlimit="10" stroke-linecap="round" stroke-linejoin="round"/>
<path d="M555.8 216.443L556.4 225.903H593.94L594.54 216.443H555.8Z" stroke="#888888" stroke-width="0.6" stroke-miterlimit="10" stroke-linecap="round" stroke-linejoin="round"/>
<path d="M599.92 225.833H605.3V222.633C605.3 219.693 603.25 217.233 600.5 216.613L599.92 225.833Z" stroke="#888888" stroke-width="0.6" stroke-miterlimit="10" stroke-linecap="round" stroke-linejoin="round"/>
<path d="M545.04 230.703H605.3V230.714H545.04V230.703Z" stroke="#888888" stroke-width="0.6" stroke-miterlimit="10" stroke-linecap="round" stroke-linejoin="round"/>
<path d="M545.04 222.633V225.833H550.42L549.83 216.613C547.08 217.233 545.04 219.693 545.04 222.633Z" stroke="#888888" stroke-width="0.6" stroke-miterlimit="10" stroke-linecap="round" stroke-linejoin="round"/>
<path d="M462.83 301.513V319.543C462.83 320.203 463.36 320.743 464.03 320.743H686.31C686.97 320.743 687.51 320.203 687.51 319.543V301.513C687.51 300.853 686.97 300.313 686.31 300.313H464.03C463.36 300.313 462.83 300.853 462.83 301.513Z" stroke="#888888" stroke-width="0.6" stroke-miterlimit="10"/>
<path d="M623.04 272.323V275.343L621.97 272.323H623.04ZM623.04 272.323V275.343L621.97 272.323H623.04ZM623.04 258.133V269.123H605.3V258.133H623.04ZM623.04 258.133V269.123H605.3V258.133H623.04ZM623.04 272.323V283.313H605.3V272.323H623.04ZM635.43 272.323V283.313H630.5V272.323H635.43ZM623.04 258.133V269.123H605.3V258.133H623.04ZM623.04 272.323V283.313H605.3V272.323H623.04ZM635.43 235.213V254.933H630.5V246.873H623.04V254.933H605.3V235.213H635.43ZM623.04 272.323V283.313H605.3V272.323H623.04ZM623.04 258.133V269.123H605.3V258.133H623.04ZM635.43 269.123H630.5V258.133H635.43V269.123ZM623.04 286.513V300.313H630.5V286.513H635.43V300.323H605.3V286.513H623.04ZM623.04 272.323V283.313H605.3V272.323H623.04ZM623.04 258.133V269.123H605.3V258.133H623.04ZM623.04 258.133V269.123H605.3V258.133H623.04ZM623.04 272.323V275.343L621.97 272.323H623.04Z" stroke="#888888" stroke-width="0.6" stroke-miterlimit="10"/>
<path d="M571.44 272.323V283.313H545.04V272.323H571.44ZM571.44 272.323V283.313H545.04V272.323H571.44ZM571.44 272.323V283.313H545.04V272.323H571.44ZM571.44 272.323V283.313H545.04V272.323H571.44ZM571.44 286.513V300.313H578.9V286.513H605.3V300.323H545.04V286.513H571.44ZM578.9 283.313V272.323H605.3V283.313H578.9ZM571.44 272.323V283.313H545.04V272.323H571.44ZM605.3 258.133V269.123H578.9V258.133H605.3ZM605.3 235.213V254.933H578.9V246.873H571.44V254.933H545.04V235.213H605.3ZM571.44 272.323V283.313H545.04V272.323H571.44ZM571.44 258.133V269.123H545.04V258.133H571.44ZM571.44 272.323V283.313H545.04V272.323H571.44Z" stroke="#888888" stroke-width="0.6" stroke-miterlimit="10"/>
<path d="M528.37 272.323L527.3 275.343V272.323H528.37ZM528.37 272.323L527.3 275.343V272.323H528.37ZM545.04 272.323V283.313H527.3V272.323H545.04ZM545.04 258.133V269.123H527.3V258.133H545.04ZM545.04 272.323V283.313H527.3V272.323H545.04ZM533.38 258.133H545.04V269.123H530.45L529.97 267.773L533.38 258.133ZM545.04 235.213V254.933H527.3V246.873H519.84V254.933H514.91V235.213H545.04ZM545.04 258.133V269.123H530.45L529.97 267.773L533.38 258.133H545.04ZM545.04 272.323V283.313H527.3V272.323H545.04ZM545.04 258.133V269.123H527.3V258.133H545.04ZM545.04 272.323V283.313H527.3V272.323H545.04ZM519.84 286.513V300.313H527.3V286.513H545.04V300.323H514.91V286.513H519.84ZM519.84 258.133V269.123H514.91V258.133H519.84ZM519.84 272.323V283.313H514.91V272.323H519.84ZM528.37 272.323L527.3 275.343V272.323H528.37ZM528.37 272.323L527.3 275.343V272.323H528.37Z" stroke="#888888" stroke-width="0.6" stroke-miterlimit="10"/>
<path d="M560.78 283.313L570.95 272.323" stroke="#888888" stroke-width="0.6" stroke-miterlimit="10"/>
<path d="M552.1 292.693L557.82 286.513" stroke="#888888" stroke-width="0.6" stroke-miterlimit="10"/>
<path d="M587.04 254.933L598.23 242.843" stroke="#888888" stroke-width="0.6" stroke-miterlimit="10"/>
<path d="M578.9 263.733L584.08 258.133" stroke="#888888" stroke-width="0.6" stroke-miterlimit="10"/>
<path d="M566.25 258.133L571.44 263.743" stroke="#888888" stroke-width="0.6" stroke-miterlimit="10"/>
<path d="M552.1 242.843L563.29 254.933" stroke="#888888" stroke-width="0.6" stroke-miterlimit="10"/>
<path d="M579.38 272.323L589.55 283.313" stroke="#888888" stroke-width="0.6" stroke-miterlimit="10"/>
<path d="M592.51 286.513L598.23 292.693" stroke="#888888" stroke-width="0.6" stroke-miterlimit="10"/>
<path d="M529.5 269.123L529.97 267.773L533.38 258.133" stroke="#888888" stroke-width="0.6" stroke-miterlimit="10"/>
<path d="M534.51 254.933L538.78 242.843" stroke="#888888" stroke-width="0.6" stroke-miterlimit="10"/>
<path d="M527.3 275.343L528.37 272.323" stroke="#888888" stroke-width="0.6" stroke-miterlimit="10"/>
<path d="M521.17 242.843L522.59 246.873" stroke="#888888" stroke-width="0.6" stroke-miterlimit="10"/>
<path d="M536.6 286.513L538.78 292.693" stroke="#888888" stroke-width="0.6" stroke-miterlimit="10"/>
<path d="M527.3 260.193L529.97 267.773L530.45 269.123" stroke="#888888" stroke-width="0.6" stroke-miterlimit="10"/>
<path d="M531.58 272.323L535.47 283.313" stroke="#888888" stroke-width="0.6" stroke-miterlimit="10"/>
<path d="M623.04 260.193L620.36 267.773L619.89 269.123" stroke="#888888" stroke-width="0.6" stroke-miterlimit="10"/>
<path d="M611.56 292.693L613.74 286.513" stroke="#888888" stroke-width="0.6" stroke-miterlimit="10"/>
<path d="M614.87 283.313L618.76 272.323" stroke="#888888" stroke-width="0.6" stroke-miterlimit="10"/>
<path d="M627.75 246.873L629.17 242.843" stroke="#888888" stroke-width="0.6" stroke-miterlimit="10"/>
<path d="M616.96 258.133L620.36 267.773L620.84 269.123" stroke="#888888" stroke-width="0.6" stroke-miterlimit="10"/>
<path d="M621.97 272.323L623.04 275.343" stroke="#888888" stroke-width="0.6" stroke-miterlimit="10"/>
<path d="M611.56 242.843L615.83 254.933" stroke="#888888" stroke-width="0.6" stroke-miterlimit="10"/>
<path d="M630.5 254.933H674.64V258.133H630.5V254.933Z" stroke="#888888" stroke-width="0.6" stroke-miterlimit="10"/>
<path d="M578.9 254.933H623.04V258.133H578.9V254.933Z" stroke="#888888" stroke-width="0.6" stroke-miterlimit="10"/>
<path d="M527.3 254.933H571.44V258.133H527.3V254.933Z" stroke="#888888" stroke-width="0.6" stroke-miterlimit="10"/>
<path d="M475.69 254.933H519.84V258.133H475.69V254.933Z" stroke="#888888" stroke-width="0.6" stroke-miterlimit="10"/>
<path d="M465.38 255.483V257.583C465.38 257.883 465.63 258.133 465.93 258.133H468.23V254.933H465.93C465.63 254.933 465.38 255.173 465.38 255.483Z" stroke="#888888" stroke-width="0.6" stroke-miterlimit="10"/>
<path d="M630.5 269.123H674.64V272.323H630.5V269.123Z" stroke="#888888" stroke-width="0.6" stroke-miterlimit="10"/>
<path d="M578.9 269.123H623.04V272.323H578.9V269.123Z" stroke="#888888" stroke-width="0.6" stroke-miterlimit="10"/>
<path d="M527.3 269.123H571.44V272.323H527.3V269.123Z" stroke="#888888" stroke-width="0.6" stroke-miterlimit="10"/>
<path d="M475.69 269.123H519.84V272.323H475.69V269.123Z" stroke="#888888" stroke-width="0.6" stroke-miterlimit="10"/>
<path d="M465.38 269.673V271.773C465.38 272.073 465.63 272.323 465.93 272.323H468.23V269.123H465.93C465.63 269.123 465.38 269.363 465.38 269.673Z" stroke="#888888" stroke-width="0.6" stroke-miterlimit="10"/>
<path d="M630.5 283.313H674.64V286.513H630.5V283.313Z" stroke="#888888" stroke-width="0.6" stroke-miterlimit="10"/>
<path d="M578.9 283.313H623.04V286.513H578.9V283.313Z" stroke="#888888" stroke-width="0.6" stroke-miterlimit="10"/>
<path d="M527.3 283.313H571.44V286.513H527.3V283.313Z" stroke="#888888" stroke-width="0.6" stroke-miterlimit="10"/>
<path d="M475.69 283.313H519.84V286.513H475.69V283.313Z" stroke="#888888" stroke-width="0.6" stroke-miterlimit="10"/>
<path d="M465.38 283.863V285.963C465.38 286.263 465.63 286.513 465.93 286.513H468.23V283.313H465.93C465.63 283.313 465.38 283.553 465.38 283.863Z" stroke="#888888" stroke-width="0.6" stroke-miterlimit="10"/>
<path d="M511.26 230.713H639.09V235.223H511.26V230.713Z" stroke="#888888" stroke-width="0.6" stroke-miterlimit="10" stroke-linecap="round" stroke-linejoin="round"/>
<path d="M600.5 216.613L604.03 160.883L604.3 156.663H647.59L646.59 160.883L631.16 225.833H599.92L600.5 216.613ZM600.5 216.613L604.03 160.883L604.3 156.663H647.59L646.59 160.883L631.16 225.833H599.92L600.5 216.613ZM601.55 151.793V151.783H650.96V151.793L649.82 156.593H601.25L601.55 151.793Z" stroke="#888888" stroke-width="0.6" stroke-miterlimit="10" stroke-linecap="round" stroke-linejoin="round"/>
<path d="M597.45 216.443L601.25 156.593H649.82L632.21 230.703H596.55L597.45 216.443ZM631.16 225.833L646.59 160.883L647.59 156.663H604.3L604.03 160.883L600.5 216.613L599.92 225.833H631.16Z" stroke="#888888" stroke-width="0.6" stroke-miterlimit="10" stroke-linecap="round" stroke-linejoin="round"/>
<path d="M546.04 156.663L546.3 160.883L549.83 216.613L550.42 225.833H519.18L503.75 160.883L502.75 156.663H546.04ZM548.79 151.783V151.793L549.09 156.593H500.52L499.38 151.793V151.783H548.79ZM546.3 160.883L549.83 216.613L550.42 225.833H519.18L503.75 160.883L502.75 156.663H546.04L546.3 160.883Z" stroke="#888888" stroke-width="0.6" stroke-miterlimit="10" stroke-linecap="round" stroke-linejoin="round"/>
<path d="M549.09 156.593L552.89 216.443L553.79 230.703H518.13L500.52 156.593H549.09ZM519.18 225.833H550.42L549.83 216.613L546.3 160.883L546.04 156.663H502.75L503.75 160.883L519.18 225.833Z" stroke="#888888" stroke-width="0.6" stroke-miterlimit="10" stroke-linecap="round" stroke-linejoin="round"/>
<path d="M598.34 156.593L594.54 216.443L593.94 225.903H556.4L555.8 216.443L552 156.593H598.34ZM601.55 151.783V151.793L601.25 156.593H598.34L594.54 216.443L593.94 225.903H556.4L555.8 216.443L552 156.593H549.09L548.79 151.793V151.783H601.55Z" stroke="#888888" stroke-width="0.6" stroke-miterlimit="10" stroke-linecap="round" stroke-linejoin="round"/>
<path d="M549.09 156.593L552.89 216.443L553.79 230.703H596.55L597.45 216.443L601.25 156.593H598.34L594.54 216.443L593.94 225.903H556.4L555.8 216.443L552 156.593H549.09Z" stroke="#888888" stroke-width="0.6" stroke-miterlimit="10" stroke-linecap="round" stroke-linejoin="round"/>
<path d="M492.45 151.793H657.89L661.89 143.983H488.45L492.45 151.793Z" stroke="#888888" stroke-width="0.6" stroke-miterlimit="10" stroke-linecap="round" stroke-linejoin="round"/>
<path d="M496.45 136.173H653.89L661.89 143.983H488.45L496.45 136.173Z" stroke="#888888" stroke-width="0.6" stroke-miterlimit="10" stroke-linecap="round" stroke-linejoin="round"/>
<path d="M545.04 136.173H605.3L580.15 90.4534H569.14L545.04 136.173Z" stroke="#888888" stroke-width="0.6" stroke-miterlimit="10" stroke-linecap="round" stroke-linejoin="round"/>
<path d="M502.83 136.173H545.04L569.14 90.4534H561.43L502.83 136.173Z" stroke="#888888" stroke-width="0.6" stroke-miterlimit="10" stroke-linecap="round" stroke-linejoin="round"/>
<path d="M580.15 90.4534L605.3 136.173H647.51L587.86 90.4534H580.15Z" stroke="#888888" stroke-width="0.6" stroke-miterlimit="10" stroke-linecap="round" stroke-linejoin="round"/>
<path d="M566.63 90.4534H582.93L579.88 84.3334L574.61 73.7634L569.72 83.9834L566.63 90.4534Z" stroke="#888888" stroke-width="0.6" stroke-miterlimit="10" stroke-linecap="round" stroke-linejoin="round"/>
<path d="M555.21 90.4534H566.63L569.72 83.9834L574.61 73.7634L555.21 90.4534Z" stroke="#888888" stroke-width="0.6" stroke-miterlimit="10" stroke-linecap="round" stroke-linejoin="round"/>
<path d="M574.61 73.7634L579.88 84.3334L582.93 90.4534H594.35L574.61 73.7634Z" stroke="#888888" stroke-width="0.6" stroke-miterlimit="10" stroke-linecap="round" stroke-linejoin="round"/>
<path d="M499.38 151.783V151.793L500.52 156.593H649.82L650.96 151.793V151.783H499.38Z" stroke="#888888" stroke-width="0.6" stroke-miterlimit="10" stroke-linecap="round" stroke-linejoin="round"/>
<path d="M468.9 320.743L472.9 328.403H677.43L681.43 320.743H468.9Z" stroke="#888888" stroke-width="0.6" stroke-miterlimit="10"/>
<path d="M468.23 246.873H475.69V300.313H468.23V246.873Z" stroke="#888888" stroke-width="0.6" stroke-miterlimit="10"/>
<path d="M468.23 300.313H475.69V300.325H468.23V300.313Z" stroke="#888888" stroke-width="0.6" stroke-miterlimit="10"/>
<path d="M519.84 246.873H527.3V300.313H519.84V246.873Z" stroke="#888888" stroke-width="0.6" stroke-miterlimit="10"/>
<path d="M519.84 300.313H527.3V300.325H519.84V300.313Z" stroke="#888888" stroke-width="0.6" stroke-miterlimit="10"/>
<path d="M571.44 246.873H578.9V300.313H571.44V246.873Z" stroke="#888888" stroke-width="0.6" stroke-miterlimit="10"/>
<path d="M571.44 300.313H578.9V300.325H571.44V300.313Z" stroke="#888888" stroke-width="0.6" stroke-miterlimit="10"/>
<path d="M623.04 246.873H630.5V300.313H623.04V246.873Z" stroke="#888888" stroke-width="0.6" stroke-miterlimit="10"/>
<path d="M623.04 300.313H630.5V300.325H623.04V300.313Z" stroke="#888888" stroke-width="0.6" stroke-miterlimit="10"/>
<path d="M574.62 45.5133V24.4433C574.62 24.4433 558.3 17.2933 548.08 25.0833C537.87 32.8633 521.53 37.8433 513.36 30.6933C513.36 30.6933 529.19 47.8033 546.43 41.6733C560.98 36.5033 569.07 41.4233 574.62 45.5133ZM574.62 45.5133V73.7633" stroke="#888888" stroke-width="0.6" stroke-miterlimit="10" stroke-linecap="round" stroke-linejoin="round"/>
</svg>
