<svg width="128" height="268" viewBox="0 0 128 268" fill="none" xmlns="http://www.w3.org/2000/svg">
<path d="M36.1211 59.8909C36.7391 59.1469 37.2101 58.4659 37.8071 57.8869C39.1031 56.6299 39.3401 55.3249 38.2901 53.8639C38.0771 53.5699 37.9361 53.2339 37.7741 52.9129C36.8111 51.0079 37.0541 49.9609 38.7671 48.5179C39.8201 47.6299 40.8851 46.7509 41.8961 45.8269C42.4031 45.3649 42.8021 44.8129 43.2851 44.2639C43.5881 45.1579 43.4981 45.9949 43.1021 46.8019C42.8801 47.2519 42.5951 47.6809 42.2921 48.0919C41.2211 49.5409 41.2961 50.4139 42.6551 51.6709C43.5371 52.4869 44.4791 53.2549 45.3071 54.1099C45.8171 54.6349 46.2521 55.2499 46.5731 55.8829C47.0591 56.8429 46.6151 57.7189 46.0601 58.5739C45.4481 59.5159 44.7161 60.0019 43.3571 59.9269C41.0081 59.7979 38.6441 59.8909 36.1211 59.8909Z" fill="#E25822" stroke="#BBBBBB" stroke-miterlimit="10" stroke-linecap="round" stroke-linejoin="round"/>
<path d="M80.8871 199.148V203.168H80.8121L74.248 199.148H80.8871Z" stroke="#BBBBBB" stroke-miterlimit="10" stroke-linecap="round" stroke-linejoin="round"/>
<path d="M80.5811 155.336L77.7101 199.148H74.2481L73.2341 198.527L68.9531 155.336H80.5811Z" stroke="#BBBBBB" stroke-miterlimit="10" stroke-linecap="round" stroke-linejoin="round"/>
<path d="M12.1719 201.617C11.5929 201.995 10.9959 202.382 10.3989 202.772V202.736L12.1599 201.596L12.1719 201.617Z" stroke="#BBBBBB" stroke-miterlimit="10" stroke-linecap="round" stroke-linejoin="round"/>
<path d="M51.754 211.628H51.757L51.127 212.366H51.124L51.754 211.628Z" stroke="#BBBBBB" stroke-miterlimit="10" stroke-linecap="round" stroke-linejoin="round"/>
<path d="M58.1888 207.401L56.2538 208.676L53.6318 210.395L58.1888 207.401Z" stroke="#BBBBBB" stroke-miterlimit="10" stroke-linecap="round" stroke-linejoin="round"/>
<path d="M66.751 205.598L67.8009 206.228V206.231L66.751 205.598Z" stroke="#BBBBBB" stroke-miterlimit="10" stroke-linecap="round" stroke-linejoin="round"/>
<path d="M69.553 207.281V207.284L69.124 207.026L69.553 207.281Z" stroke="#BBBBBB" stroke-miterlimit="10" stroke-linecap="round" stroke-linejoin="round"/>
<path d="M73.234 198.527L72.388 198.008L71.725 198.527L61.3149 93.521H62.8239L68.9049 154.862L68.953 155.336L73.234 198.527Z" stroke="#BBBBBB" stroke-miterlimit="10" stroke-linecap="round" stroke-linejoin="round"/>
<path d="M21.5859 93.521L11.1999 198.275L10.1769 198.218L9.65789 198.869C9.64589 198.806 9.64589 198.74 9.65189 198.674L20.0769 93.521H21.5859V93.521Z" stroke="#BBBBBB" stroke-miterlimit="10" stroke-linecap="round" stroke-linejoin="round"/>
<path d="M60.0913 203.771H58.4083L52.5522 93.521H54.2353L60.0913 203.771Z" stroke="#BBBBBB" stroke-miterlimit="10" stroke-linecap="round" stroke-linejoin="round"/>
<path d="M60.2144 206.069V206.072L59.6714 206.426L60.2144 206.069Z" stroke="#BBBBBB" stroke-miterlimit="10" stroke-linecap="round" stroke-linejoin="round"/>
<path d="M67.8014 206.228V206.231L66.7515 205.598L67.8014 206.228Z" stroke="#BBBBBB" stroke-miterlimit="10" stroke-linecap="round" stroke-linejoin="round"/>
<path d="M68.0894 201.377L66.5024 202.622L57.9614 93.521H59.6474L68.0894 201.377Z" stroke="#BBBBBB" stroke-miterlimit="10" stroke-linecap="round" stroke-linejoin="round"/>
<path d="M48.607 203.771H46.927L44.833 93.521H46.516L48.607 203.771Z" stroke="#BBBBBB" stroke-miterlimit="10" stroke-linecap="round" stroke-linejoin="round"/>
<path d="M37.987 93.521L35.986 202.952L34.312 202.592L36.304 93.521H37.987Z" stroke="#BBBBBB" stroke-miterlimit="10" stroke-linecap="round" stroke-linejoin="round"/>
<path d="M30.2711 93.521L24.6581 200.522L22.9961 200.165L28.5881 93.521H30.2711Z" stroke="#BBBBBB" stroke-miterlimit="10" stroke-linecap="round" stroke-linejoin="round"/>
<path d="M16.0152 199.1C15.6762 199.322 15.3132 199.562 14.9292 199.814V199.802L16.0152 199.1Z" stroke="#BBBBBB" stroke-miterlimit="10" stroke-linecap="round" stroke-linejoin="round"/>
<path d="M24.8593 93.521L16.7113 198.578L15.0312 198.485L23.1733 93.521H24.8593Z" stroke="#BBBBBB" stroke-miterlimit="10" stroke-linecap="round" stroke-linejoin="round"/>
<path d="M86.902 203.168V207.188H86.41L83.53 204.833L80.812 203.168H86.902Z" stroke="#BBBBBB" stroke-miterlimit="10" stroke-linecap="round" stroke-linejoin="round"/>
<path d="M92.9142 207.188V211.208H90.2022L89.6411 210.917L90.0042 210.125L86.4102 207.188H92.9142Z" stroke="#BBBBBB" stroke-miterlimit="10" stroke-linecap="round" stroke-linejoin="round"/>
<path d="M98.926 211.208V215.228H97.969L90.541 211.382V211.208H98.926Z" stroke="#BBBBBB" stroke-miterlimit="10" stroke-linecap="round" stroke-linejoin="round"/>
<path d="M104.938 215.228V219.248H103.675L102.181 217.409L97.9692 215.228H104.938Z" stroke="#BBBBBB" stroke-miterlimit="10" stroke-linecap="round" stroke-linejoin="round"/>
<path d="M110.953 219.248V223.268H109.294L106.306 222.488L103.675 219.248H110.953Z" stroke="#BBBBBB" stroke-miterlimit="10" stroke-linecap="round" stroke-linejoin="round"/>
<path d="M116.965 223.268V225.548L116.236 225.08L109.294 223.268H116.965Z" stroke="#BBBBBB" stroke-miterlimit="10" stroke-linecap="round" stroke-linejoin="round"/>
<path d="M122.977 227.288V229.418L119.668 227.288H122.977Z" stroke="#BBBBBB" stroke-miterlimit="10" stroke-linecap="round" stroke-linejoin="round"/>
<path d="M85.7501 191.96C85.4321 192.041 85.1801 192.29 85.0961 192.608L80.5361 189.521C80.7281 189.353 80.8511 189.104 80.8511 188.828C80.8511 188.762 80.8451 188.696 80.8301 188.633L85.7501 191.96Z" stroke="#BBBBBB" stroke-miterlimit="10" stroke-linecap="round" stroke-linejoin="round"/>
<path d="M91.7232 196.001C91.4232 196.109 91.1952 196.367 91.1322 196.688L86.5332 193.58C86.7582 193.415 86.9022 193.148 86.9022 192.848C86.9022 192.809 86.8992 192.77 86.8932 192.734L91.7232 196.001Z" stroke="#BBBBBB" stroke-miterlimit="10" stroke-linecap="round" stroke-linejoin="round"/>
<path d="M97.7052 200.048C97.4172 200.177 97.2102 200.45 97.1742 200.777L92.5332 197.636C92.7852 197.474 92.9532 197.189 92.9532 196.868C92.9532 196.856 92.9532 196.844 92.9502 196.832L97.7052 200.048Z" stroke="#BBBBBB" stroke-miterlimit="10" stroke-linecap="round" stroke-linejoin="round"/>
<path d="M103.693 204.098C103.42 204.248 103.231 204.536 103.219 204.866L98.5273 201.692C98.8003 201.542 98.9893 201.254 99.0013 200.924L103.693 204.098Z" stroke="#BBBBBB" stroke-miterlimit="10" stroke-linecap="round" stroke-linejoin="round"/>
<path d="M109.267 208.922C109.267 208.934 109.267 208.949 109.27 208.961L104.521 205.748V205.739C104.806 205.607 105.01 205.337 105.046 205.013L109.684 208.151C109.432 208.316 109.267 208.601 109.267 208.922Z" stroke="#BBBBBB" stroke-miterlimit="10" stroke-linecap="round" stroke-linejoin="round"/>
<path d="M115.318 212.942C115.318 212.981 115.321 213.02 115.327 213.059L110.572 209.84V209.759C110.836 209.636 111.031 209.396 111.088 209.102L115.684 212.21C115.462 212.375 115.318 212.642 115.318 212.942Z" stroke="#BBBBBB" stroke-miterlimit="10" stroke-linecap="round" stroke-linejoin="round"/>
<path d="M121.369 216.959C121.369 217.028 121.375 217.094 121.39 217.16L116.623 213.935V213.776C116.866 213.662 117.052 213.446 117.124 213.182L121.684 216.269C121.489 216.437 121.369 216.683 121.369 216.959Z" stroke="#BBBBBB" stroke-miterlimit="10" stroke-linecap="round" stroke-linejoin="round"/>
<path d="M80.317 189.662V199.151H79.543V189.662C79.66 189.719 79.792 189.749 79.93 189.749C80.0679 189.749 80.2 189.719 80.317 189.662Z" stroke="#BBBBBB" stroke-miterlimit="10" stroke-linecap="round" stroke-linejoin="round"/>
<path d="M80.8512 188.828C80.8512 189.104 80.7282 189.353 80.5362 189.521C80.4702 189.578 80.3982 189.626 80.3172 189.662C80.2002 189.719 80.0682 189.749 79.9302 189.749C79.7922 189.749 79.6602 189.719 79.5432 189.662C79.2282 189.518 79.0122 189.2 79.0122 188.828C79.0122 188.321 79.4232 187.91 79.9302 187.91C80.3682 187.91 80.7402 188.219 80.8302 188.633C80.8452 188.696 80.8512 188.762 80.8512 188.828Z" stroke="#BBBBBB" stroke-miterlimit="10" stroke-linecap="round" stroke-linejoin="round"/>
<path d="M86.3678 193.679V203.168H85.5938V193.679C85.7107 193.736 85.8428 193.766 85.9808 193.766C86.1188 193.766 86.2508 193.736 86.3678 193.679Z" stroke="#BBBBBB" stroke-miterlimit="10" stroke-linecap="round" stroke-linejoin="round"/>
<path d="M86.902 192.848C86.902 193.148 86.758 193.415 86.533 193.58C86.482 193.619 86.428 193.652 86.368 193.679C86.251 193.736 86.119 193.766 85.981 193.766C85.843 193.766 85.711 193.736 85.594 193.679C85.279 193.535 85.063 193.217 85.063 192.848C85.063 192.764 85.075 192.683 85.096 192.608C85.18 192.29 85.432 192.041 85.75 191.96C85.822 191.939 85.9 191.93 85.981 191.93C86.449 191.93 86.839 192.281 86.893 192.734C86.899 192.77 86.902 192.809 86.902 192.848Z" stroke="#BBBBBB" stroke-miterlimit="10" stroke-linecap="round" stroke-linejoin="round"/>
<path d="M92.4195 197.699V207.188H91.6455V197.699C91.7625 197.756 91.8945 197.786 92.0325 197.786C92.1705 197.786 92.3025 197.756 92.4195 197.699Z" stroke="#BBBBBB" stroke-miterlimit="10" stroke-linecap="round" stroke-linejoin="round"/>
<path d="M92.9533 196.868C92.9533 197.189 92.7853 197.474 92.5333 197.636C92.4973 197.66 92.4583 197.681 92.4193 197.699C92.3023 197.756 92.1703 197.786 92.0323 197.786C91.8943 197.786 91.7623 197.756 91.6453 197.699C91.3303 197.555 91.1143 197.237 91.1143 196.868C91.1143 196.805 91.1203 196.745 91.1323 196.688C91.1953 196.367 91.4232 196.109 91.7232 196.001C91.8192 195.965 91.9243 195.947 92.0323 195.947C92.5273 195.947 92.9323 196.337 92.9503 196.832C92.9533 196.844 92.9533 196.856 92.9533 196.868Z" stroke="#BBBBBB" stroke-miterlimit="10" stroke-linecap="round" stroke-linejoin="round"/>
<path d="M98.4703 201.722V211.205H97.6963V201.719C97.8133 201.776 97.9453 201.806 98.0833 201.806C98.2213 201.806 98.3533 201.776 98.4703 201.722Z" stroke="#BBBBBB" stroke-miterlimit="10" stroke-linecap="round" stroke-linejoin="round"/>
<path d="M99.004 200.885C99.004 200.897 99.004 200.912 99.001 200.924C98.989 201.254 98.8 201.542 98.527 201.692C98.506 201.704 98.488 201.713 98.47 201.722C98.353 201.776 98.221 201.806 98.083 201.806C97.945 201.806 97.813 201.776 97.696 201.719C97.381 201.572 97.165 201.254 97.165 200.885C97.165 200.849 97.168 200.813 97.174 200.777C97.21 200.45 97.417 200.177 97.705 200.048C97.819 199.997 97.948 199.967 98.083 199.967C98.593 199.967 99.004 200.378 99.004 200.885Z" stroke="#BBBBBB" stroke-miterlimit="10" stroke-linecap="round" stroke-linejoin="round"/>
<path d="M104.521 205.739V215.225H103.747V205.736C103.864 205.793 103.996 205.823 104.134 205.823C104.269 205.823 104.395 205.796 104.512 205.742C104.515 205.742 104.518 205.739 104.521 205.739Z" stroke="#BBBBBB" stroke-miterlimit="10" stroke-linecap="round" stroke-linejoin="round"/>
<path d="M105.055 204.905C105.055 204.941 105.052 204.977 105.046 205.013C105.01 205.337 104.806 205.607 104.521 205.739C104.518 205.739 104.515 205.742 104.512 205.742C104.395 205.796 104.269 205.823 104.134 205.823C103.996 205.823 103.864 205.793 103.747 205.736C103.432 205.592 103.216 205.274 103.216 204.905C103.216 204.893 103.216 204.878 103.219 204.866C103.231 204.536 103.42 204.248 103.693 204.098C103.825 204.023 103.975 203.984 104.134 203.984C104.644 203.984 105.055 204.398 105.055 204.905Z" stroke="#BBBBBB" stroke-miterlimit="10" stroke-linecap="round" stroke-linejoin="round"/>
<path d="M110.572 209.759V219.242H109.798V209.756C109.915 209.813 110.047 209.843 110.185 209.843C110.293 209.843 110.398 209.825 110.494 209.789C110.521 209.78 110.545 209.771 110.572 209.759Z" stroke="#BBBBBB" stroke-miterlimit="10" stroke-linecap="round" stroke-linejoin="round"/>
<path d="M111.106 208.922C111.106 208.985 111.1 209.045 111.088 209.102C111.031 209.396 110.836 209.636 110.572 209.759C110.545 209.771 110.521 209.78 110.494 209.789C110.398 209.825 110.293 209.843 110.185 209.843C110.047 209.843 109.915 209.813 109.798 209.756C109.495 209.615 109.282 209.315 109.27 208.961C109.267 208.949 109.267 208.934 109.267 208.922C109.267 208.601 109.432 208.316 109.684 208.151C109.828 208.058 109.999 208.004 110.185 208.004C110.695 208.004 111.106 208.415 111.106 208.922Z" stroke="#BBBBBB" stroke-miterlimit="10" stroke-linecap="round" stroke-linejoin="round"/>
<path d="M116.624 213.776V223.262H115.85V213.773C115.967 213.83 116.099 213.86 116.237 213.86C116.318 213.86 116.393 213.851 116.468 213.83C116.522 213.818 116.573 213.8 116.624 213.776Z" stroke="#BBBBBB" stroke-miterlimit="10" stroke-linecap="round" stroke-linejoin="round"/>
<path d="M117.157 212.942C117.157 213.026 117.145 213.107 117.124 213.182C117.052 213.446 116.866 213.662 116.623 213.776C116.572 213.8 116.521 213.818 116.467 213.83C116.392 213.851 116.317 213.86 116.236 213.86C116.098 213.86 115.966 213.83 115.849 213.773C115.57 213.644 115.366 213.377 115.327 213.059C115.321 213.02 115.318 212.981 115.318 212.942C115.318 212.642 115.462 212.375 115.684 212.21C115.837 212.093 116.029 212.021 116.236 212.021C116.746 212.021 117.157 212.435 117.157 212.942Z" stroke="#BBBBBB" stroke-miterlimit="10" stroke-linecap="round" stroke-linejoin="round"/>
<path d="M122.674 217.796V227.282H121.9V217.793C122.017 217.85 122.149 217.88 122.287 217.88C122.425 217.88 122.557 217.85 122.674 217.796Z" stroke="#BBBBBB" stroke-miterlimit="10" stroke-linecap="round" stroke-linejoin="round"/>
<path d="M123.208 216.959C123.208 217.331 122.989 217.649 122.674 217.796C122.557 217.85 122.425 217.88 122.287 217.88C122.149 217.88 122.017 217.85 121.9 217.793C121.645 217.676 121.453 217.442 121.39 217.16C121.375 217.094 121.369 217.028 121.369 216.959C121.369 216.683 121.489 216.437 121.684 216.269C121.843 216.125 122.053 216.041 122.287 216.041C122.797 216.041 123.208 216.452 123.208 216.959Z" stroke="#BBBBBB" stroke-miterlimit="10" stroke-linecap="round" stroke-linejoin="round"/>
<path d="M63.7122 203.774L63.4572 205.796L63.4422 205.91L63.1752 208.019L62.9202 210.047L61.4622 221.582V221.585L44.0532 220.631L51.1242 212.366H51.1272L51.7572 211.628L53.6322 210.395L56.2542 208.676L58.1892 207.401L58.4952 207.2H58.4982L58.5912 207.185L58.5882 207.14L59.6712 206.426L60.2142 206.072V206.069L61.4622 205.25L63.7122 203.774Z" stroke="#BBBBBB" stroke-miterlimit="10" stroke-linecap="round" stroke-linejoin="round"/>
<path d="M51.1208 212.366H51.1238L44.0528 220.631H44.0498L51.1208 212.366Z" stroke="#BBBBBB" stroke-miterlimit="10" stroke-linecap="round" stroke-linejoin="round"/>
<path d="M51.754 211.628H51.757L51.127 212.366H51.124L51.754 211.628Z" stroke="#BBBBBB" stroke-miterlimit="10" stroke-linecap="round" stroke-linejoin="round"/>
<path d="M58.588 207.14L58.591 207.185L58.498 207.2L58.588 207.14Z" stroke="#BBBBBB" stroke-miterlimit="10" stroke-linecap="round" stroke-linejoin="round"/>
<path d="M59.6709 206.426L60.2139 206.069V206.072L59.6709 206.426Z" stroke="#BBBBBB" stroke-miterlimit="10" stroke-linecap="round" stroke-linejoin="round"/>
<path d="M63.7119 203.771V203.774L61.4619 205.25L63.7089 203.771H63.7119Z" stroke="#BBBBBB" stroke-miterlimit="10" stroke-linecap="round" stroke-linejoin="round"/>
<path d="M37.4949 210.125L35.8569 210.056L34.1769 209.984L23.9259 209.543L22.7979 209.495L18.0879 209.294L1.27295 208.574C1.34795 208.559 1.77694 208.304 2.45794 207.881C4.12894 206.843 7.30594 204.788 10.3989 202.772C10.9959 202.382 11.5929 201.995 12.1719 201.617C13.1499 200.978 14.0889 200.363 14.9289 199.814C15.3129 199.562 15.6759 199.322 16.0149 199.1L16.3449 198.884L16.7049 198.653V198.65L16.8069 198.584H16.8099C17.9019 197.864 18.5829 197.417 18.5829 197.417L22.5219 200.063L22.9839 200.375L24.6099 201.467L34.2129 207.92L35.4489 208.751L35.8749 209.036L37.4949 210.125Z" stroke="#BBBBBB" stroke-miterlimit="10" stroke-linecap="round" stroke-linejoin="round"/>
<path d="M16.807 198.584L16.705 198.65V198.653L16.345 198.884L16.015 199.1L14.929 199.802L12.16 201.596L10.399 202.736L2.45801 207.881L9.658 198.869L10.177 198.218L11.2 198.275L15.031 198.485L16.711 198.578L16.807 198.584Z" stroke="#BBBBBB" stroke-miterlimit="10" stroke-linecap="round" stroke-linejoin="round"/>
<path d="M16.8099 214.679L5.02295 217.781L1.27295 208.574L16.8099 214.679Z" stroke="#BBBBBB" stroke-miterlimit="10" stroke-linecap="round" stroke-linejoin="round"/>
<path d="M37.4949 210.125L35.8479 210.488L34.1649 210.857L29.1459 211.964H29.1429L16.8099 214.679L1.27295 208.574L18.0879 209.294L22.7979 209.495L23.9259 209.543L34.1769 209.984L35.8569 210.056L37.4949 210.125Z" stroke="#BBBBBB" stroke-miterlimit="10" stroke-linecap="round" stroke-linejoin="round"/>
<path d="M37.4951 210.125L35.6501 211.367L35.1911 211.676L33.7241 212.663L21.8861 220.634L16.8101 214.679L29.1431 211.964H29.1461L34.1651 210.857L35.8481 210.488L37.4951 210.125Z" stroke="#BBBBBB" stroke-miterlimit="10" stroke-linecap="round" stroke-linejoin="round"/>
<path d="M44.0502 220.634L30.4422 228.488L21.8862 220.634H44.0502Z" stroke="#BBBBBB" stroke-miterlimit="10" stroke-linecap="round" stroke-linejoin="round"/>
<path d="M5.02302 217.781L5.82402 235.544L1.27002 208.577L5.02302 217.781Z" stroke="#BBBBBB" stroke-miterlimit="10" stroke-linecap="round" stroke-linejoin="round"/>
<path d="M5.82394 235.544L16.8069 214.679L5.02295 217.781L5.82394 235.544Z" stroke="#BBBBBB" stroke-miterlimit="10" stroke-linecap="round" stroke-linejoin="round"/>
<path d="M5.82422 235.544L14.8812 243.188C14.8812 243.188 26.4402 232.493 26.2152 232.493C25.9872 232.493 5.82422 235.544 5.82422 235.544Z" stroke="#BBBBBB" stroke-miterlimit="10" stroke-linecap="round" stroke-linejoin="round"/>
<path d="M21.8862 220.634L26.2122 232.493L5.82422 235.544L21.8862 220.634Z" stroke="#BBBBBB" stroke-miterlimit="10" stroke-linecap="round" stroke-linejoin="round"/>
<path d="M21.8862 220.634L5.82422 235.544L16.8102 214.679L21.8862 220.634Z" stroke="#BBBBBB" stroke-miterlimit="10" stroke-linecap="round" stroke-linejoin="round"/>
<path d="M8.54525 237.839L14.8813 243.188L21.5023 249.809L7.86426 246.902L8.54525 237.839Z" stroke="#BBBBBB" stroke-miterlimit="10" stroke-linecap="round" stroke-linejoin="round"/>
<path d="M47.9021 265.313L18.2831 261.011L11.1611 247.604L21.5051 249.812L45.5561 263.936L47.9021 265.313Z" stroke="#BBBBBB" stroke-miterlimit="10" stroke-linecap="round" stroke-linejoin="round"/>
<path d="M26.2122 232.493L38.2212 244.238L30.4422 228.488L21.8862 220.634L26.2122 232.493Z" stroke="#BBBBBB" stroke-miterlimit="10" stroke-linecap="round" stroke-linejoin="round"/>
<path d="M21.5019 249.809L38.2209 244.238L26.2119 232.493L14.8809 243.188L21.5019 249.809Z" stroke="#BBBBBB" stroke-miterlimit="10" stroke-linecap="round" stroke-linejoin="round"/>
<path d="M44.0498 220.634C44.0498 220.634 49.7048 231.29 49.9028 231.29C50.1008 231.29 61.4618 221.582 61.4618 221.582L44.0498 220.634Z" stroke="#BBBBBB" stroke-miterlimit="10" stroke-linecap="round" stroke-linejoin="round"/>
<path d="M74.9708 228.689L49.9028 231.293L61.2638 221.753L61.4618 221.585L74.9708 228.689Z" stroke="#BBBBBB" stroke-miterlimit="10" stroke-linecap="round" stroke-linejoin="round"/>
<path d="M38.2209 244.238L49.9029 231.29L44.0499 220.634L30.4419 228.488L38.2209 244.238Z" stroke="#BBBBBB" stroke-miterlimit="10" stroke-linecap="round" stroke-linejoin="round"/>
<path d="M55.5158 258.302L70.3418 244.652V244.655L63.2888 263.789L53.3648 264.773H53.3618L47.9048 265.313L55.5158 258.302Z" stroke="#BBBBBB" stroke-miterlimit="10" stroke-linecap="round" stroke-linejoin="round"/>
<path d="M74.9708 228.689L70.3448 244.649V244.652H70.3418L49.9028 231.293L74.9708 228.689Z" stroke="#BBBBBB" stroke-miterlimit="10" stroke-linecap="round" stroke-linejoin="round"/>
<path d="M70.3422 244.652L38.2212 244.238L49.9032 231.293L70.3422 244.652Z" stroke="#BBBBBB" stroke-miterlimit="10" stroke-linecap="round" stroke-linejoin="round"/>
<path d="M70.3419 244.652V244.655L55.5159 258.302L47.9049 265.313L21.5049 249.809L38.2209 244.238L70.3419 244.652Z" stroke="#BBBBBB" stroke-miterlimit="10" stroke-linecap="round" stroke-linejoin="round"/>
<path d="M44.0502 220.631V220.634H21.8862L33.7242 212.663L35.1912 211.676L35.6502 211.367L37.4952 210.125L39.1572 212.789L44.0502 220.631Z" stroke="#BBBBBB" stroke-miterlimit="10" stroke-linecap="round" stroke-linejoin="round"/>
<path d="M63.709 203.771L60.136 204.638L58.477 205.04L48.676 207.416L47.002 207.821L43.165 208.751L37.495 210.125L35.875 209.036L35.449 208.751L34.213 207.92L24.61 201.467L22.984 200.375L22.522 200.063L22.996 200.165L24.658 200.522L34.312 202.592L35.986 202.952L39.799 203.771H63.709Z" stroke="#BBBBBB" stroke-miterlimit="10" stroke-linecap="round" stroke-linejoin="round"/>
<path d="M63.7091 203.771L61.4621 205.25L60.2141 206.069L59.6711 206.426L58.5881 207.14L58.4981 207.2H58.4951L58.1891 207.401L53.6321 210.395L51.7571 211.628H51.7541L51.1241 212.366H51.1211L44.0501 220.631L39.1571 212.789L37.4951 210.125L43.1651 208.751L47.0021 207.821L48.6761 207.416L58.4771 205.04L60.1361 204.638L63.7091 203.771Z" stroke="#BBBBBB" stroke-miterlimit="10" stroke-linecap="round" stroke-linejoin="round"/>
<path d="M51.1238 212.366L44.0528 220.631H44.0498L51.1208 212.366H51.1238Z" stroke="#BBBBBB" stroke-miterlimit="10" stroke-linecap="round" stroke-linejoin="round"/>
<path d="M51.757 211.628L51.127 212.366H51.124L51.754 211.628H51.757Z" stroke="#BBBBBB" stroke-miterlimit="10" stroke-linecap="round" stroke-linejoin="round"/>
<path d="M60.2139 206.069V206.072L59.6709 206.426L60.2139 206.069Z" stroke="#BBBBBB" stroke-miterlimit="10" stroke-linecap="round" stroke-linejoin="round"/>
<path d="M63.7119 203.771V203.774L61.4619 205.25L63.7089 203.771H63.7119Z" stroke="#BBBBBB" stroke-miterlimit="10" stroke-linecap="round" stroke-linejoin="round"/>
<path d="M76.7739 211.625L76.7139 212.177L74.9709 228.686L61.4619 221.582L62.9199 210.047L63.1749 208.019L63.4419 205.91L63.4569 205.796L63.7119 203.774V203.771L64.4619 204.221L65.6349 204.929H65.6379L66.7479 205.598H66.7509L67.8009 206.231L69.1239 207.026L69.5529 207.284L76.7739 211.625Z" stroke="#BBBBBB" stroke-miterlimit="10" stroke-linecap="round" stroke-linejoin="round"/>
<path d="M83.5299 204.833L81.1869 207.188L76.7739 211.625L69.5529 207.284V207.281L69.1239 207.026L67.8009 206.231V206.228L66.7509 205.598H66.7479L65.6379 204.929H65.6349L64.4619 204.221L66.5019 202.622L68.0889 201.377L71.7249 198.527L72.3879 198.008L73.2339 198.527L74.2479 199.148L80.8119 203.168L83.5299 204.833Z" stroke="#BBBBBB" stroke-miterlimit="10" stroke-linecap="round" stroke-linejoin="round"/>
<path d="M90.0039 210.125L89.6409 210.917L89.5059 211.208L84.5259 222.065L76.7739 211.625L81.1869 207.188L83.5299 204.833L86.4099 207.188L90.0039 210.125Z" stroke="#BBBBBB" stroke-miterlimit="10" stroke-linecap="round" stroke-linejoin="round"/>
<path d="M98.0832 232.751L74.9712 228.686L76.7742 211.625L84.5262 222.065L98.0832 232.751Z" stroke="#BBBBBB" stroke-miterlimit="10" stroke-linecap="round" stroke-linejoin="round"/>
<path d="M102.181 217.409L96.5529 218.894L84.5259 222.065L89.5059 211.208L89.6409 210.917L90.2019 211.208L90.5409 211.382L97.9689 215.228L102.181 217.409Z" stroke="#BBBBBB" stroke-miterlimit="10" stroke-linecap="round" stroke-linejoin="round"/>
<path d="M106.306 222.488L105.682 223.268L98.0829 232.751L84.5259 222.065L96.5529 218.894L102.181 217.409L103.675 219.248L106.306 222.488Z" stroke="#BBBBBB" stroke-miterlimit="10" stroke-linecap="round" stroke-linejoin="round"/>
<path d="M70.3418 244.652L74.9708 228.686L98.0828 232.751L83.8358 237.551L70.3418 244.652Z" stroke="#BBBBBB" stroke-miterlimit="10" stroke-linecap="round" stroke-linejoin="round"/>
<path d="M116.236 225.08L115.087 227.288L114.592 228.236L109.522 237.971L106.468 223.268L106.306 222.488L109.294 223.268L116.236 225.08Z" stroke="#BBBBBB" stroke-miterlimit="10" stroke-linecap="round" stroke-linejoin="round"/>
<path d="M109.522 237.971L98.083 232.751L105.682 223.268L106.306 222.488L106.468 223.268L109.522 237.971Z" stroke="#BBBBBB" stroke-miterlimit="10" stroke-linecap="round" stroke-linejoin="round"/>
<path d="M109.522 237.971L70.3452 244.652V244.649L83.8362 237.551L98.0832 232.751L109.522 237.971Z" stroke="#BBBBBB" stroke-miterlimit="10" stroke-linecap="round" stroke-linejoin="round"/>
<path d="M126.73 231.833L118.783 254.981L109.522 237.971L114.592 228.236L115.087 227.288L116.236 225.08L116.965 225.548L119.668 227.288L122.977 229.418L126.73 231.833Z" stroke="#BBBBBB" stroke-miterlimit="10" stroke-linecap="round" stroke-linejoin="round"/>
<path d="M102.562 258.104L70.0962 266.564L53.3652 264.773L63.2892 263.786L102.562 258.104Z" stroke="#BBBBBB" stroke-miterlimit="10" stroke-linecap="round" stroke-linejoin="round"/>
<path d="M118.783 254.981C118.783 254.981 103.087 258.005 102.565 258.104L109.492 238.055L109.522 237.971L118.783 254.981Z" stroke="#BBBBBB" stroke-miterlimit="10" stroke-linecap="round" stroke-linejoin="round"/>
<path d="M102.562 258.104L63.2891 263.786L70.3391 244.658L70.3421 244.652H70.3451L102.55 258.098L102.562 258.104Z" stroke="#BBBBBB" stroke-miterlimit="10" stroke-linecap="round" stroke-linejoin="round"/>
<path d="M109.522 237.971L109.492 238.055L102.565 258.104H102.562L102.55 258.098L70.3452 244.652L109.522 237.971Z" stroke="#BBBBBB" stroke-miterlimit="10" stroke-linecap="round" stroke-linejoin="round"/>
<path d="M47.2602 59.933L47.0802 62.771H35.8182L35.6382 59.933H47.2602Z" stroke="#BBBBBB" stroke-miterlimit="10" stroke-linecap="round" stroke-linejoin="round"/>
<path d="M34.0241 62.75H32.4102V61.79C32.4102 60.908 33.0251 60.17 33.8501 59.984L34.0241 62.75Z" stroke="#BBBBBB" stroke-miterlimit="10" stroke-linecap="round" stroke-linejoin="round"/>
<path d="M50.4881 64.2109H32.4102V64.214H50.4881V64.2109Z" stroke="#BBBBBB" stroke-miterlimit="10" stroke-linecap="round" stroke-linejoin="round"/>
<path d="M50.488 61.79V62.75H48.874L49.051 59.984C49.876 60.17 50.488 60.908 50.488 61.79Z" stroke="#BBBBBB" stroke-miterlimit="10" stroke-linecap="round" stroke-linejoin="round"/>
<path d="M75.1511 85.454V90.863C75.1511 91.061 74.9921 91.223 74.7911 91.223H8.10707C7.90907 91.223 7.74707 91.061 7.74707 90.863V85.454C7.74707 85.256 7.90907 85.094 8.10707 85.094H74.7911C74.9921 85.094 75.1511 85.256 75.1511 85.454Z" stroke="#BBBBBB" stroke-miterlimit="10"/>
<path d="M27.0881 76.697V77.603L27.4091 76.697H27.0881ZM27.0881 76.697V77.603L27.4091 76.697H27.0881ZM27.0881 72.44V75.737H32.4101V72.44H27.0881ZM27.0881 72.44V75.737H32.4101V72.44H27.0881ZM27.0881 76.697V79.994H32.4101V76.697H27.0881ZM23.3711 76.697V79.994H24.8501V76.697H23.3711ZM27.0881 72.44V75.737H32.4101V72.44H27.0881ZM27.0881 76.697V79.994H32.4101V76.697H27.0881ZM23.3711 65.564V71.48H24.8501V69.062H27.0881V71.48H32.4101V65.564H23.3711ZM27.0881 76.697V79.994H32.4101V76.697H27.0881ZM27.0881 72.44V75.737H32.4101V72.44H27.0881ZM23.3711 75.737H24.8501V72.44H23.3711V75.737ZM27.0881 80.954V85.094H24.8501V80.954H23.3711V85.097H32.4101V80.954H27.0881ZM27.0881 76.697V79.994H32.4101V76.697H27.0881ZM27.0881 72.44V75.737H32.4101V72.44H27.0881ZM27.0881 72.44V75.737H32.4101V72.44H27.0881ZM27.0881 76.697V77.603L27.4091 76.697H27.0881Z" stroke="#BBBBBB" stroke-miterlimit="10"/>
<path d="M42.5681 76.697V79.994H50.4881V76.697H42.5681ZM42.5681 76.697V79.994H50.4881V76.697H42.5681ZM42.5681 76.697V79.994H50.4881V76.697H42.5681ZM42.5681 76.697V79.994H50.4881V76.697H42.5681ZM42.5681 80.954V85.094H40.3302V80.954H32.4102V85.097H50.4881V80.954H42.5681ZM40.3302 79.994V76.697H32.4102V79.994H40.3302ZM42.5681 76.697V79.994H50.4881V76.697H42.5681ZM32.4102 72.44V75.737H40.3302V72.44H32.4102ZM32.4102 65.564V71.48H40.3302V69.062H42.5681V71.48H50.4881V65.564H32.4102ZM42.5681 76.697V79.994H50.4881V76.697H42.5681ZM42.5681 72.44V75.737H50.4881V72.44H42.5681ZM42.5681 76.697V79.994H50.4881V76.697H42.5681Z" stroke="#BBBBBB" stroke-miterlimit="10"/>
<path d="M55.4893 76.697L55.8103 77.603V76.697H55.4893ZM55.4893 76.697L55.8103 77.603V76.697H55.4893ZM50.4883 76.697V79.994H55.8103V76.697H50.4883ZM50.4883 72.44V75.737H55.8103V72.44H50.4883ZM50.4883 76.697V79.994H55.8103V76.697H50.4883ZM53.9863 72.44H50.4883V75.737H54.8653L55.0093 75.332L53.9863 72.44ZM50.4883 65.564V71.48H55.8103V69.062H58.0483V71.48H59.5273V65.564H50.4883ZM50.4883 72.44V75.737H54.8653L55.0093 75.332L53.9863 72.44H50.4883ZM50.4883 76.697V79.994H55.8103V76.697H50.4883ZM50.4883 72.44V75.737H55.8103V72.44H50.4883ZM50.4883 76.697V79.994H55.8103V76.697H50.4883ZM58.0483 80.954V85.094H55.8103V80.954H50.4883V85.097H59.5273V80.954H58.0483ZM58.0483 72.44V75.737H59.5273V72.44H58.0483ZM58.0483 76.697V79.994H59.5273V76.697H58.0483ZM55.4893 76.697L55.8103 77.603V76.697H55.4893ZM55.4893 76.697L55.8103 77.603V76.697H55.4893Z" stroke="#BBBBBB" stroke-miterlimit="10"/>
<path d="M45.7663 79.994L42.7153 76.697" stroke="#BBBBBB" stroke-miterlimit="10"/>
<path d="M48.3703 82.808L46.6543 80.954" stroke="#BBBBBB" stroke-miterlimit="10"/>
<path d="M37.8883 71.48L34.5312 67.853" stroke="#BBBBBB" stroke-miterlimit="10"/>
<path d="M40.3304 74.1199L38.7764 72.4399" stroke="#BBBBBB" stroke-miterlimit="10"/>
<path d="M44.1254 72.4399L42.5684 74.1229" stroke="#BBBBBB" stroke-miterlimit="10"/>
<path d="M48.3702 67.853L45.0132 71.48" stroke="#BBBBBB" stroke-miterlimit="10"/>
<path d="M40.1863 76.697L37.1353 79.994" stroke="#BBBBBB" stroke-miterlimit="10"/>
<path d="M36.2472 80.954L34.5312 82.808" stroke="#BBBBBB" stroke-miterlimit="10"/>
<path d="M55.1503 75.7369L55.0093 75.3319L53.9863 72.4399" stroke="#BBBBBB" stroke-miterlimit="10"/>
<path d="M53.6472 71.48L52.3662 67.853" stroke="#BBBBBB" stroke-miterlimit="10"/>
<path d="M55.8103 77.603L55.4893 76.697" stroke="#BBBBBB" stroke-miterlimit="10"/>
<path d="M57.6491 67.853L57.2231 69.062" stroke="#BBBBBB" stroke-miterlimit="10"/>
<path d="M53.0202 80.954L52.3662 82.808" stroke="#BBBBBB" stroke-miterlimit="10"/>
<path d="M55.8102 73.058L55.0092 75.332L54.8652 75.737" stroke="#BBBBBB" stroke-miterlimit="10"/>
<path d="M54.5264 76.697L53.3594 79.994" stroke="#BBBBBB" stroke-miterlimit="10"/>
<path d="M27.0879 73.058L27.8919 75.332L28.0329 75.737" stroke="#BBBBBB" stroke-miterlimit="10"/>
<path d="M30.5319 82.808L29.8779 80.954" stroke="#BBBBBB" stroke-miterlimit="10"/>
<path d="M29.5391 79.994L28.3721 76.697" stroke="#BBBBBB" stroke-miterlimit="10"/>
<path d="M25.675 69.062L25.249 67.853" stroke="#BBBBBB" stroke-miterlimit="10"/>
<path d="M28.912 72.4399L27.892 75.3319L27.748 75.7369" stroke="#BBBBBB" stroke-miterlimit="10"/>
<path d="M27.4089 76.697L27.0879 77.603" stroke="#BBBBBB" stroke-miterlimit="10"/>
<path d="M30.532 67.853L29.251 71.48" stroke="#BBBBBB" stroke-miterlimit="10"/>
<path d="M8.67714 71.48H9.37015V72.44H8.67714C8.58714 72.44 8.51514 72.365 8.51514 72.275V71.645C8.51514 71.552 8.58714 71.48 8.67714 71.48Z" stroke="#BBBBBB" stroke-miterlimit="10"/>
<path d="M24.8499 71.48H11.6079V72.44H24.8499V71.48Z" stroke="#BBBBBB" stroke-miterlimit="10"/>
<path d="M40.3299 71.48H27.0879V72.44H40.3299V71.48Z" stroke="#BBBBBB" stroke-miterlimit="10"/>
<path d="M55.8099 71.48H42.5679V72.44H55.8099V71.48Z" stroke="#BBBBBB" stroke-miterlimit="10"/>
<path d="M71.2928 71.48H58.0479V72.44H71.2928V71.48Z" stroke="#BBBBBB" stroke-miterlimit="10"/>
<path d="M74.3863 71.645V72.275C74.3863 72.365 74.3113 72.44 74.2213 72.44H73.5312V71.48H74.2213C74.3113 71.48 74.3863 71.552 74.3863 71.645Z" stroke="#BBBBBB" stroke-miterlimit="10"/>
<path d="M8.67714 75.7371H9.37015V76.6971H8.67714C8.58714 76.6971 8.51514 76.6221 8.51514 76.5321V75.9021C8.51514 75.8091 8.58714 75.7371 8.67714 75.7371Z" stroke="#BBBBBB" stroke-miterlimit="10"/>
<path d="M24.8499 75.7371H11.6079V76.6971H24.8499V75.7371Z" stroke="#BBBBBB" stroke-miterlimit="10"/>
<path d="M40.3299 75.7371H27.0879V76.6971H40.3299V75.7371Z" stroke="#BBBBBB" stroke-miterlimit="10"/>
<path d="M55.8099 75.7371H42.5679V76.6971H55.8099V75.7371Z" stroke="#BBBBBB" stroke-miterlimit="10"/>
<path d="M71.2928 75.7371H58.0479V76.6971H71.2928V75.7371Z" stroke="#BBBBBB" stroke-miterlimit="10"/>
<path d="M74.3863 75.9021V76.5321C74.3863 76.6221 74.3113 76.6971 74.2213 76.6971H73.5312V75.7371H74.2213C74.3113 75.7371 74.3863 75.8091 74.3863 75.9021Z" stroke="#BBBBBB" stroke-miterlimit="10"/>
<path d="M8.67714 79.994H9.37015V80.954H8.67714C8.58714 80.954 8.51514 80.879 8.51514 80.789V80.159C8.51514 80.066 8.58714 79.994 8.67714 79.994Z" stroke="#BBBBBB" stroke-miterlimit="10"/>
<path d="M24.8499 79.994H11.6079V80.954H24.8499V79.994Z" stroke="#BBBBBB" stroke-miterlimit="10"/>
<path d="M40.3299 79.994H27.0879V80.954H40.3299V79.994Z" stroke="#BBBBBB" stroke-miterlimit="10"/>
<path d="M55.8099 79.994H42.5679V80.954H55.8099V79.994Z" stroke="#BBBBBB" stroke-miterlimit="10"/>
<path d="M71.2928 79.994H58.0479V80.954H71.2928V79.994Z" stroke="#BBBBBB" stroke-miterlimit="10"/>
<path d="M74.3863 80.159V80.789C74.3863 80.879 74.3113 80.954 74.2213 80.954H73.5312V79.994H74.2213C74.3113 79.994 74.3863 80.066 74.3863 80.159Z" stroke="#BBBBBB" stroke-miterlimit="10"/>
<path d="M60.622 64.214H22.2729V65.567H60.622V64.214Z" stroke="#BBBBBB" stroke-miterlimit="10" stroke-linecap="round" stroke-linejoin="round"/>
<path d="M33.8499 59.9839L32.7909 43.2649L32.7099 41.9989H19.7229L20.0229 43.2649L24.6519 62.7499H34.0239L33.8499 59.9839ZM33.8499 59.9839L32.7909 43.2649L32.7099 41.9989H19.7229L20.0229 43.2649L24.6519 62.7499H34.0239L33.8499 59.9839ZM33.5349 40.5379V40.5349H18.7119V40.5379L19.0539 41.9779H33.6249L33.5349 40.5379Z" stroke="#BBBBBB" stroke-miterlimit="10" stroke-linecap="round" stroke-linejoin="round"/>
<path d="M34.7652 59.933L33.6252 41.978H19.0542L24.3372 64.211H35.0352L34.7652 59.933ZM24.6522 62.75L20.0232 43.265L19.7232 41.999H32.7102L32.7912 43.265L33.8502 59.984L34.0242 62.75H24.6522Z" stroke="#BBBBBB" stroke-miterlimit="10" stroke-linecap="round" stroke-linejoin="round"/>
<path d="M50.188 41.9989L50.11 43.2649L49.051 59.9839L48.874 62.7499H58.246L62.875 43.2649L63.175 41.9989H50.188ZM49.363 40.5349V40.5379L49.273 41.9779H63.844L64.186 40.5379V40.5349H49.363ZM50.11 43.2649L49.051 59.9839L48.874 62.7499H58.246L62.875 43.2649L63.175 41.9989H50.188L50.11 43.2649Z" stroke="#BBBBBB" stroke-miterlimit="10" stroke-linecap="round" stroke-linejoin="round"/>
<path d="M49.2728 41.978L48.1328 59.933L47.8628 64.211H58.5608L63.8438 41.978H49.2728ZM58.2458 62.75H48.8738L49.0508 59.984L50.1098 43.265L50.1878 41.999H63.1748L62.8748 43.265L58.2458 62.75Z" stroke="#BBBBBB" stroke-miterlimit="10" stroke-linecap="round" stroke-linejoin="round"/>
<path d="M34.4982 41.9779L35.6382 59.9329L35.8182 62.7709H47.0802L47.2602 59.9329L48.4002 41.9779H34.4982ZM33.5352 40.5349V40.5379L33.6252 41.9779H34.4982L35.6382 59.9329L35.8182 62.7709H47.0802L47.2602 59.9329L48.4002 41.9779H49.2732L49.3632 40.5379V40.5349H33.5352Z" stroke="#BBBBBB" stroke-miterlimit="10" stroke-linecap="round" stroke-linejoin="round"/>
<path d="M49.273 41.978L48.133 59.933L47.863 64.211H35.035L34.765 59.933L33.625 41.978H34.498L35.638 59.933L35.818 62.771H47.08L47.26 59.933L48.4 41.978H49.273Z" stroke="#BBBBBB" stroke-miterlimit="10" stroke-linecap="round" stroke-linejoin="round"/>
<path d="M66.2651 40.538H16.6331L15.4331 38.1949H67.4651L66.2651 40.538Z" stroke="#BBBBBB" stroke-miterlimit="10" stroke-linecap="round" stroke-linejoin="round"/>
<path d="M65.0651 35.8519H17.8331L15.4331 38.1949H67.4651L65.0651 35.8519Z" stroke="#BBBBBB" stroke-miterlimit="10" stroke-linecap="round" stroke-linejoin="round"/>
<path d="M50.4881 35.852H32.4102L39.9552 22.136H43.2581L50.4881 35.852Z" stroke="#BBBBBB" stroke-miterlimit="10" stroke-linecap="round" stroke-linejoin="round"/>
<path d="M63.1513 35.852H50.4883L43.2583 22.136H45.5713L63.1513 35.852Z" stroke="#BBBBBB" stroke-miterlimit="10" stroke-linecap="round" stroke-linejoin="round"/>
<path d="M39.9551 22.136L32.4101 35.852H19.7471L37.6421 22.136H39.9551Z" stroke="#BBBBBB" stroke-miterlimit="10" stroke-linecap="round" stroke-linejoin="round"/>
<path d="M44.0106 22.136H39.1206L40.0356 20.3L41.6166 17.129L43.0836 20.195L44.0106 22.136Z" stroke="#BBBBBB" stroke-miterlimit="10" stroke-linecap="round" stroke-linejoin="round"/>
<path d="M47.4367 22.136H44.0107L43.0837 20.195L41.6167 17.129L47.4367 22.136Z" stroke="#BBBBBB" stroke-miterlimit="10" stroke-linecap="round" stroke-linejoin="round"/>
<path d="M41.6168 17.129L40.0358 20.3L39.1208 22.136H35.6948L41.6168 17.129Z" stroke="#BBBBBB" stroke-miterlimit="10" stroke-linecap="round" stroke-linejoin="round"/>
<path d="M64.1859 40.5349V40.5379L63.8439 41.9779H19.0539L18.7119 40.5379V40.5349H64.1859Z" stroke="#BBBBBB" stroke-miterlimit="10" stroke-linecap="round" stroke-linejoin="round"/>
<path d="M73.3298 91.2229L72.1298 93.5209H10.7708L9.5708 91.2229H73.3298Z" stroke="#BBBBBB" stroke-miterlimit="10"/>
<path d="M73.531 69.062H71.293V85.094H73.531V69.062Z" stroke="#BBBBBB" stroke-miterlimit="10"/>
<path d="M73.531 85.094H71.293V85.0976H73.531V85.094Z" stroke="#BBBBBB" stroke-miterlimit="10"/>
<path d="M58.0481 69.062H55.8101V85.094H58.0481V69.062Z" stroke="#BBBBBB" stroke-miterlimit="10"/>
<path d="M58.0481 85.094H55.8101V85.0976H58.0481V85.094Z" stroke="#BBBBBB" stroke-miterlimit="10"/>
<path d="M42.5681 69.062H40.3301V85.094H42.5681V69.062Z" stroke="#BBBBBB" stroke-miterlimit="10"/>
<path d="M42.5681 85.094H40.3301V85.0976H42.5681V85.094Z" stroke="#BBBBBB" stroke-miterlimit="10"/>
<path d="M27.0881 69.062H24.8501V85.094H27.0881V69.062Z" stroke="#BBBBBB" stroke-miterlimit="10"/>
<path d="M27.0881 85.094H24.8501V85.0976H27.0881V85.094Z" stroke="#BBBBBB" stroke-miterlimit="10"/>
<path d="M11.6081 69.062H9.37012V85.094H11.6081V69.062Z" stroke="#BBBBBB" stroke-miterlimit="10"/>
<path d="M11.6081 85.094H9.37012V85.0976H11.6081V85.094Z" stroke="#BBBBBB" stroke-miterlimit="10"/>
<path d="M41.6143 8.65398V2.33298C41.6143 2.33298 46.5103 0.187975 49.5763 2.52498C52.6393 4.85898 57.5413 6.35298 59.9923 4.20798C59.9923 4.20798 55.2433 9.34098 50.0713 7.50197C45.7063 5.95097 43.2793 7.42698 41.6143 8.65398ZM41.6143 8.65398V17.129" stroke="#BBBBBB" stroke-miterlimit="10" stroke-linecap="round" stroke-linejoin="round"/>
</svg>
