<svg width="574" height="600" viewBox="0 0 574 600" fill="none" xmlns="http://www.w3.org/2000/svg">
<path d="M481.5 334.968V522.912C481.5 530.214 475.584 536.13 468.282 536.13H267.75C260.448 536.13 254.538 530.214 254.538 522.912V334.968H261.306V524.508C261.306 528.816 264.792 532.296 269.094 532.296H466.938C471.24 532.296 474.732 528.816 474.732 524.508V334.968H481.5Z" stroke="#888888" stroke-miterlimit="10" stroke-linecap="round" stroke-linejoin="round"/>
<path d="M474.732 334.968V524.508C474.732 528.816 471.24 532.296 466.944 532.296H269.094C264.792 532.296 261.306 528.816 261.306 524.508V334.968H474.732Z" stroke="#888888" stroke-miterlimit="10" stroke-linecap="round" stroke-linejoin="round"/>
<path d="M253.638 333.402L249.426 336.672L247.062 338.508L159.294 406.662C155.73 409.434 150.564 408.75 147.756 405.138L93.708 345.858C79.38 330.144 66.408 313.254 54.924 295.362L18.708 238.968C15.9 235.35 16.518 230.172 20.082 227.4L114.426 154.134L118.578 159.486L28.698 229.29C25.302 231.93 24.678 236.82 27.324 240.222L61.314 293.298C72.096 310.134 84.3 326.022 97.788 340.782L148.674 396.48C151.308 399.876 156.204 400.494 159.6 397.854L248.268 329.004L249.486 328.056L251.208 330.276L253.638 333.402Z" stroke="#888888" stroke-miterlimit="10" stroke-linecap="round" stroke-linejoin="round"/>
<path d="M249.486 328.056L248.268 329.004L159.6 397.854C156.204 400.494 151.308 399.876 148.674 396.48L97.788 340.782C84.3 326.022 72.096 310.134 61.314 293.298L27.324 240.222C24.678 236.82 25.302 231.93 28.698 229.29L118.578 159.486L249.348 327.882L249.486 328.056Z" stroke="#888888" stroke-miterlimit="10" stroke-linecap="round" stroke-linejoin="round"/>
<path d="M441.966 313.506V316.974C441.966 317.952 441.168 318.744 440.196 318.744H415.548C414.57 318.744 413.778 317.946 413.778 316.974V313.506H441.966Z" stroke="#888888" stroke-miterlimit="10" stroke-linecap="round" stroke-linejoin="round"/>
<path d="M441.966 313.506V316.974C441.966 317.952 441.168 318.744 440.196 318.744H415.548C414.57 318.744 413.778 317.946 413.778 316.974V313.506H441.966Z" stroke="#888888" stroke-miterlimit="10" stroke-linecap="round" stroke-linejoin="round"/>
<path d="M436.206 303.594H420.21C416.844 303.594 414.024 306.162 413.916 309.33L413.772 313.506H441.966L442.11 309.33C442.218 306.162 439.572 303.594 436.206 303.594Z" stroke="#888888" stroke-miterlimit="10" stroke-linecap="round" stroke-linejoin="round"/>
<path d="M273.372 305.844C278.399 305.844 282.474 301.769 282.474 296.742C282.474 291.715 278.399 287.64 273.372 287.64C268.345 287.64 264.27 291.715 264.27 296.742C264.27 301.769 268.345 305.844 273.372 305.844Z" stroke="#888888" stroke-miterlimit="10" stroke-linecap="round" stroke-linejoin="round"/>
<path d="M286.35 291.786C287.196 293.982 287.448 296.394 287.106 298.716C287.058 299.004 287.022 299.298 286.968 299.586L286.746 300.438L286.638 300.864L286.488 301.278L286.188 302.106C285.696 303.168 285.156 304.224 284.418 305.142" stroke="#888888" stroke-miterlimit="10" stroke-linecap="round" stroke-linejoin="round"/>
<path d="M275.46 310.458C273.138 310.812 270.726 310.596 268.524 309.756C266.322 308.934 264.336 307.548 262.812 305.76" stroke="#888888" stroke-miterlimit="10" stroke-linecap="round" stroke-linejoin="round"/>
<path d="M429.426 280.92C435.258 280.92 439.986 276.192 439.986 270.36C439.986 264.528 435.258 259.8 429.426 259.8C423.594 259.8 418.866 264.528 418.866 270.36C418.866 276.192 423.594 280.92 429.426 280.92Z" stroke="#888888" stroke-miterlimit="10" stroke-linecap="round" stroke-linejoin="round"/>
<path d="M461.022 274.518C461.418 274.644 461.82 274.776 462.21 274.908L461.952 276.606C461.886 277.176 461.688 277.716 461.562 278.274C461.142 278.25 460.728 278.226 460.314 278.196C460.158 278.832 459.978 279.462 459.774 280.086C460.14 280.284 460.512 280.476 460.878 280.686L460.29 282.3L459.99 283.104C459.876 283.368 459.75 283.62 459.63 283.878C459.222 283.782 458.82 283.68 458.424 283.578C457.656 285.264 456.75 286.872 455.706 288.378C455.994 288.672 456.276 288.966 456.564 289.254L455.538 290.628L455.022 291.312L454.452 291.942C454.104 291.738 453.762 291.534 453.414 291.324C452.988 291.822 452.538 292.308 452.064 292.77C452.298 293.106 452.52 293.448 452.742 293.778L451.476 294.936C451.05 295.314 450.648 295.722 450.18 296.046C449.88 295.788 449.586 295.536 449.292 295.272C447.846 296.43 446.298 297.462 444.66 298.356C444.78 298.716 444.894 299.082 444.996 299.442L443.46 300.186C442.944 300.432 442.434 300.696 441.894 300.87C441.69 300.564 441.498 300.252 441.306 299.94C440.676 300.186 440.04 300.42 439.386 300.63C439.44 300.996 439.482 301.368 439.53 301.734C438.426 302.034 437.322 302.322 436.212 302.58C436.074 302.25 435.942 301.92 435.816 301.584C433.998 301.95 432.126 302.172 430.218 302.214C430.17 302.55 430.11 302.88 430.05 303.222C428.91 303.258 427.77 303.198 426.63 303.096C426.6 302.76 426.564 302.418 426.54 302.088C425.85 302.028 425.16 301.944 424.476 301.842C424.368 302.148 424.26 302.46 424.146 302.766C423.012 302.592 421.902 302.316 420.798 302.022C420.822 301.698 420.852 301.374 420.888 301.062C419.04 300.552 417.27 299.874 415.578 299.052C415.398 299.298 415.212 299.55 415.02 299.796C414 299.286 413.01 298.716 412.038 298.11C412.152 297.834 412.254 297.564 412.374 297.282C412.014 297.048 411.66 296.814 411.318 296.574V293.202C411.318 293.202 422.64 290.118 431.964 289.068C432.468 289.008 432.972 288.99 433.482 288.96C441.306 288.432 447.534 279.894 447.534 269.442C447.534 263.316 445.404 257.856 442.062 254.274C441.672 253.854 441.276 253.44 440.892 253.014L428.1 238.524C428.52 238.5 428.946 238.494 429.378 238.494C429.438 238.158 429.498 237.816 429.564 237.48C430.704 237.516 431.844 237.588 432.984 237.648C433.014 238.002 433.044 238.356 433.068 238.704C434.958 238.914 436.8 239.292 438.57 239.832C438.726 239.508 438.894 239.178 439.056 238.854C440.16 239.172 441.216 239.61 442.29 239.994C442.218 240.36 442.14 240.732 442.056 241.098C442.68 241.362 443.286 241.644 443.886 241.956C444.102 241.656 444.33 241.356 444.564 241.062L445.338 241.44L446.076 241.884L447.54 242.772C447.396 243.132 447.246 243.492 447.096 243.846C448.644 244.872 450.09 246.03 451.428 247.314C451.746 247.074 452.064 246.84 452.388 246.618C452.598 246.816 452.814 246.996 453.018 247.206L453.588 247.836L454.746 249.102C454.488 249.42 454.236 249.732 453.978 250.05C454.398 250.56 454.806 251.076 455.196 251.61C455.556 251.43 455.916 251.256 456.282 251.082C457.002 251.976 457.548 252.978 458.148 253.95C457.842 254.22 457.524 254.49 457.212 254.748C458.112 256.344 458.886 258.03 459.492 259.782C459.906 259.704 460.308 259.644 460.722 259.584C461.16 260.64 461.376 261.768 461.676 262.872C461.292 263.046 460.908 263.208 460.53 263.37C460.674 264.006 460.8 264.654 460.896 265.308C461.31 265.308 461.73 265.326 462.15 265.338L462.396 267.036L462.486 268.746C462.078 268.842 461.676 268.944 461.268 269.034C461.292 269.478 461.298 269.928 461.298 270.378C461.292 271.77 461.202 273.15 461.022 274.518Z" stroke="#888888" stroke-miterlimit="10"/>
<path d="M429.426 278.622C433.989 278.622 437.688 274.923 437.688 270.36C437.688 265.797 433.989 262.098 429.426 262.098C424.863 262.098 421.164 265.797 421.164 270.36C421.164 274.923 424.863 278.622 429.426 278.622Z" stroke="#888888" stroke-miterlimit="10" stroke-linecap="round" stroke-linejoin="round"/>
<path d="M459.018 313.506H441.972V316.974C441.972 317.952 441.174 318.744 440.202 318.744H415.554C414.576 318.744 413.784 317.946 413.784 316.974V313.506C412.428 313.506 411.324 312.402 411.324 311.046V293.202C411.324 293.202 422.646 290.118 431.97 289.068C432.474 289.008 432.978 288.99 433.488 288.96C441.312 288.432 447.54 279.894 447.54 269.442C447.54 263.316 445.41 257.856 442.068 254.274C441.678 253.854 441.282 253.44 440.898 253.014L428.106 238.524L415.416 224.154C414.9 223.566 414.27 223.11 413.568 222.798C412.872 222.48 412.104 222.312 411.324 222.312V221.238C411.324 217.068 407.946 213.69 403.776 213.69H312.816C308.646 213.69 305.268 217.068 305.268 221.238V273.192C305.268 276.24 305.472 279.288 305.862 282.312L307.986 298.428C308.022 298.734 308.046 299.034 308.046 299.334C308.046 303.078 304.998 306.222 301.14 306.222C297.468 306.222 294.198 303.816 293.226 300.276C290.496 290.316 281.352 283.002 270.522 283.032C265.458 283.05 261.306 287.256 261.306 292.332V334.962H474.732V329.214C474.732 320.544 467.688 313.506 459.018 313.506ZM429.426 259.8C435.258 259.8 439.986 264.528 439.986 270.36C439.986 276.192 435.258 280.92 429.426 280.92C423.594 280.92 418.866 276.192 418.866 270.36C418.872 264.528 423.6 259.8 429.426 259.8ZM273.372 305.844C268.344 305.844 264.27 301.77 264.27 296.742C264.27 291.714 268.344 287.64 273.372 287.64C278.4 287.64 282.474 291.714 282.474 296.742C282.474 301.77 278.4 305.844 273.372 305.844ZM319.566 309.966C315.336 309.966 311.904 306.528 311.904 302.298C311.904 298.068 315.336 294.636 319.566 294.636C323.796 294.636 327.228 298.068 327.228 302.298C327.228 306.528 323.796 309.966 319.566 309.966ZM319.566 250.602C315.336 250.602 311.904 247.17 311.904 242.94C311.904 238.71 315.336 235.278 319.566 235.278C323.796 235.278 327.228 238.71 327.228 242.94C327.228 247.17 323.796 250.602 319.566 250.602ZM339.714 280.278C335.484 280.278 332.052 276.846 332.052 272.616C332.052 268.386 335.484 264.954 339.714 264.954C343.944 264.954 347.376 268.386 347.376 272.616C347.376 276.846 343.944 280.278 339.714 280.278ZM359.862 309.966C355.632 309.966 352.2 306.528 352.2 302.298C352.2 298.068 355.632 294.636 359.862 294.636C364.092 294.636 367.524 298.068 367.524 302.298C367.524 306.528 364.092 309.966 359.862 309.966ZM359.862 250.602C355.632 250.602 352.2 247.17 352.2 242.94C352.2 238.71 355.632 235.278 359.862 235.278C364.092 235.278 367.524 238.71 367.524 242.94C367.524 247.17 364.092 250.602 359.862 250.602ZM380.01 280.278C375.78 280.278 372.348 276.846 372.348 272.616C372.348 268.386 375.78 264.954 380.01 264.954C384.24 264.954 387.672 268.386 387.672 272.616C387.672 276.846 384.24 280.278 380.01 280.278ZM400.158 309.966C395.928 309.966 392.49 306.528 392.49 302.298C392.49 298.068 395.928 294.636 400.158 294.636C404.388 294.636 407.82 298.068 407.82 302.298C407.82 306.528 404.388 309.966 400.158 309.966ZM400.158 250.602C395.928 250.602 392.49 247.17 392.49 242.94C392.49 238.71 395.928 235.278 400.158 235.278C404.388 235.278 407.82 238.71 407.82 242.94C407.82 247.17 404.388 250.602 400.158 250.602Z" stroke="#888888" stroke-miterlimit="10" stroke-linecap="round" stroke-linejoin="round"/>
<path d="M273.372 305.844C278.399 305.844 282.474 301.769 282.474 296.742C282.474 291.715 278.399 287.64 273.372 287.64C268.345 287.64 264.27 291.715 264.27 296.742C264.27 301.769 268.345 305.844 273.372 305.844Z" stroke="#888888" stroke-miterlimit="10" stroke-linecap="round" stroke-linejoin="round"/>
<path d="M327.228 302.298C327.228 306.528 323.796 309.966 319.566 309.966C315.336 309.966 311.904 306.528 311.904 302.298C311.904 298.068 315.336 294.636 319.566 294.636C323.796 294.636 327.228 298.062 327.228 302.298Z" stroke="#888888" stroke-miterlimit="10" stroke-linecap="round" stroke-linejoin="round"/>
<path d="M319.566 250.602C323.798 250.602 327.228 247.172 327.228 242.94C327.228 238.708 323.798 235.278 319.566 235.278C315.334 235.278 311.904 238.708 311.904 242.94C311.904 247.172 315.334 250.602 319.566 250.602Z" stroke="#888888" stroke-miterlimit="10" stroke-linecap="round" stroke-linejoin="round"/>
<path d="M347.17 274.407C348.142 270.288 345.592 266.162 341.474 265.189C337.356 264.217 333.229 266.767 332.256 270.885C331.284 275.003 333.834 279.13 337.952 280.103C342.071 281.075 346.197 278.525 347.17 274.407Z" stroke="#888888" stroke-miterlimit="10" stroke-linecap="round" stroke-linejoin="round"/>
<path d="M367.524 302.298C367.524 306.528 364.092 309.966 359.862 309.966C355.632 309.966 352.2 306.528 352.2 302.298C352.2 298.068 355.632 294.636 359.862 294.636C364.092 294.636 367.524 298.062 367.524 302.298Z" stroke="#888888" stroke-miterlimit="10" stroke-linecap="round" stroke-linejoin="round"/>
<path d="M359.862 250.602C364.094 250.602 367.524 247.172 367.524 242.94C367.524 238.708 364.094 235.278 359.862 235.278C355.63 235.278 352.2 238.708 352.2 242.94C352.2 247.172 355.63 250.602 359.862 250.602Z" stroke="#888888" stroke-miterlimit="10" stroke-linecap="round" stroke-linejoin="round"/>
<path d="M387.468 274.408C388.44 270.29 385.89 266.163 381.772 265.191C377.653 264.218 373.527 266.769 372.554 270.887C371.582 275.005 374.132 279.132 378.25 280.104C382.368 281.077 386.495 278.527 387.468 274.408Z" stroke="#888888" stroke-miterlimit="10" stroke-linecap="round" stroke-linejoin="round"/>
<path d="M407.82 302.298C407.82 306.528 404.388 309.966 400.158 309.966C395.928 309.966 392.49 306.528 392.49 302.298C392.49 298.068 395.928 294.636 400.158 294.636C404.388 294.636 407.82 298.062 407.82 302.298Z" stroke="#888888" stroke-miterlimit="10" stroke-linecap="round" stroke-linejoin="round"/>
<path d="M407.82 242.94C407.82 247.17 404.388 250.602 400.158 250.602C395.928 250.602 392.49 247.17 392.49 242.94C392.49 238.71 395.928 235.278 400.158 235.278C404.388 235.278 407.82 238.71 407.82 242.94Z" stroke="#888888" stroke-miterlimit="10" stroke-linecap="round" stroke-linejoin="round"/>
<path d="M429.426 280.92C435.258 280.92 439.986 276.192 439.986 270.36C439.986 264.528 435.258 259.8 429.426 259.8C423.594 259.8 418.866 264.528 418.866 270.36C418.866 276.192 423.594 280.92 429.426 280.92Z" stroke="#888888" stroke-miterlimit="10" stroke-linecap="round" stroke-linejoin="round"/>
<path d="M411.312 288.84V277.392" stroke="#888888" stroke-miterlimit="10" stroke-linecap="round" stroke-linejoin="round"/>
<path d="M411.312 268.71V257.262" stroke="#888888" stroke-miterlimit="10" stroke-linecap="round" stroke-linejoin="round"/>
<path d="M411.312 256.716V245.268" stroke="#888888" stroke-miterlimit="10" stroke-linecap="round" stroke-linejoin="round"/>
<path d="M411.312 236.586V225.138" stroke="#888888" stroke-miterlimit="10" stroke-linecap="round" stroke-linejoin="round"/>
<path d="M347.17 274.407C348.142 270.288 345.592 266.162 341.474 265.189C337.356 264.217 333.229 266.767 332.256 270.885C331.284 275.003 333.834 279.13 337.952 280.103C342.071 281.075 346.197 278.525 347.17 274.407Z" stroke="#888888" stroke-miterlimit="10" stroke-linecap="round" stroke-linejoin="round"/>
<path d="M387.468 274.408C388.44 270.29 385.89 266.163 381.772 265.191C377.653 264.219 373.527 266.769 372.554 270.887C371.582 275.005 374.132 279.132 378.25 280.104C382.368 281.077 386.495 278.527 387.468 274.408Z" stroke="#888888" stroke-miterlimit="10" stroke-linecap="round" stroke-linejoin="round"/>
<path d="M359.862 250.602C364.094 250.602 367.524 247.172 367.524 242.94C367.524 238.708 364.094 235.278 359.862 235.278C355.63 235.278 352.2 238.708 352.2 242.94C352.2 247.172 355.63 250.602 359.862 250.602Z" stroke="#888888" stroke-miterlimit="10" stroke-linecap="round" stroke-linejoin="round"/>
<path d="M407.82 242.94C407.82 247.17 404.388 250.602 400.158 250.602C395.928 250.602 392.49 247.17 392.49 242.94C392.49 238.71 395.928 235.278 400.158 235.278C404.388 235.278 407.82 238.71 407.82 242.94Z" stroke="#888888" stroke-miterlimit="10" stroke-linecap="round" stroke-linejoin="round"/>
<path d="M319.566 250.602C323.798 250.602 327.228 247.172 327.228 242.94C327.228 238.708 323.798 235.278 319.566 235.278C315.334 235.278 311.904 238.708 311.904 242.94C311.904 247.172 315.334 250.602 319.566 250.602Z" stroke="#888888" stroke-miterlimit="10" stroke-linecap="round" stroke-linejoin="round"/>
<path d="M367.524 302.298C367.524 306.528 364.092 309.966 359.862 309.966C355.632 309.966 352.2 306.528 352.2 302.298C352.2 298.068 355.632 294.636 359.862 294.636C364.092 294.636 367.524 298.062 367.524 302.298Z" stroke="#888888" stroke-miterlimit="10" stroke-linecap="round" stroke-linejoin="round"/>
<path d="M407.82 302.298C407.82 306.528 404.388 309.966 400.158 309.966C395.928 309.966 392.49 306.528 392.49 302.298C392.49 298.068 395.928 294.636 400.158 294.636C404.388 294.636 407.82 298.062 407.82 302.298Z" stroke="#888888" stroke-miterlimit="10" stroke-linecap="round" stroke-linejoin="round"/>
<path d="M327.228 302.298C327.228 306.528 323.796 309.966 319.566 309.966C315.336 309.966 311.904 306.528 311.904 302.298C311.904 298.068 315.336 294.636 319.566 294.636C323.796 294.636 327.228 298.062 327.228 302.298Z" stroke="#888888" stroke-miterlimit="10" stroke-linecap="round" stroke-linejoin="round"/>
<path d="M253.182 339.156C252.948 339.138 252.72 339.102 252.498 339.042C252.72 339.096 252.954 339.132 253.182 339.156Z" stroke="#888888" stroke-miterlimit="10" stroke-linecap="round" stroke-linejoin="round"/>
<path d="M258.432 334.392C258.432 334.584 258.414 334.782 258.39 334.968H254.538V339.09C254.244 339.15 253.938 339.18 253.638 339.18C253.488 339.18 253.332 339.174 253.182 339.156C252.954 339.132 252.72 339.096 252.498 339.042C252.426 339.024 252.348 339.006 252.276 338.982C252.138 338.94 252.006 338.898 251.874 338.844C251.712 338.784 251.556 338.712 251.406 338.628C251.268 338.556 251.136 338.478 251.004 338.388C250.872 338.304 250.746 338.208 250.62 338.106C250.608 338.1 250.602 338.094 250.596 338.088C250.476 337.986 250.362 337.884 250.254 337.776C250.146 337.668 250.038 337.554 249.942 337.434C249.894 337.374 249.846 337.314 249.804 337.254C249.738 337.17 249.678 337.086 249.624 337.002C249.552 336.894 249.486 336.786 249.426 336.672L253.638 333.402L251.208 330.276C251.952 329.826 252.798 329.61 253.638 329.61V329.604C253.71 329.604 253.788 329.604 253.86 329.61C253.884 329.604 253.902 329.61 253.914 329.61L254.13 329.628C254.388 329.652 254.634 329.694 254.874 329.766C254.94 329.778 255 329.796 255.066 329.82C255.096 329.82 255.126 329.832 255.15 329.844C255.246 329.874 255.336 329.904 255.426 329.946C255.534 329.988 255.636 330.03 255.738 330.084C255.804 330.114 255.864 330.15 255.924 330.18C256.062 330.252 256.194 330.33 256.32 330.42C256.41 330.48 256.5 330.546 256.59 330.618C256.74 330.732 256.89 330.864 257.028 331.002C257.1 331.074 257.172 331.152 257.238 331.23C257.298 331.296 257.352 331.368 257.406 331.44C258.048 332.256 258.432 333.276 258.432 334.392Z" stroke="#888888" stroke-miterlimit="10" stroke-linecap="round" stroke-linejoin="round"/>
<path d="M261.306 333.21V334.968H254.538V342.096C254.244 342.132 253.944 342.15 253.638 342.15C250.866 342.15 248.43 340.698 247.062 338.508L249.426 336.672L253.638 333.402L251.208 330.276L249.486 328.056L249.348 327.882C252.036 326.106 255.588 326.172 258.21 328.104L258.282 328.176C259.872 329.37 260.994 331.158 261.306 333.21Z" stroke="#888888" stroke-miterlimit="10" stroke-linecap="round" stroke-linejoin="round"/>
<path d="M261.306 306.708C257.466 309.33 253.374 313.098 248.76 314.124C247.932 314.31 247.032 314.388 246.252 314.04C243.942 313.008 243.264 309.252 242.874 307.068C241.884 301.458 243.996 296.316 247.674 292.152C251.202 288.156 253.986 283.584 257.61 279.69C260.91 276.144 265.164 274.122 269.832 276.432C279.318 281.124 282.966 285.744 285.84 288.666" stroke="#888888" stroke-miterlimit="10" stroke-linecap="round" stroke-linejoin="round"/>
<path d="M453.816 433.938C453.786 438.222 453.438 442.488 452.832 446.73" stroke="#888888" stroke-miterlimit="10" stroke-linecap="round" stroke-linejoin="round"/>
<path d="M450.798 456.24C449.718 460.385 448.212 464.405 446.514 468.329" stroke="#888888" stroke-miterlimit="10" stroke-linecap="round" stroke-linejoin="round"/>
<path d="M446.262 468.882C445.422 470.85 444.402 472.734 443.43 474.642C442.362 476.496 441.33 478.374 440.136 480.15" stroke="#888888" stroke-miterlimit="10" stroke-linecap="round" stroke-linejoin="round"/>
<path d="M434.43 488.022C431.7 491.322 428.754 494.43 425.598 497.328" stroke="#888888" stroke-miterlimit="10" stroke-linecap="round" stroke-linejoin="round"/>
<path d="M425.142 497.724C421.968 500.598 418.53 503.166 414.972 505.536" stroke="#888888" stroke-miterlimit="10" stroke-linecap="round" stroke-linejoin="round"/>
<path d="M406.548 510.408C402.726 512.322 398.778 514.02 394.698 515.316" stroke="#888888" stroke-miterlimit="10" stroke-linecap="round" stroke-linejoin="round"/>
<path d="M394.122 515.508C390.036 516.78 385.878 517.836 381.648 518.496" stroke="#888888" stroke-miterlimit="10" stroke-linecap="round" stroke-linejoin="round"/>
<path d="M371.976 519.516C367.698 519.696 363.414 519.576 359.154 519.186" stroke="#888888" stroke-miterlimit="10" stroke-linecap="round" stroke-linejoin="round"/>
<path d="M358.548 519.108C354.288 518.652 350.082 517.842 345.93 516.792" stroke="#888888" stroke-miterlimit="10" stroke-linecap="round" stroke-linejoin="round"/>
<path d="M336.684 513.774C335.694 513.366 334.68 513.024 333.714 512.562L330.792 511.242C328.884 510.276 326.952 509.346 325.122 508.242" stroke="#888888" stroke-miterlimit="10" stroke-linecap="round" stroke-linejoin="round"/>
<path d="M324.588 507.936C320.904 505.764 317.328 503.382 314.022 500.67" stroke="#888888" stroke-miterlimit="10" stroke-linecap="round" stroke-linejoin="round"/>
<path d="M306.786 494.172C303.774 491.13 301.008 487.848 298.458 484.416" stroke="#888888" stroke-miterlimit="10" stroke-linecap="round" stroke-linejoin="round"/>
<path d="M298.11 483.918C295.578 480.468 293.358 476.79 291.396 472.992" stroke="#888888" stroke-miterlimit="10" stroke-linecap="round" stroke-linejoin="round"/>
<path d="M287.43 464.106C287.016 463.122 286.71 462.09 286.356 461.082C286.014 460.068 285.654 459.06 285.384 458.022C285.096 456.99 284.79 455.964 284.514 454.932L283.794 451.806" stroke="#888888" stroke-miterlimit="10" stroke-linecap="round" stroke-linejoin="round"/>
<path d="M283.662 451.218C282.834 447.018 282.246 442.776 282 438.498" stroke="#888888" stroke-miterlimit="10" stroke-linecap="round" stroke-linejoin="round"/>
<path d="M282 428.772C282.24 424.5 282.828 420.252 283.662 416.052" stroke="#888888" stroke-miterlimit="10" stroke-linecap="round" stroke-linejoin="round"/>
<path d="M283.794 415.458L284.514 412.332C284.79 411.3 285.096 410.274 285.384 409.242C285.654 408.204 286.014 407.196 286.356 406.182C286.71 405.174 287.016 404.148 287.43 403.158" stroke="#888888" stroke-miterlimit="10" stroke-linecap="round" stroke-linejoin="round"/>
<path d="M291.396 394.278C293.358 390.48 295.572 386.802 298.11 383.352" stroke="#888888" stroke-miterlimit="10" stroke-linecap="round" stroke-linejoin="round"/>
<path d="M298.464 382.854C301.014 379.416 303.774 376.134 306.792 373.098" stroke="#888888" stroke-miterlimit="10" stroke-linecap="round" stroke-linejoin="round"/>
<path d="M314.022 366.594C317.334 363.882 320.904 361.5 324.588 359.328" stroke="#888888" stroke-miterlimit="10" stroke-linecap="round" stroke-linejoin="round"/>
<path d="M325.116 359.022C326.952 357.918 328.884 356.988 330.786 356.022L333.708 354.702C334.674 354.246 335.694 353.898 336.678 353.49" stroke="#888888" stroke-miterlimit="10" stroke-linecap="round" stroke-linejoin="round"/>
<path d="M345.936 350.472C350.082 349.422 354.294 348.606 358.554 348.156" stroke="#888888" stroke-miterlimit="10" stroke-linecap="round" stroke-linejoin="round"/>
<path d="M359.154 348.084C363.414 347.694 367.698 347.574 371.976 347.754" stroke="#888888" stroke-miterlimit="10" stroke-linecap="round" stroke-linejoin="round"/>
<path d="M381.648 348.768C385.878 349.428 390.036 350.484 394.122 351.756" stroke="#888888" stroke-miterlimit="10" stroke-linecap="round" stroke-linejoin="round"/>
<path d="M394.698 351.948C398.778 353.244 402.72 354.942 406.548 356.856" stroke="#888888" stroke-miterlimit="10" stroke-linecap="round" stroke-linejoin="round"/>
<path d="M414.966 361.728C418.524 364.098 421.962 366.666 425.136 369.54" stroke="#888888" stroke-miterlimit="10" stroke-linecap="round" stroke-linejoin="round"/>
<path d="M425.598 369.936C428.748 372.834 431.7 375.942 434.43 379.242" stroke="#888888" stroke-miterlimit="10" stroke-linecap="round" stroke-linejoin="round"/>
<path d="M440.142 387.114C441.336 388.89 442.368 390.768 443.436 392.622C444.408 394.53 445.422 396.414 446.268 398.382" stroke="#888888" stroke-miterlimit="10" stroke-linecap="round" stroke-linejoin="round"/>
<path d="M446.514 398.94C448.218 402.864 449.724 406.884 450.798 411.03" stroke="#888888" stroke-miterlimit="10" stroke-linecap="round" stroke-linejoin="round"/>
<path d="M452.832 420.54C453.438 424.776 453.786 429.048 453.816 433.332" stroke="#888888" stroke-miterlimit="10" stroke-linecap="round" stroke-linejoin="round"/>
<path d="M443.064 433.938C443.052 438.24 442.638 442.542 441.9 446.778" stroke="#888888" stroke-miterlimit="10" stroke-linecap="round" stroke-linejoin="round"/>
<path d="M439.584 456.276C438.306 460.386 436.614 464.358 434.628 468.18" stroke="#888888" stroke-miterlimit="10" stroke-linecap="round" stroke-linejoin="round"/>
<path d="M434.352 468.72C432.33 472.518 429.978 476.136 427.344 479.538" stroke="#888888" stroke-miterlimit="10" stroke-linecap="round" stroke-linejoin="round"/>
<path d="M420.864 486.864C417.822 489.906 414.48 492.648 410.952 495.108" stroke="#888888" stroke-miterlimit="10" stroke-linecap="round" stroke-linejoin="round"/>
<path d="M410.46 495.462C406.908 497.886 403.146 500.01 399.234 501.798" stroke="#888888" stroke-miterlimit="10" stroke-linecap="round" stroke-linejoin="round"/>
<path d="M390.096 505.284C385.986 506.562 381.75 507.42 377.484 507.96" stroke="#888888" stroke-miterlimit="10" stroke-linecap="round" stroke-linejoin="round"/>
<path d="M376.878 508.032C372.606 508.518 368.292 508.65 363.99 508.434" stroke="#888888" stroke-miterlimit="10" stroke-linecap="round" stroke-linejoin="round"/>
<path d="M354.288 507.252C350.058 506.454 345.9 505.302 341.868 503.802" stroke="#888888" stroke-miterlimit="10" stroke-linecap="round" stroke-linejoin="round"/>
<path d="M341.298 503.58C337.284 502.038 333.384 500.172 329.706 497.94" stroke="#888888" stroke-miterlimit="10" stroke-linecap="round" stroke-linejoin="round"/>
<path d="M321.672 492.372C318.3 489.696 315.156 486.738 312.288 483.54" stroke="#888888" stroke-miterlimit="10" stroke-linecap="round" stroke-linejoin="round"/>
<path d="M311.88 483.072C309.042 479.838 306.456 476.382 304.218 472.704" stroke="#888888" stroke-miterlimit="10" stroke-linecap="round" stroke-linejoin="round"/>
<path d="M299.682 464.046C297.936 460.116 296.526 456.036 295.476 451.86" stroke="#888888" stroke-miterlimit="10" stroke-linecap="round" stroke-linejoin="round"/>
<path d="M295.338 451.266C295.11 450.216 294.822 449.178 294.642 448.116L294.078 444.936L293.67 441.732C293.544 440.664 293.496 439.59 293.4 438.516" stroke="#888888" stroke-miterlimit="10" stroke-linecap="round" stroke-linejoin="round"/>
<path d="M293.406 428.742C293.496 427.668 293.544 426.594 293.676 425.526L294.084 422.322L294.648 419.142C294.828 418.08 295.116 417.042 295.344 415.992" stroke="#888888" stroke-miterlimit="10" stroke-linecap="round" stroke-linejoin="round"/>
<path d="M295.476 415.404C296.532 411.234 297.936 407.154 299.682 403.218" stroke="#888888" stroke-miterlimit="10" stroke-linecap="round" stroke-linejoin="round"/>
<path d="M304.218 394.56C306.456 390.882 309.042 387.426 311.88 384.192" stroke="#888888" stroke-miterlimit="10" stroke-linecap="round" stroke-linejoin="round"/>
<path d="M312.282 383.73C315.156 380.526 318.3 377.568 321.666 374.898" stroke="#888888" stroke-miterlimit="10" stroke-linecap="round" stroke-linejoin="round"/>
<path d="M329.706 369.324C333.384 367.092 337.284 365.226 341.298 363.684" stroke="#888888" stroke-miterlimit="10" stroke-linecap="round" stroke-linejoin="round"/>
<path d="M341.868 363.462C345.9 361.962 350.058 360.81 354.288 360.012" stroke="#888888" stroke-miterlimit="10" stroke-linecap="round" stroke-linejoin="round"/>
<path d="M363.99 358.83C368.286 358.614 372.6 358.746 376.878 359.232" stroke="#888888" stroke-miterlimit="10" stroke-linecap="round" stroke-linejoin="round"/>
<path d="M377.484 359.31C381.75 359.844 385.986 360.708 390.096 361.986" stroke="#888888" stroke-miterlimit="10" stroke-linecap="round" stroke-linejoin="round"/>
<path d="M399.234 365.467C403.146 367.255 406.908 369.379 410.46 371.803" stroke="#888888" stroke-miterlimit="10" stroke-linecap="round" stroke-linejoin="round"/>
<path d="M410.958 372.156C414.486 374.616 417.822 377.358 420.87 380.4" stroke="#888888" stroke-miterlimit="10" stroke-linecap="round" stroke-linejoin="round"/>
<path d="M427.344 387.726C429.978 391.128 432.33 394.746 434.352 398.544" stroke="#888888" stroke-miterlimit="10" stroke-linecap="round" stroke-linejoin="round"/>
<path d="M434.628 399.09C436.608 402.906 438.3 406.884 439.584 410.994" stroke="#888888" stroke-miterlimit="10" stroke-linecap="round" stroke-linejoin="round"/>
<path d="M441.9 420.486C442.644 424.722 443.052 429.018 443.064 433.326" stroke="#888888" stroke-miterlimit="10" stroke-linecap="round" stroke-linejoin="round"/>
<path opacity="0.15" d="M366.664 181.65L361.849 186L354.498 186.629L345.746 182.397L343.972 177.037L346.328 161.207L355.572 152.494L364.324 148.876L363.623 154.368L362.49 160.094L367.306 167.694L366.664 181.65Z" fill="#26BFDC"/>
<path opacity="0.15" d="M335.222 179.899L347.526 191.667L366.002 193.236L379.944 174.781L366.002 143.513L353.355 129.056L336.86 153.525L335.222 179.899Z" fill="#26BFDC"/>
<path opacity="0.15" d="M334.903 186.431L361.268 203.618L386.75 182.675L373.547 148.464L369.678 127.071L357.189 108.292L330.361 142.136L334.903 186.431Z" fill="#26BFDC"/>
<path opacity="0.15" d="M361.771 98.8538L335.19 117.272L330.361 148.402L337.95 187.876L360.026 203.618L391.111 183.507L399.389 157.415L375.568 132.66L361.771 98.8538Z" fill="#26BFDC"/>
<path opacity="0.15" d="M318.694 173.748L351.096 203.618L388.613 194.457L402.305 162.979L377.979 117.808L365.19 80.9211L330.632 122.778L318.694 173.748Z" fill="#26BFDC"/>
<path opacity="0.15" d="M319.451 197.165L312.861 161.799L326.041 118.221L347.028 90.2072L372.778 64.8765L384.739 96.2179L387.12 118.221L400.577 131.048L407.167 189.652L364.361 206.45L319.451 197.165Z" fill="#26BFDC"/>
<path opacity="0.15" d="M410.115 191.843L388.444 211.198L355.367 214L315.984 195.167L308 171.316L318.601 100.87L360.198 62.0962L399.581 46L396.428 70.4375L391.329 95.9178L413 129.739L410.115 191.843Z" fill="#26BFDC"/>
</svg>
