<svg width="442" height="442" viewBox="0 0 442 442" fill="none" xmlns="http://www.w3.org/2000/svg">
<path opacity="0.25" d="M241.711 157.55L244.908 160.272L249.648 160.461L255.178 157.399L256.195 153.807L254.315 143.433L248.171 137.968L242.461 135.85L243.038 139.453L243.899 143.196L240.977 148.36L241.711 157.55Z" fill="#26BFDC"/>
<path opacity="0.25" d="M262.062 155.303L254.425 163.428L242.556 165.025L233.109 153.297L241.315 132.28L249.106 122.374L260.348 137.985L262.062 155.303Z" fill="#26BFDC"/>
<path opacity="0.25" d="M262.408 159.57L245.855 171.733L229.017 158.688L236.735 135.69L238.743 121.444L246.346 108.658L264.336 130.18L262.408 159.57Z" fill="#26BFDC"/>
<path opacity="0.25" d="M243.058 102.404L260.613 113.73L264.471 134.103L260.535 160.356L246.702 171.409L226.206 159.105L220.248 142.159L234.988 125.111L243.058 102.404Z" fill="#26BFDC"/>
<path opacity="0.25" d="M272.945 150.511L252.806 171.18L228.41 166.291L218.814 145.972L233.375 115.47L240.707 90.7777L264.001 117.297L272.945 150.511Z" fill="#26BFDC"/>
<path opacity="0.25" d="M273.173 165.938L276.559 142.428L267.016 114.111L252.823 96.2906L235.627 80.3845L228.685 101.407L227.685 115.981L219.331 124.847L216.508 163.672L244.479 173.432L273.173 165.938Z" fill="#26BFDC"/>
<path opacity="0.25" d="M214.767 165.2L229.152 177.303L250.489 178.134L275.379 164.497L279.96 148.515L271.507 102.364L243.856 78.0608L218.155 68.6523L220.75 84.6786L224.621 101.333L211.469 124.314L214.767 165.2Z" fill="#26BFDC"/>
<path d="M179.263 362.485L170.439 359.617C168.688 359.048 167.728 357.165 168.297 355.414L210.22 226.391L225.389 231.319L183.466 360.343C182.896 362.097 181.014 363.053 179.263 362.485Z" stroke="#DDDDDD" stroke-miterlimit="10" stroke-linecap="round" stroke-linejoin="round"/>
<path d="M225.435 231.335L210.17 226.375C208.502 225.833 207.315 224.354 207.15 222.608L206.629 217.099L233.752 225.911L230.092 230.062C228.932 231.378 227.103 231.877 225.435 231.335Z" stroke="#DDDDDD" stroke-miterlimit="10" stroke-linecap="round" stroke-linejoin="round"/>
<path d="M245.98 193.499L215.788 183.689C212.493 182.618 210.124 179.762 209.764 176.418L208.62 165.859L262.259 183.288L255.127 191.157C252.872 193.648 249.275 194.57 245.98 193.499Z" stroke="#DDDDDD" stroke-miterlimit="10" stroke-linecap="round" stroke-linejoin="round"/>
<path d="M234.557 226.173L205.827 216.838C198.877 214.58 193.496 209.019 191.472 201.998L188.919 193.149L262.163 216.948L254.897 222.606C249.124 227.097 241.507 228.431 234.557 226.173Z" stroke="#DDDDDD" stroke-miterlimit="10" stroke-linecap="round" stroke-linejoin="round"/>
<path d="M232.148 221.537L210.501 214.503C205.265 212.802 201.014 209.224 199.156 204.954L196.815 199.575L251.998 217.505L246.943 220.481C242.926 222.842 237.384 223.238 232.148 221.537Z" stroke="#DDDDDD" stroke-miterlimit="10" stroke-linecap="round" stroke-linejoin="round"/>
<path d="M240.577 195.596L218.93 188.563C213.694 186.862 208.152 187.258 204.139 189.619L199.083 192.595L254.266 210.525L251.925 205.146C250.063 200.876 245.813 197.298 240.577 195.596Z" stroke="#DDDDDD" stroke-miterlimit="10" stroke-linecap="round" stroke-linejoin="round"/>
<path d="M216.517 183.926L245.247 193.261C252.198 195.519 257.578 201.08 259.603 208.1L262.156 216.949L188.914 193.151L196.181 187.493C201.95 183.001 209.567 181.667 216.517 183.926Z" stroke="#DDDDDD" stroke-miterlimit="10" stroke-linecap="round" stroke-linejoin="round"/>
<path d="M263.1 180.698L209.462 163.27L208.62 165.859L262.259 183.288L263.1 180.698Z" stroke="#DDDDDD" stroke-miterlimit="10" stroke-linecap="round" stroke-linejoin="round"/>
<path d="M247.347 165.245L244.311 174.589L228.26 169.374L231.296 160.03C232.736 155.596 237.491 153.174 241.924 154.614C246.358 156.055 248.786 160.815 247.347 165.245Z" stroke="#DDDDDD" stroke-miterlimit="10" stroke-linecap="round" stroke-linejoin="round"/>
<path d="M213.568 229.576L174.091 351.074" stroke="#DDDDDD" stroke-miterlimit="10" stroke-linecap="round" stroke-linejoin="round"/>
<path d="M217.186 230.752L177.709 352.249" stroke="#DDDDDD" stroke-miterlimit="10" stroke-linecap="round" stroke-linejoin="round"/>
<path d="M220.804 231.927L181.327 353.425" stroke="#DDDDDD" stroke-miterlimit="10" stroke-linecap="round" stroke-linejoin="round"/>
</svg>
